<?xml version="1.0" standalone="no"?>
<!DOCTYPE svg PUBLIC "-//W3C//DTD SVG 20010904//EN"
 "http://www.w3.org/TR/2001/REC-SVG-20010904/DTD/svg10.dtd">
<svg version="1.0" xmlns="http://www.w3.org/2000/svg"
 width="16.000000pt" height="16.000000pt" viewBox="0 0 16.000000 16.000000"
 preserveAspectRatio="xMidYMid meet">
<metadata>
Created by potrace 1.11, written by Peter Selinger 2001-2013
</metadata>
<g transform="translate(0.000000,16.000000) scale(0.002286,-0.002286)"
fill="#000000" stroke="none">
<path d="M2 4948 c0 -1129 3 -2037 5 -2018 22 205 99 437 202 604 94 152 949
1447 1013 1533 166 223 422 408 691 498 193 64 224 68 693 72 l431 5 378 656
c209 361 385 667 393 680 l14 22 -1911 0 -1911 0 2 -2052z"/>
<path d="M6980 6200 l0 -800 -141 -228 c-160 -257 -541 -878 -558 -910 -10
-19 13 -58 201 -344 116 -178 236 -363 265 -413 68 -114 124 -258 159 -410 25
-108 28 -138 28 -305 0 -153 -4 -203 -22 -287 -28 -131 -72 -255 -129 -368
-44 -87 -948 -1472 -1061 -1625 -79 -108 -224 -246 -338 -323 -89 -59 -251
-144 -311 -162 l-23 -6 0 1040 0 1040 224 3 225 3 35 34 c44 42 52 76 31 129
-15 36 -119 120 -1011 809 -547 422 -1017 780 -1045 796 -62 33 -99 34 -160 4
-26 -12 -250 -179 -498 -372 -249 -192 -456 -351 -462 -353 -5 -2 -9 25 -9 61
0 59 -3 68 -26 86 -25 20 -39 21 -259 21 -214 0 -235 -2 -256 -19 l-24 -19 -5
-293 -5 -293 -250 -191 c-137 -106 -256 -203 -262 -216 -20 -39 -16 -103 9
-134 39 -50 68 -55 298 -55 l210 0 0 -1025 0 -1024 -48 22 c-208 99 -381 236
-522 412 -46 58 -936 1402 -1030 1557 -98 160 -175 380 -198 570 -6 47 -10
-400 -11 -1269 l-1 -1343 3500 0 3500 0 0 3500 c0 2327 -3 3500 -10 3500 -7 0
-10 -273 -10 -800z"/>
</g>
</svg>
