<?xml version="1.0" standalone="no"?>
<!DOCTYPE svg PUBLIC "-//W3C//DTD SVG 1.1//EN" "http://www.w3.org/Graphics/SVG/1.1/DTD/svg11.dtd" >
<svg xmlns="http://www.w3.org/2000/svg">
<metadata>Generated by IcoMoon</metadata>
<defs>
<font id="BritishGasIcons" horiz-adv-x="1024">
<font-face units-per-em="1024" ascent="960" descent="-64" />
<missing-glyph horiz-adv-x="1024" />
<glyph unicode="&#x20;" horiz-adv-x="512" d="" />
<glyph unicode="&#xe900;" glyph-name="information" d="M512-64v0c-282.77 0-512 229.23-512 512s229.23 512 512 512c282.77 0 512-229.23 512-512s-229.23-512-512-512zM511.429 44.571c222.492 0 402.857 180.365 402.857 402.857s-180.365 402.857-402.857 402.857c-222.492 0-402.857-180.365-402.857-402.857s180.365-402.857 402.857-402.857v0zM845.62 377.782c-71.273-335.312-396.649-291.838-396.649-291.838 190.773-40.55 379.675 87.705 421.923 286.466s-78.156 392.761-268.929 433.311c0 0 314.928-92.628 243.656-427.939v0zM589.714 665.714c0-43.236-35.050-78.286-78.286-78.286s-78.286 35.050-78.286 78.286c0 43.236 35.050 78.286 78.286 78.286s78.286-35.050 78.286-78.286zM450.286 542.857h122.286v-379.429h-122.286v379.429z" />
<glyph unicode="&#xe901;" glyph-name="exit" horiz-adv-x="921" d="M819.299 71.436c-2.965-75.456-56.861-134.932-123.353-134.932h-571.716c-68.406 0-123.657 62.952-123.657 141.49v745.86c0 62.851 35.167 116.147 84.806 134.852l647.927 0.705c48.413-17.526 84.355-69.080 86.059-130.535-1.958 0.723-3.942 1.392-5.951 2.006l-575.261-0.528c-44.071-14.013-75.294-53.939-75.294-101.023v-558.757c0-58.836 49.054-105.996 109.788-105.996h507.597c13.771 0 26.933 2.425 39.055 6.86zM648.802 780.129c-6.488 7.782-13.798 9.557-19.005 9.557-3.106 0-5.482-0.676-6.761-1.016-3.382-1.099-14.619-5.835-14.619-21.482v-62.331h-284.989v-514.725h284.989v-62.331c0-15.647 11.238-20.383 14.619-21.482 1.279-0.34 3.655-1.016 6.761-1.016 5.209 0 12.519 1.86 19.005 9.557l264.703 313.182c4.568 5.327 7.037 12.18 7.037 19.367 0.091 7.274-2.467 14.124-7.037 19.537l-264.703 313.181z" />
<glyph unicode="&#xe902;" glyph-name="feedback" horiz-adv-x="1167" d="M505.973 825.021c-53.408 0-104.97-8.383-153.253-24.916-45.247-15.495-85.503-37.368-119.644-65.007-63.293-51.239-98.15-116.843-98.15-184.725 0-37.952 10.611-74.816 31.539-109.563 21.805-36.212 54.706-69.381 95.144-95.917 32.087-21.057 53.692-54.785 59.412-92.745 0.951-6.317 1.718-12.661 2.298-19.015 2.869 2.657 5.717 5.393 8.553 8.219 25.444 25.351 59.755 39.346 95.209 39.346 5.637 0 11.298-0.354 16.965-1.074 20.408-2.586 41.241-3.898 61.927-3.898 53.408 0 104.968 8.381 153.251 24.916 45.249 15.493 85.505 37.366 119.646 65.005 63.295 51.239 98.15 116.843 98.15 184.725s-34.855 133.484-98.15 184.725c-34.141 27.641-74.397 49.512-119.646 65.007-48.282 16.533-99.843 24.916-153.251 24.916v0zM1011.945 550.373c0-226.231-226.532-409.627-505.973-409.627-26.836 0-53.176 1.708-78.883 4.967-108.685-108.293-234.194-127.711-359.626-130.565 0 0 122.277 119.794 122.277 188.62 0 9.602-0.751 19.032-2.14 28.255-114.432 75.097-187.6 189.801-187.6 318.35 0 226.231 226.532 409.627 505.973 409.627s505.973-183.396 505.973-409.627zM1098.993-62.834c-108.706 2.444-208.488 19.089-302.679 111.912-22.284-2.794-45.11-4.26-68.367-4.26-100.636 0-209.209 45.737-283.213 91.379 128.695-26.53 340.72 30.347 425.038 114.647 147.834 111.407 163.588 269.624 149.339 350.477-1.91 10.839-16.243 55.661-17.095 66.556 76.497-63.202 164.441-176.984 164.441-271.948 0-110.185-63.413-208.502-162.586-272.873-1.204-7.905-1.855-15.987-1.855-24.218 0-58.992 96.978-161.673 96.978-161.673zM606.916 553.323c35.908-9.068 61.249-25.181 61.249-70.821 0-61.95-46.323-162.747-46.323-162.747h-231.648c0 0-46.323 100.31-46.323 162.747 0 43.743 25.376 60.363 60.568 69.792-5.727-5.211-9.035-12.182-9.035-21.747 0-31.218 110.493-178.308 110.493-178.308s110.493 147.333 110.493 178.308c0 10.214-3.459 17.47-9.475 22.776v0zM535.118 571.351c-4.622 4.912-15.926 7.308-27.052 7.239 9.601-0.062 19.141-2.101 19.141-6.167 2.651-0.378 5.29-0.733 7.911-1.072v0zM495.511 577.381c-5.432-1.087-10.011-2.906-12.616-5.447 1.886 0.26 3.775 0.53 5.663 0.813 0 2.118 2.827 3.666 6.953 4.634v0zM655.391 655.885c0-81.060-65.718-146.772-146.785-146.772s-146.785 65.712-146.785 146.772c0 81.060 65.718 146.772 146.785 146.772s146.785-65.712 146.785-146.772z" />
<glyph unicode="&#xe903;" glyph-name="navigate" d="M512-64c-282.77 0-512 229.23-512 512s229.23 512 512 512c282.77 0 512-229.23 512-512s-229.23-512-512-512zM511.429 44.571c222.492 0 402.857 180.365 402.857 402.857s-180.365 402.857-402.857 402.857c-222.492 0-402.857-180.365-402.857-402.857s180.365-402.857 402.857-402.857zM481.373 149.718c-7.716 1.712-13.206 269.306-13.206 269.306s-267.595 5.49-269.306 13.206c-1.712 7.715 529.063 256.575 534.075 251.562s-241.471-534.477-247.908-534.477c-1.209 0-2.435 0.132-3.656 0.402zM845.62 377.782c-71.273-335.312-396.649-291.838-396.649-291.838 190.773-40.55 379.675 87.705 421.923 286.466s-78.156 392.761-268.929 433.311c0 0 314.928-92.628 243.656-427.939z" />
<glyph unicode="&#xe904;" glyph-name="pin" d="M512-64v0c-282.77 0-512 229.23-512 512s229.23 512 512 512c282.77 0 512-229.23 512-512s-229.23-512-512-512zM841.221 375.489c-71.273-335.312-396.649-291.838-396.649-291.838 190.773-40.55 379.675 87.705 421.923 286.466s-78.156 392.761-268.929 433.311c0 0 314.928-92.628 243.656-427.939v0zM329.216 584c1.877-64.36 34.439-89.873 71.943-173.848 51.085-114.385 110.914-280.909 110.914-280.909s65.112 163.809 117.655 280.909c35.422 78.942 65.202 100.216 65.202 173.848 0 100.99-81.869 182.857-182.857 182.857-100.99 0-185.783-82.57-182.857-182.857v0zM512 472c-61.856 0-112 50.144-112 112s50.144 112 112 112c61.856 0 112-50.144 112-112s-50.144-112-112-112v0zM441.143 584c0 39.134 31.723 70.857 70.857 70.857s70.857-31.723 70.857-70.857c0-39.134-31.725-70.857-70.857-70.857s-70.857 31.723-70.857 70.857v0zM512.571 44.571c222.492 0 402.857 180.365 402.857 402.857s-180.365 402.857-402.857 402.857c-222.492 0-402.857-180.365-402.857-402.857s180.365-402.857 402.857-402.857v0z" />
<glyph unicode="&#xe905;" glyph-name="house" horiz-adv-x="888" d="M705.645 813.605l0.001-0.002c-24.121 0-43.116 18.994-43.305 43.116v59.451c0 21.939 15.765 39.792 36.847 43.021 2.185 0.284 4.085 0.095 6.268 0.095h4.369c4.466 0 8.928-0.286 13.011-1.615 0.475-0.189 1.043 0 1.424-0.189 0.189-0.094 0.476-0.094 0.664-0.189 0.381-0.095 0.856-0.287 1.14-0.476 0.285-0.095 0.568-0.189 0.949-0.284 0.095-0.094 0.382-0.189 0.57-0.189 1.141-0.57 2.184-1.14 3.324-1.615 0.097 0 0.381-0.189 0.381-0.189 13.58-7.503 23.076-21.844 23.076-38.369v-59.546c0-10.825-4.369-20.417-10.921-28.11-8.073-9.403-20.133-14.911-33.429-14.911h-4.369zM176.005 813.605l-0.003 0.003c-13.295 0-25.166 5.604-33.334 15.005-6.553 7.598-10.826 17.283-10.826 28.11v59.451c0 11.964 5.128 22.696 12.82 30.674 0.095 0 0.381 0 0.476 0.095 0 0 0.095-0.095 0.095 0 7.978 7.881 18.616 12.345 30.771 12.345h4.274c12.061 0 22.89-4.559 30.771-12.345 0.094-0.095 0.189 0.189 0.189 0.189 0-0.095 0-0.189 0.095-0.284 7.789-7.881 12.537-18.708 12.537-30.674v-59.451c0-10.828-3.893-20.514-10.446-28.206-7.976-9.403-19.754-14.911-33.144-14.911h-4.274zM415.989 820.633l0.001 0.001c-11.776 7.881-19.564 21.082-19.469 36.088v59.451c0 12.821 5.602 24.121 14.244 32.1 0.189 0.094 0.664 0.094 0.759 0.189v-0.284c7.786 7.122 18.137 11.015 29.439 11.015h4.369c9.781 0 18.708-2.753 26.022-8.262v0.284c0 0-0.095-0.094 0-0.189 10.637-7.979 17.094-20.61 17.094-34.854v-59.451c0-16.429-8.737-30.674-22.222-38.082-0.095-0.094 0-0.094 0-0.189-0.094-0.094-0.094 0.095-0.189 0.095-6.268-3.421-13.296-4.939-20.704-4.939h-4.369c-8.926 0-17.378 2.469-24.216 7.027-0.095 0-0.287-0.19-0.476-0.095l-0.284 0.095zM793.966 856.723l-0.002 45.775c53.847-17 93.448-67.903 93.259-128.018v-704.383c0-74.171-59.64-133.622-133.715-133.622h-619.1c-74.076 0-133.905 59.451-133.905 133.622v704.383c0 59.356 38.082 109.688 91.834 127.353v-45.11c0-46.155 37.512-84.332 83.667-84.332h4.18c46.155 0 83.192 38.272 83.192 84.332v51.948h93.354v-51.948c0-46.155 37.798-84.332 84.048-84.332h4.274c46.058 0 84.427 38.272 84.427 84.332v51.948h91.74v-51.948c0-46.155 38.46-84.332 84.427-84.332h4.369c46.155 0 83.953 38.272 83.953 84.332zM757.703 449.074l-295.766 231.389c-5.113 3.993-11.662 6.151-18.451 6.151s-13.259-2.157-18.29-6.151l-138.499-108.386v16.613c0 5.591-5.272 10.144-11.9 10.144h-61.901c-6.549 0-11.98-4.554-11.98-10.144v-83.626l-71.485-55.99c-11.662-9.025-9.105-19.569-8.067-22.523 1.038-3.036 5.511-12.78 20.208-12.78h58.865v-338.577c0-14.777 11.98-26.757 26.837-26.757h432.509c14.698 0 26.757 11.98 26.757 26.757v338.497h58.865c14.777 0 19.249 9.823 20.287 12.78 1.118 3.036 3.594 13.498-7.987 22.603v0.001z" />
<glyph unicode="&#xe906;" glyph-name="products" horiz-adv-x="934" d="M758.613 959.409l175.065-219.175v-767.114c0-20.176-13.064-36.529-29.177-36.529h-875.323c-16.115 0-29.177 16.354-29.177 36.529v767.114l175.065 219.175h583.549zM389.499 227.944l21.687 30.361-23.764 23.765-30.362-21.686c-5.63 3.148-11.66 5.658-17.994 7.453l-6.135 36.803h-33.608l-6.133-36.804c-6.334-1.795-12.364-4.305-17.994-7.453l-30.362 21.687-23.765-23.765 21.687-30.361c-3.148-5.629-5.658-11.661-7.453-17.994l-36.804-6.135v-33.608l36.804-6.135c1.795-6.333 4.305-12.364 7.453-17.994l-21.687-30.361 23.764-23.765 30.362 21.686c5.63-3.148 11.66-5.658 17.994-7.453l6.135-36.803h33.608l6.133 36.804c6.334 1.795 12.364 4.305 17.994 7.453l30.362-21.686 23.764 23.765-21.687 30.361c3.148 5.629 5.658 11.661 7.453 17.994l36.805 6.133v33.608l-36.804 6.135c-1.795 6.333-4.305 12.364-7.453 17.994v0zM316.127 153.403v0c18.562 0 33.608 15.047 33.608 33.608s-15.046 33.608-33.608 33.608c-18.562 0-33.608-15.047-33.608-33.608s15.046-33.608 33.608-33.608zM736.23 405.465v33.608l-35.384 6.433c-0.652 4.225-1.487 8.39-2.481 12.493l30.225 19.482-12.861 31.050-35.154-7.598c-2.213 3.629-4.582 7.152-7.085 10.571l20.483 29.587-23.765 23.764-29.587-20.483c-3.42 2.503-6.942 4.871-10.571 7.086l7.598 35.154-31.050 12.862-19.482-30.225c-4.102 0.994-8.268 1.828-12.493 2.481l-6.434 35.384h-33.608l-6.434-35.384c-4.225-0.652-8.389-1.487-12.493-2.481l-19.481 30.225-31.050-12.861 7.598-35.154c-3.629-2.214-7.152-4.583-10.571-7.086l-29.587 20.483-23.764-23.764 20.483-29.587c-2.503-3.419-4.872-6.942-7.086-10.571l-35.154 7.598-12.861-31.050 30.225-19.482c-0.994-4.102-1.828-8.267-2.481-12.493l-35.385-6.434v-33.608l35.384-6.433c0.652-4.225 1.487-8.39 2.481-12.493l-30.225-19.482 12.861-31.050 35.154 7.598c2.214-3.629 4.583-7.151 7.086-10.571l-20.483-29.587 23.764-23.765 29.587 20.483c3.419-2.503 6.942-4.871 10.571-7.085l-7.598-35.154 31.050-12.861 19.483 30.225c4.101-0.994 8.267-1.828 12.492-2.481l6.434-35.385h33.608l6.434 35.384c4.224 0.652 8.389 1.487 12.493 2.481l19.482-30.225 31.050 12.861-7.598 35.154c3.629 2.214 7.152 4.582 10.571 7.085l29.587-20.483 23.765 23.765-20.483 29.587c2.503 3.42 4.871 6.942 7.085 10.571l35.154-7.598 12.861 31.051-30.225 19.482c0.994 4.102 1.828 8.267 2.481 12.493l35.384 6.433zM551.385 349.171v0c40.372 0 73.098 32.727 73.098 73.098s-32.726 73.098-73.098 73.098c-40.372 0-73.098-32.727-73.098-73.098s32.727-73.098 73.098-73.098zM92.67 765.112h744.82l-103.052 145.986h-535.202l-106.566-145.986z" />
<glyph unicode="&#xe907;" glyph-name="calendar" horiz-adv-x="888" d="M705.902 813.963h4.373c13.309 0 25.381 5.514 33.462 14.926 6.559 7.7 10.932 17.301 10.932 28.137v59.604c0 16.541-9.506 30.896-23.099 38.406 0 0-0.284 0.189-0.381 0.189-1.141 0.476-2.185 1.046-3.327 1.617-0.189 0-0.476 0.095-0.571 0.189-0.381 0.095-0.665 0.189-0.95 0.284-0.284 0.189-0.76 0.381-1.141 0.476-0.189 0.095-0.476 0.095-0.665 0.189-0.381 0.189-0.95 0-1.425 0.189-4.087 1.331-8.554 1.617-13.024 1.617h-4.373c-2.185 0-4.087 0.189-6.274-0.095-21.103-3.232-36.883-21.103-36.883-43.063v-59.509c0.189-24.145 19.202-43.158 43.347-43.158l-0.001 0.002zM175.742 813.963h4.278c13.403 0 25.192 5.514 33.176 14.926 6.559 7.7 10.456 17.395 10.456 28.234v59.509c0 11.978-4.752 22.815-12.549 30.704-0.095 0.095-0.095 0.189-0.095 0.284 0 0-0.095-0.284-0.189-0.189-7.889 7.794-18.728 12.357-30.801 12.357h-4.278c-12.167 0-22.815-4.468-30.801-12.357 0-0.095-0.095 0-0.095 0-0.095-0.095-0.381-0.095-0.476-0.095-7.7-7.986-12.833-18.728-12.833-30.704v-59.509c0-10.837 4.278-20.532 10.837-28.137 8.176-9.411 20.059-15.020 33.367-15.020l0.003-0.003zM415.962 820.998l0.284-0.095c0.189-0.095 0.381 0.095 0.476 0.095 6.845-4.563 15.305-7.034 24.24-7.034h4.373c7.415 0 14.45 1.52 20.724 4.944 0.095 0 0.095-0.189 0.189-0.095 0 0.095-0.095 0.095 0 0.189 13.498 7.415 22.244 21.674 22.244 38.119v59.509c0 14.258-6.464 26.901-17.111 34.888-0.095 0.095 0 0.189 0 0.189v-0.284c-7.321 5.514-16.256 8.27-26.047 8.27h-4.373c-11.313 0-21.674-3.897-29.468-11.026v0.284c-0.095-0.095-0.571-0.095-0.76-0.189-8.651-7.986-14.258-19.297-14.258-32.131v-59.509c-0.095-15.020 7.7-28.234 19.488-36.123l-0.001-0.001zM794.309 902.942v-45.819c0-46.105-37.835-84.414-84.035-84.414h-4.373c-46.011 0-84.509 38.214-84.509 84.414v51.999h-91.83v-51.999c0-46.105-38.406-84.414-84.509-84.414h-4.278c-46.295 0-84.13 38.214-84.13 84.414v51.999h-93.445v-51.999c0-46.105-37.073-84.414-83.273-84.414h-4.184c-46.2 0-83.749 38.214-83.749 84.414v45.154c-53.805-17.682-91.924-68.063-91.924-127.477v-705.073c0-74.243 59.888-133.752 134.036-133.752h619.706c74.148 0 133.846 59.509 133.846 133.752v705.073c0.189 60.174-39.45 111.126-93.35 128.143l0.002-0.001zM114.566 699.501h660.001v-646.001h-660.001v646.001zM159.565 641.5v-522.001h570.001v522.001h-570.001zM214.566 505.5h469.001v-335.001h-469.001v335.001z" />
<glyph unicode="&#xe908;" glyph-name="contacts" horiz-adv-x="888" d="M705.645 813.605l0.001-0.002c-24.121 0-43.116 18.994-43.305 43.116v59.451c0 21.939 15.765 39.792 36.847 43.021 2.185 0.284 4.085 0.095 6.268 0.095h4.369c4.466 0 8.928-0.286 13.011-1.615 0.475-0.189 1.043 0 1.424-0.189 0.189-0.094 0.476-0.094 0.664-0.189 0.381-0.095 0.856-0.287 1.14-0.476 0.285-0.095 0.568-0.189 0.949-0.284 0.095-0.094 0.382-0.189 0.57-0.189 1.141-0.57 2.184-1.14 3.324-1.615 0.097 0 0.381-0.189 0.381-0.189 13.58-7.503 23.076-21.844 23.076-38.369v-59.546c0-10.825-4.369-20.417-10.921-28.11-8.073-9.403-20.133-14.911-33.429-14.911h-4.369zM176.005 813.605l-0.003 0.003c-13.295 0-25.166 5.604-33.334 15.005-6.553 7.598-10.826 17.283-10.826 28.11v59.451c0 11.964 5.128 22.696 12.82 30.674 0.095 0 0.381 0 0.476 0.095 0 0 0.095-0.095 0.095 0 7.978 7.881 18.616 12.345 30.771 12.345h4.274c12.061 0 22.89-4.559 30.771-12.345 0.094-0.095 0.189 0.189 0.189 0.189 0-0.095 0-0.189 0.095-0.284 7.789-7.881 12.537-18.708 12.537-30.674v-59.451c0-10.828-3.893-20.514-10.446-28.206-7.976-9.403-19.754-14.911-33.144-14.911h-4.274zM415.989 820.633l0.001 0.001c-11.776 7.881-19.564 21.082-19.469 36.088v59.451c0 12.821 5.602 24.121 14.244 32.1 0.189 0.094 0.664 0.094 0.759 0.189v-0.284c7.786 7.122 18.137 11.015 29.439 11.015h4.369c9.781 0 18.708-2.753 26.022-8.262v0.284c0 0-0.095-0.094 0-0.189 10.637-7.979 17.094-20.61 17.094-34.854v-59.451c0-16.429-8.737-30.674-22.222-38.082-0.095-0.094 0-0.094 0-0.189-0.094-0.094-0.094 0.095-0.189 0.095-6.268-3.421-13.296-4.939-20.704-4.939h-4.369c-8.926 0-17.378 2.469-24.216 7.027-0.095 0-0.287-0.19-0.476-0.095l-0.284 0.095zM793.966 856.723l-0.002 45.775c53.847-17 93.448-67.903 93.259-128.018v-704.383c0-74.171-59.64-133.622-133.715-133.622h-619.1c-74.076 0-133.905 59.451-133.905 133.622v704.383c0 59.356 38.082 109.688 91.834 127.353v-45.11c0-46.155 37.512-84.332 83.667-84.332h4.18c46.155 0 83.192 38.272 83.192 84.332v51.948h93.354v-51.948c0-46.155 37.798-84.332 84.048-84.332h4.274c46.058 0 84.427 38.272 84.427 84.332v51.948h91.74v-51.948c0-46.155 38.46-84.332 84.427-84.332h4.369c46.155 0 83.953 38.272 83.953 84.332zM554.651 405.888v0c6.71-5.953 10.569-14.094 10.569-25.552 0-34.75-123.246-200.037-123.246-200.037s-123.246 165.015-123.246 200.037c0 10.73 3.689 18.551 10.077 24.397-39.254-10.578-67.559-29.223-67.559-78.297 0-70.045 51.669-182.58 51.669-182.58h258.384c0 0 51.669 113.080 51.669 182.58 0 51.202-28.266 69.279-68.318 79.451zM442.956 371.284c90.424 0 163.726 73.72 163.726 164.658s-73.303 164.658-163.726 164.658c-90.424 0-163.726-73.72-163.726-164.658s73.303-164.658 163.726-164.658zM205.463 395.897v0c3.819-3.518 6.015-8.329 6.015-15.1 0-20.535-70.148-118.21-70.148-118.21s-70.148 97.514-70.148 118.21c0 6.341 2.1 10.963 5.736 14.417-22.343-6.251-38.453-17.269-38.453-46.269 0-41.392 29.409-107.893 29.409-107.893h147.066c0 0 29.409 66.824 29.409 107.893 0 30.257-16.088 40.939-38.885 46.951zM142.643 376.121c51.467 0 93.189 43.564 93.189 97.303s-41.722 97.303-93.189 97.303c-51.467 0-93.189-43.564-93.189-97.303s41.722-97.303 93.189-97.303zM806.876 386.906v0c3.819-3.518 6.015-8.329 6.015-15.1 0-20.535-70.148-118.21-70.148-118.21s-70.148 97.514-70.148 118.21c0 6.341 2.1 10.963 5.736 14.417-22.343-6.251-38.453-17.269-38.453-46.269 0-41.392 29.409-107.893 29.409-107.893h147.066c0 0 29.409 66.824 29.409 107.893 0 30.257-16.088 40.939-38.885 46.951zM744.056 367.13c51.467 0 93.189 43.564 93.189 97.303s-41.722 97.303-93.189 97.303c-51.467 0-93.189-43.564-93.189-97.303s41.722-97.303 93.189-97.303z" />
<glyph unicode="&#xe909;" glyph-name="user" horiz-adv-x="687" d="M556.75 431.266c76.069-19.212 129.753-53.349 129.753-150.044 0-131.25-98.132-344.802-98.132-344.802h-490.736c0 0-98.132 212.521-98.132 344.802 0 92.676 53.758 127.887 128.312 147.864-12.134-11.040-19.14-25.81-19.14-46.075 0-66.14 234.074-377.771 234.074-377.771s234.074 312.146 234.074 377.771c0 21.639-7.329 37.013-20.072 48.255zM404.649 469.46c-9.792 10.406-33.739 15.483-57.309 15.336 20.339-0.131 40.55-4.451 40.55-13.065 5.616-0.802 11.207-1.553 16.759-2.271zM320.743 482.237c-11.509-2.303-21.208-6.156-26.726-11.54 3.996 0.551 7.997 1.123 11.996 1.721 0 4.487 5.99 7.766 14.729 9.818zM659.443 648.558c0-171.736-139.22-310.957-310.957-310.957s-310.957 139.22-310.957 310.957c0 171.736 139.22 310.957 310.957 310.957s310.957-139.22 310.957-310.957z" />
<glyph unicode="&#xe90a;" glyph-name="braile" d="M996.635 858.906c0-27.464-22.265-49.729-49.729-49.729s-49.729 22.265-49.729 49.729c0 27.464 22.265 49.729 49.729 49.729s49.729-22.265 49.729-49.729zM835.581 858.906c0-27.464-22.265-49.729-49.729-49.729s-49.729 22.265-49.729 49.729c0 27.464 22.265 49.729 49.729 49.729s49.729-22.265 49.729-49.729zM835.679 697.95c0-27.518-22.309-49.826-49.826-49.826s-49.826 22.309-49.826 49.826c0 27.518 22.309 49.826 49.826 49.826s49.826-22.309 49.826-49.826zM550.941 858.906c0-27.464-22.265-49.729-49.729-49.729s-49.729 22.265-49.729 49.729c0 27.464 22.265 49.729 49.729 49.729s49.729-22.265 49.729-49.729zM389.884 697.95c0-27.518-22.309-49.826-49.826-49.826s-49.826 22.309-49.826 49.826c0 27.518 22.309 49.826 49.826 49.826s49.826-22.309 49.826-49.826zM550.941 697.95c0-27.464-22.265-49.729-49.729-49.729s-49.729 22.265-49.729 49.729c0 27.464 22.265 49.729 49.729 49.729s49.729-22.265 49.729-49.729zM736.024 149.659l-143.008-143.594c47.474 16.087 100.928 8.533 148.5 8.14 52.084-0.196 86.019 37.959 86.019 78.565 0 21.481-50.711 51.102-91.513 56.889zM948.573 586.722c-18.833 0.784-35.801-9.515-44.826-24.815 17.066 0.393 35.506-6.081 50.711-19.324 13.83-12.063 22.363-27.757 25.011-43.059 9.906 8.631 16.478 21.185 17.066 35.31 0.98 27.268-20.499 50.711-47.963 51.886zM548.095 233.325c0 0 63.363 70.719 75.524 102.203 10.593 27.659 12.85 52.672-14.516 80.92-27.268 28.248-64.245 14.516-86.314 1.864-13.927-7.258-69.739-64.931-69.739-64.931 0.686 0.98 7.356 8.631 15.889 19.91v0l0.393 0.393c4.512 6.081 24.718 35.801 24.718 35.801v0.196c20.697 37.468 19.126 72.876-10.202 95.632-29.328 22.658-64.44 20.303-91.317-0.589l-46.59-46.59c0 0 16.478 18.93 35.506 48.258 8.24 27.659 17.851 55.221-11.181 83.862-29.916 29.425-77.29 29.719-106.813 0l-155.365-156.346c-118.092-118.977-118.092-311.515 0-430.492 118.092-118.781 309.456-118.781 427.451 0l396.948 401.558c10.397 10.69 17.164 23.54 20.108 37.174 3.237 14.712 2.059 30.505-3.432 44.628-3.728 9.415-9.22 18.244-16.673 25.697-10.202 10.102-22.461 16.871-35.31 20.108-12.163 3.041-24.913 2.844-36.979-0.196-12.75-3.237-24.62-10.004-34.428-19.91l-277.676-279.149z" />
<glyph unicode="&#xe90b;" glyph-name="contact" d="M903.495 279.24c70.289 68.45 113.097 158.663 113.097 257.354 0 213.73-200.244 386.899-447.176 386.899-247.034 0-447.176-173.169-447.176-386.899s200.142-387.103 447.176-387.103c71.719 0 139.558 14.815 199.63 40.662 71.617-70.391 239.578-55.681 239.578-55.681-69.269 35.963-95.626 107.478-105.127 144.767zM392.16 481.936c-29.934 0-54.454 24.52-54.454 54.658s24.52 54.658 54.454 54.658c30.24 0 54.864-24.52 54.864-54.658s-24.621-54.658-54.864-54.658zM569.314 481.936c-30.036 0-54.658 24.52-54.658 54.658s24.621 54.658 54.658 54.658c30.036 0 54.658-24.52 54.658-54.658s-24.621-54.658-54.658-54.658zM746.468 481.936c-30.138 0-54.76 24.52-54.76 54.658s24.621 54.658 54.76 54.658c30.036 0 54.658-24.52 54.658-54.658s-24.621-54.658-54.658-54.658zM104.566 377.83c-64.057-47.915-104.822-118.715-104.822-197.791 0-66.406 28.912-127.092 76.215-173.169-6.435-24.929-24.008-73.251-70.699-97.363 0 0 112.995-10.013 161.319 37.494 40.456-17.573 85.921-27.278 134.245-27.278 130.975 0 242.336 72.231 283.813 173.169-14.507-1.226-29.016-1.84-43.828-1.84-204.127 0-377.090 120.351-436.244 286.777z" />
<glyph unicode="&#xe90c;" glyph-name="email" d="M1018.461 692.602c-9.561-35.116-37.887-54.238-37.887-54.238v0c-4.825-4.021-451.686-328.466-451.686-328.466-11.973-8.221-25.734-7.326-37.262 0.536 0 0-447.218 324.625-451.686 328.288-4.914 3.485-33.955 24.572-37.976 51.826-3.127-13.224-3.574-16.351-3.574-22.16 0-5.898 0-484.657 0-484.657 0-68.802 51.378-132.334 114.285-132.334h795.164c62.995 0 114.463 73.271 114.463 136.086v480.905c0.089 0-0.358 9.919-3.841 24.216zM991.474 737.637v0c-8.757 13.224-38.78 16.798-61.386 17.604-14.297 0.893-25.286 0.536-25.286 0.536h-785.781c-3.663 0-12.51 0-23.321-0.536-22.338-1.073-52.004-4.378-60.761-17.604v0c-2.771-3.485-3.307-12.868-1.698-18.138 13.046-44.499 459.816-261.808 459.816-261.808 2.054-1.073 13.939-5.094 17.871-4.914v0c6.165 0 12.421 1.609 18.049 5.094 0 0 454.813 234.734 464.285 261.629 2.771 7.863 2.145 13.402-1.787 18.138z" />
<glyph unicode="&#xe90d;" glyph-name="help" d="M890.796 155.697c79.784 70.951 128.33 155.562 128.33 267.498 0 242.452-227.060 401.020-507.127 401.020-279.977 0-507.127-158.568-507.127-401.020 0-242.27 227.151-402.113 507.127-402.113 81.424 0 158.203 15.119 226.332 42.169 59.019-76.050 189.9-98 290.541-51.369-98.73 23.59-130.789 81.606-138.075 143.814zM485.405 167.173c-39.072 0-55.376 15.848-55.376 54.101 0 37.525 16.394 53.191 55.376 53.191 39.802 0 55.376-15.666 55.376-53.191 0.091-38.253-15.575-54.101-55.376-54.101zM523.748 331.387v-5.646h-76.688v13.298c0 120.771 112.847 121.499 112.847 188.898 0 43.899-22.769 61.934-79.421 61.934-33.426 0-70.404-7.105-109.386-19.947v71.679c38.344 12.842 78.784 19.035 119.95 19.035 114.394 0 161.846-36.797 161.846-124.87 0.091-121.499-129.151-122.046-129.151-204.38z" />
<glyph unicode="&#xe90e;" glyph-name="online" d="M0.001 158.43c0-66.381 35.641-120.592 102.021-120.592h820.038c66.459 0 101.941 54.211 101.941 120.592h-1024zM569.372 90.944c0-4.267-11.38-7.745-25.288-7.745h-66.855c-13.988 0-25.288 3.478-25.288 7.745v20.468c0 4.188 11.38 7.666 25.288 7.666h66.855c13.908 0 25.288-3.478 25.288-7.666v-20.468zM162.237 202.842h62.035c5.216 0 9.562 1.185 9.562 6.479v0.87c0 5.137-4.346 6.558-9.562 6.558h-5.058c0 0-0.949 0-2.37 0h-0.236c-11.221 0-54.369 3.635-54.369 61.322 0 0 0 353.792 0 386.034 0 32.163 21.178 61.007 64.405 61.165l226.8-0.158v16.279c0 6.005 3.319 21.574 20.468 21.574h71.358c17.543 0 20.546-15.569 20.546-21.574v-16.2h233.913c43.148-0.236 62.588-31.531 62.588-58.399v-393.543c-2.529-52.946-43.937-56.502-54.922-56.502h-0.236c-1.502 0-2.37 0-2.37 0h-5.295c-5.295 0-9.64-1.344-9.64-6.558v-0.87c0-5.295 4.346-6.479 9.64-6.479h125.412v469.405c0 64.8-53.026 107.869-117.905 107.869h-589.839c-64.8 0-117.905-43.069-117.905-107.869v-469.326h62.982z" />
<glyph unicode="&#xe90f;" glyph-name="phone" d="M622.89 301.269c0-6.063-0.55-12.126-1.653-17.913l-99.684 36.381c0 0 1.287-54.39 59.256-103.171-28.203-23.797-67.803-38.771-111.624-38.771-84.706 0-153.884 55.493-153.884 123.474 0 67.893 69.18 123.474 153.884 123.474 84.524-0.090 153.704-55.583 153.704-123.474zM874.711 264.613c0 0.274-0.090 0.643-0.090 0.917l-0.090 0.274c0 0 0-0.46 0.184-1.193zM742.414 250.188c0 0-0.090-0.37-0.184-1.653-16.353-95.637-119.158-170.055-242.544-170.055-134.867 0-245.024 88.567-245.024 196.697 0 108.227 110.155 196.791 245.024 196.791 134.593 0 244.84-88.567 244.84-196.791 0.090-8.453-0.733-16.81-2.111-24.99zM500.793 697.97h244.93c11.85 0 16.167-5.42 16.167-13.505s-4.41-13.687-24.16-13.687c-6.707 0-21.407-3.857-20.487-27.654 1.93-34.73 4.136-87.829 43.917-125.131 9.28-8.82 21.776-17.824 37.943-17.824h107.307c73.221 0 73.221 37.574 73.221 151.957 0 114.563-177.131 170.423-177.131 170.423v-0.090c-68.537 24.62-186.683 40.24-301.708 40.24s-233.264-15.709-301.798-40.24v0c0 0-177.131-55.767-177.131-170.423 0-114.38 0-151.957 73.221-151.957h107.307c16.263 0 28.757 9.097 38.033 17.824 39.69 37.393 41.894 90.493 43.823 125.221 1.012 23.797-13.781 27.654-20.487 27.654-19.752 0-24.16 5.697-24.16 13.687 0 8.083 4.317 13.505 16.167 13.505h245.024zM790.281-62.729c71.844 0 130.824 58.89 130.824 130.919 0 9.83-1.837 25.539-5.33 44.834-39.047-99.404-119.064-71.75-119.064-71.75 61.28 7.44 103.63 93.527 88.75 162.521-2.754 18.19-42.63 215.898-50.253 261.467-165.187-17.913-159.767 168.124-164.267 204.874h-336.711c-3.307 0-6.707-0.090-10.014-0.274-4.227-34.91 0.917-204.691-129.447-205.334-11.85-42.903-40.697-128.62-58.521-193.114-3.951-15.527-9.46-44.924-8.177-81.12 3.399-63.483 21.866-140.47 91.047-149.018 0 0-79.744-27.654-118.79 71.75-3.399-19.29-5.33-35.004-5.33-44.834 0-72.030 58.98-130.919 130.824-130.919h564.462z" />
<glyph unicode="&#xe910;" glyph-name="plumbing" d="M577.331 341.453c0 0-39.747-7.554-44.642-34.254-0.43-2.061-1.202-4.206-1.631-6.524-0.43-1.46-0.686-3.004-1.031-4.55-1.202-6.782-1.888-13.821-1.888-21.461 0-0.686 0-1.373-0.086-1.974l0.515-0.171c0 0-2.833-21.549 25.926-76.578 1.803-3.52 3.348-6.611 4.636-9.271 17.6-32.022 33.48-64.473 44.986-98.984 18.115-53.999-10.903-109.801-64.3-126.971-53.913-17.341-110.832 11.762-128.603 65.417-7.298 22.235-5.752 43.87 2.061 65.331 13.565 36.228 30.906 70.482 50.137 104.221 0.086 0.171 0.086 0.171 0.086 0.344 23.266 43.611 26.011 66.19 26.356 73.659 0 1.717-0.171 2.662-0.171 2.833v0c0 0.858 0 1.546 0 2.147 0 13.565-2.147 25.926-5.666 36.401-10.988 28.417-44.727 30.305-44.727 30.305v0c-1.116 0.171-51.51 5.237-67.734 7.383v-380.311c0-32.623 44.385-59.064 99.070-59.064h74.688c54.685 0 98.984 26.527 98.984 59.064v380.482c-16.398-2.232-49.192-5.581-66.962-7.469zM317.895 465.762v-80.269c0.344-0.171 0.772-0.257 1.287-0.344 0.601-0.171 1.202-0.257 1.803-0.43 14.593-3.52 37.43-7.383 66.017-10.559 27.386-3.177 60.18-5.581 95.721-6.438 8.155-0.086 16.483-0.257 24.81-0.257 8.070 0 16.139 0.171 23.867 0.257 34.941 0.858 67.134 3.348 94.434 6.438 27.301 3.004 49.707 6.611 64.816 9.701 1.202 0.344 2.232 0.601 3.434 0.858 0.43 0.086 1.031 0.171 1.46 0.344v80.613h-377.649zM804.659 906.427c-13.306 7.298-28.329 11.074-43.525 11.074-30.219 0-59.064-15.71-75.633-40.951-16.225-24.724-51.854-31.592-77.694-20.26-6.524 2.833-12.534 6.782-17.6 11.589-5.581 5.237-9.442 11.762-14.422 17.427-9.442 11.332-21.634 20.089-35.197 25.669-28.158 11.418-61.211 7.554-85.935-10.045-5.752-4.035-11.074-8.842-15.71-14.080-4.98-5.495-8.67-12.19-13.993-17.427-10.732-10.732-25.325-17.084-40.436-18.372-14.337-1.031-28.759 2.662-40.863 10.473-12.534 8.328-18.801 21.634-29.704 31.678-43.010 40.177-114.523 27.728-141.823-24.294-26.185-49.707 0.601-112.891 54.343-128.859 28.158-8.414 59.235-2.403 82.157 15.883 11.589 9.186 18.2 22.492 29.274 31.851 11.589 9.787 26.612 15.109 41.637 15.109 11.675-0.171 23.437-3.434 33.568-9.271 5.065-2.833 9.701-6.524 13.736-10.732 4.807-4.894 7.899-11.332 12.449-16.398 4.292-4.721 9.1-9.015 14.166-12.705 1.631-1.202 6.353-2.919 6.353-5.065 0-4.12 0-8.328 0-12.534 0-24.81 0-49.534 0-74.346-16.483 0.344-35.112 0.601-51.338-3.263-13.306-3.348-28.329-9.787-34.169-22.578-2.833-6.353-4.721-24.209-4.721-36.313 0-32.879 0-65.59 0-98.383 0-0.772-0.515-6.868 0.257-6.868 4.636 0 274.202 0.086 274.202 0.086s0 77.006 0 107.484c0 13.479 1.46 26.612-7.64 37.859-8.328 10.045-20.689 16.225-33.224 18.972-15.797 3.348-33.568 3.177-49.534 2.833 0 28.502 0 57.005 0 85.591 0 2.748 0.43 2.232 3.263 4.12 6.954 4.721 13.306 10.387 18.801 16.74 4.894 5.666 8.499 12.104 13.907 17.255 5.581 5.237 12.104 9.357 19.058 12.363 26.527 11.074 60.866 3.263 77.264-21.29 33.138-49.793 107.054-53.312 144.999-7.383 35.886 43.269 22.751 110.488-26.27 137.359z" />
<glyph unicode="&#xe911;" glyph-name="post" d="M868.935 917.855h-65.684c0-1.153-0.191-2.401-0.191-3.554-9.027-29.866-36.778-51.568-69.621-51.568-33.802 0-61.843 22.855-70.293 53.967 0 0.191 0 0.768 0 1.153h-63.764c0-1.73-0.191-3.169-0.385-4.513-9.218-29.672-36.778-51.184-69.427-51.184-33.802 0-62.034 22.855-70.389 53.872 0 0.768-0.191 1.153-0.191 1.825h-63.859c0-1.345-0.191-2.593-0.191-4.128-9.218-29.866-36.971-51.759-69.812-51.759-33.609 0-61.554 22.47-70.198 53.104 0 0.959-0.191 1.825-0.191 2.784h-67.605c0-38.796-31.305-70.099-70.004-70.099v-50.894c0.768 0 1.345-0.191 2.208-0.191 30.634-8.354 53.391-36.491 53.391-69.908s-22.47-61.554-53.104-69.908c-0.959-0.191-1.633-0.191-2.401-0.191v-64.147c0.768 0 1.73 0 2.593 0 30.537-8.642 52.912-36.586 52.912-70.004 0-33.609-22.661-61.649-53.68-70.099-0.577 0-1.345 0-1.922 0v-63.764c1.153 0 2.401 0 3.554-0.191 30.344-8.642 52.719-36.586 52.719-69.812 0-33.609-22.661-61.745-53.489-70.099-0.959 0-1.825-0.191-2.784-0.191v-65.49c1.153 0 2.208-0.191 3.361-0.191 30.537-8.642 52.912-36.586 52.912-70.004s-22.279-61.554-53.104-69.908c-1.153 0-2.208-0.191-3.169-0.191v-62.515c38.602 0 70.004-31.497 70.004-70.198h68.468c0 0.385 0 0.959 0 1.345 8.835 29.961 36.778 51.951 69.812 51.951 32.841 0 60.401-21.607 69.621-51.375-0.191-0.577-0.191-1.345-0.191-1.922h64.915c0 0.385 0 0.577 0 0.959 8.835 30.344 36.778 52.527 70.004 52.527 32.458 0 60.209-21.413 69.427-50.992-0.191-0.768-0.191-1.536-0.191-2.401h64.915c0 0.577-0.191 1.153-0.191 1.73 8.835 30.248 36.778 52.336 70.004 52.336 32.65 0 60.401-21.607 69.621-50.992 0-1.153-0.191-1.825-0.191-2.978h66.067c0 38.602 31.305 70.198 70.099 70.198v62.515c-0.577 0-0.959 0-1.633 0.191-30.729 8.45-53.295 36.395-53.295 69.908s22.47 61.554 53.295 70.099c0.577 0 1.153 0 1.633 0v65.586c-0.385 0-0.768 0-0.768 0-31.305 8.45-54.16 36.586-54.16 70.293 0 33.226 22.47 61.362 52.912 70.004 0.768 0 1.536 0 2.016 0v63.764c-0.768 0-1.633 0-2.208 0-30.92 8.45-53.68 36.586-53.68 70.099 0 33.418 22.279 61.362 52.912 70.004 0.959 0 2.112 0 2.978 0v63.859c-0.959 0-1.825 0-2.784 0.191-30.344 8.45-53.104 36.586-53.104 69.908 0 33.418 22.661 61.554 53.295 70.004 0.959 0 1.73 0.191 2.593 0.191v50.894c-39.084 0-70.389 31.305-70.389 70.099zM682.256 635.243c51.759-57.808 58.674-203.29 33.226-290.582-5.089-17.189-17.094-39.947-93.627-53.775-14.788-2.593-9.218-23.432-3.938-43.116 8.45-31.688 23.815-52.336 39.179-79.415 5.089-9.218 12.004-21.99 10.852-28.424-2.593-10.852-25.926-9.412-39.37-10.755-54.543-5.762-96.796-24.68-142.698-42.925-5.281-2.016-10.852-4.321-16.132-6.146-12.772-4.226-31.688-10.37-47.246-12.58-11.237-1.536-21.413-1.825-27.752 4.609 4.704 17.189 18.342 28.617 28.521 41.1 10.466 12.772 20.645 25.544 30.344 39.179 11.237 25.448-0.385 56.56-5.281 86.425-2.305 12.868-0.577 24.871-6.242 34.761-8.642 8.45-91.706-9.507-100.733 23.528-3.361 12.004 11.811 26.216 12.195 31.786 0.768 7.297-10.084 5.954-9.987 18.534 0 8.354 7.682 10.466 12.772 19.688-34.283 17.477-0.959 30.537-14.211 40.523-7.874 5.474-23.334 13.157-20.55 25.544 5.281 23.623 35.146 37.163 47.342 68.659-7.874 26.503 9.603 72.118 18.342 83.737-14.020 3.361-21.413 24.871-19.877 44.365 3.169 41.389 39.947 55.6 80.855 62.802 125.317 22.183 190.519-8.93 234.019-57.521z" />
<glyph unicode="&#xe912;" glyph-name="experience-3" d="M512-64v0c-282.77 0-512 229.23-512 512s229.23 512 512 512c282.77 0 512-229.23 512-512s-229.23-512-512-512zM511.429 44.571c222.492 0 402.857 180.365 402.857 402.857s-180.365 402.857-402.857 402.857c-222.492 0-402.857-180.365-402.857-402.857s180.365-402.857 402.857-402.857v0zM602.63 602.861c32.341-8.167 55.165-22.679 55.165-63.786 0-55.796-41.721-146.581-41.721-146.581h-208.638c0 0-41.721 90.347-41.721 146.581 0 39.398 22.856 54.367 54.552 62.859-5.159-4.693-8.137-10.972-8.137-19.587 0-28.117 99.518-160.597 99.518-160.597s99.518 132.698 99.518 160.597c0 9.199-3.116 15.735-8.534 20.514v0zM537.965 619.098c-4.163 4.424-14.344 6.582-24.365 6.52 8.647-0.056 17.24-1.892 17.24-5.554 2.388-0.341 4.765-0.66 7.125-0.966v0zM502.291 624.529c-4.893-0.979-9.017-2.617-11.363-4.906 1.699 0.234 3.4 0.477 5.1 0.732 0 1.908 2.547 3.302 6.262 4.174v0zM646.291 695.236c0-73.008-59.19-132.193-132.205-132.193s-132.205 59.185-132.205 132.193c0 73.008 59.19 132.193 132.205 132.193s132.205-59.185 132.205-132.193zM264 270.857l-79.939-42.379 15.267 89.761-64.672 63.569 89.374 13.096 39.969 81.667 39.969-81.667 89.374-13.096-64.672-63.569 15.267-89.761zM758.857 269.714l-79.939-42.379 15.267 89.761-64.672 63.569 89.374 13.096 39.969 81.667 39.969-81.667 89.374-13.096-64.672-63.569 15.267-89.761zM512 168l-79.939-42.379 15.267 89.761-64.672 63.569 89.374 13.096 39.969 81.667 39.969-81.667 89.374-13.096-64.672-63.569 15.267-89.761z" />
<glyph unicode="&#xe913;" glyph-name="dashboard" d="M924.821 698.826c0 64.872-53.043 107.918-117.993 107.918h-589.657c-64.872 0-117.917-43.046-117.917-107.918v-469.375h825.566v469.375zM381.262 317.373c0-4.427-3.587-7.938-7.938-7.938h-143.56c-4.427 0-7.86 3.511-7.86 7.938v142.644c0 4.351 3.511 7.938 7.86 7.938h143.636c4.351 0 7.938-3.587 7.938-7.938v-142.644zM591.756 317.373c0-4.427-3.587-7.938-7.938-7.938h-143.636c-4.427 0-7.938 3.511-7.938 7.938v142.644c0 4.351 3.587 7.938 7.938 7.938h143.636c4.427 0 7.938-3.587 7.938-7.938v-142.644zM591.756 522.906c0-4.427-3.587-7.938-7.938-7.938h-354.053c-4.427 0-7.86 3.511-7.86 7.938v180.422c0 4.351 3.511 7.86 7.86 7.86h354.053c4.427 0 7.938-3.511 7.938-7.86v-180.422zM802.097 317.373c0-4.427-3.511-7.938-7.938-7.938h-143.636c-4.351 0-7.938 3.511-7.938 7.938v142.644c0 4.351 3.587 7.938 7.938 7.938h143.636c4.427 0 7.938-3.587 7.938-7.938v-142.644zM802.097 522.906c0-4.427-3.511-7.938-7.938-7.938h-143.636c-4.351 0-7.938 3.511-7.938 7.938v180.422c0 4.351 3.587 7.86 7.938 7.86h143.636c4.427 0 7.938-3.511 7.938-7.86v-180.422zM-0.039 185.032c0-66.399 35.642-120.664 102.041-120.664h819.995c66.476 0 101.965 54.265 101.965 120.664h-1024zM569.318 117.565c0-4.273-11.371-7.708-25.263-7.708h-66.857c-13.966 0-25.339 3.435-25.339 7.708v20.454c0 4.197 11.371 7.708 25.339 7.708h66.857c13.89 0 25.263-3.511 25.263-7.708v-20.454z" />
<glyph unicode="&#xe914;" glyph-name="documents" d="M519.633 769.216c37.408 0 67.946-28.903 70.782-65.547h428.948v120.625c0 11.561-9.271 20.721-20.721 20.721h-913.19c-11.452 0-20.721-9.271-20.721-20.721v-55.078h454.904zM647.239 431.338l-247.683-80.816c0 0-26.721-9.051-52.788-23.122-2.181-9.706-3.271-19.849-3.271-30.101 0-77.98 69.364-141.237 154.762-141.237v0c14.614-0.437 30.538 0.872 47.879 4.363 110.917 82.671 101.102 270.913 101.102 270.913zM1031.579 655.026h-489.587v43.188c0 12.324-10.034 22.25-22.359 22.25h-467.228c-12.324 0-22.359-9.926-22.359-22.25v-692.992c0-12.324 10.034-22.25 22.359-22.25h979.283c12.324 0 22.359 9.926 22.359 22.25v627.553c0 12.216-10.034 22.25-22.467 22.25zM658.146 204.593c-42.645-24.211-79.727-37.954-111.9-44.28-5.998-4.471-12.216-8.616-18.977-12.433-52.242-29.775-94.45-39.809-127.932-38.937v0.109c-68.274 0-123.678 50.495-123.678 112.989 0 33.374 14.506 63.694 39.589 84.415 8.834 7.744 20.069 14.832 31.519 20.941 6.653 29.557 22.685 55.95 46.353 75.364 36.536 32.065 105.465 55.187 105.465 55.187l309.633 100.993c0 0 13.305-261.425-150.071-354.348z" />
<glyph unicode="&#xe915;" glyph-name="dualenergy" d="M469.79 113.187c-22.271 0-35.402 6.709-46.778 12.351-1.555-4.766-4.667-21.786 2.138-38.903 6.614-7.292 13.905-17.215 49.212-17.215 105.715 0 172.626 46 212.79 93.852 9.921 27.231-1.752 51.449-1.752 51.449-64.092-68.468-156.386-101.535-215.61-101.535zM494.982 41.318c-37.348-0.29-56.016 11.378-56.895 7.196-1.36-6.809 2.43-18.382 11.378-26.453 10.016-8.85 44.735-20.13 62.145-18.477 4.18-11.478 24.701-42.693 46.392-42.693 20.91 0 41.916 34.719 41.916 60.492 37.247 16.632 83.056 49.212 68.176 86.263-48.82-52.419-135.765-66.134-173.113-66.329zM739.769 364.494c-19.452-31.315-37.929-57.090-55.433-78.775-77.707 1.653-201.899 85.193-204.039 157.551-18.477-20.812-21.786-89.182 7.684-142.379 3.794-6.324 9.921-15.753 18.869-25.479-91.418 56.503-80.914 148.603-73.913 180.99 13.325 56.991 49.699 100.851 95.794 120.4-38.61-35.402-18.187-92.195 22.172-138.877-0.195 0.195-0.195 0.195-0.195 0.195 59.81-66.134 132.85-71.383 155.217-64.382 21.299 6.614 28.983 21.104 34.526 37.444 26.453 77.124-7.002 156.092-28.887 195.87-1.947 3.21-7.489 12.933-16.827 26.161-0.972-6.419-2.138-13.421-3.112-18.77-0.39-2.335-0.873-4.766-1.459-7.489-0.095-0.583-0.195-0.972-0.195-0.972v0c-4.084-18.575-12.156-41.818-28.008-53.296 0.095 78.972-57.963 154.050-57.963 154.050-47.654 74.4-128.861 92.782-128.861 92.782 21.786-23.146 22.95-47.752 13.128-73.817-17.992-46.972-72.553-99.006-111.064-157.164-17.604-23.341-30.247-50.572-37.052-80.039-3.502-15.27-5.349-31.12-5.349-47.46 0-31.22 6.709-60.88 18.77-87.628-5.737 7.196-11.378 14.393-17.018 21.786-47.46 61.95-96.572 136.74-100.95 222.128-0.682 14.007-0.39 28.301 0.972 42.598 5.932 65.257 32.675 128.183 75.468 177.003 52.518 59.81 127.986 97.449 207.248 103.285 6.614 0.487 13.52 0.682 20.324 0.682 72.648 0 142.77-26.065 197.522-73.426 66.134-57.090 104.16-130.808 104.55-202.482 0.583-79.457-14.007-138.782-101.921-280.479zM376.62 309.256c57.573-71.775 51.741-142.77 52.031-157.746 9.143-9.143 55.048-19.742 115.636 6.709 39.871 17.31 82.084 36.469 128.668 78.775-4.281-1.653-148.020-94.824-296.333 72.26z" />
<glyph unicode="&#xe916;" glyph-name="energyusage" d="M958.89 808.765h-893.862c-36.008 0-65.028-29.102-65.028-65.028v-602.183c0-35.843 29.020-65.028 65.028-65.028h77.277v507.067h107.53v-506.902h49.737v415.157h107.612v-415.157h49.737v588.208h107.612v-588.208h49.655v291.021h107.612v-291.021h49.737v506.902h107.612v-506.902h79.742c36.008 0 65.11 29.102 65.11 65.028v602.101c0 35.843-29.020 64.945-65.11 64.945z" />
<glyph unicode="&#xe917;" glyph-name="engineerappointments" d="M819.334 803.462h4.373c13.309 0 25.381 5.514 33.462 14.926 6.559 7.7 10.932 17.301 10.932 28.137v59.604c0 16.541-9.506 30.896-23.099 38.406 0 0-0.284 0.189-0.381 0.189-1.141 0.476-2.185 1.046-3.327 1.617-0.189 0-0.476 0.095-0.571 0.189-0.381 0.095-0.665 0.189-0.95 0.284-0.284 0.189-0.76 0.381-1.141 0.476-0.189 0.095-0.476 0.095-0.665 0.189-0.381 0.189-0.95 0-1.425 0.189-4.087 1.331-8.554 1.617-13.024 1.617h-4.373c-2.185 0-4.087 0.189-6.274-0.095-21.103-3.232-36.883-21.103-36.883-43.063v-59.509c0.189-24.145 19.202-43.158 43.347-43.158zM289.177 803.462h4.278c13.403 0 25.192 5.514 33.176 14.926 6.559 7.7 10.456 17.395 10.456 28.234v59.509c0 11.978-4.752 22.815-12.549 30.704-0.095 0.095-0.095 0.189-0.095 0.284 0 0-0.095-0.284-0.189-0.189-7.889 7.794-18.728 12.357-30.801 12.357h-4.278c-12.167 0-22.815-4.468-30.801-12.357 0-0.095-0.095 0-0.095 0-0.095-0.095-0.381-0.095-0.476-0.095-7.7-7.986-12.833-18.728-12.833-30.704v-59.509c0-10.837 4.278-20.532 10.837-28.137 8.176-9.411 20.059-15.020 33.367-15.020zM812.584 118.164c0-13.702-11.108-24.811-24.811-24.811s-24.811 11.108-24.811 24.811c0 13.702 11.108 24.811 24.811 24.811s24.811-11.108 24.811-24.811zM529.395 810.497l0.284-0.095c0.189-0.095 0.381 0.095 0.476 0.095 6.845-4.563 15.305-7.034 24.24-7.034h4.373c7.415 0 14.45 1.52 20.724 4.944 0.095 0 0.095-0.189 0.189-0.095 0 0.095-0.095 0.095 0 0.189 13.498 7.415 22.244 21.674 22.244 38.119v59.509c0 14.258-6.464 26.901-17.111 34.888-0.095 0.095 0 0.189 0 0.189v-0.284c-7.321 5.514-16.256 8.27-26.047 8.27h-4.373c-11.313 0-21.674-3.897-29.468-11.026v0.284c-0.095-0.095-0.571-0.095-0.76-0.189-8.651-7.986-14.258-19.297-14.258-32.131v-59.509c-0.095-15.020 7.7-28.234 19.488-36.123zM907.741 892.441v-45.819c0-46.105-37.835-84.414-84.035-84.414h-4.373c-46.011 0-84.509 38.214-84.509 84.414v51.999h-91.83v-51.999c0-46.105-38.406-84.414-84.509-84.414h-4.278c-46.295 0-84.13 38.214-84.13 84.414v51.999h-93.445v-51.999c0-46.105-37.073-84.414-83.273-84.414h-4.184c-46.2 0-83.749 38.214-83.749 84.414v45.154c-53.805-17.682-91.924-68.063-91.924-127.477v-705.071c0-74.243 59.888-133.752 134.036-133.752h619.705c74.148 0 133.846 59.509 133.846 133.752v705.071c0.189 60.174-39.45 111.126-93.35 128.143zM397.547 139.934l-26.901-33.271-88.882-56.277-38.595 38.69 56.277 88.787 33.462 27.093 6.464-6.464 111.886 112.078 52.283-51.809-112.267-112.078 6.274-6.75zM828.078 82.516c-12.738-12.738-29.279-19.012-45.914-19.012-16.541 0-33.271 6.274-45.914 19.012l-321.214 321.022c-47.72-15.494-102.285-4.373-140.215 33.462-36.029 36.218-47.912 87.362-35.363 133.371l77.856-77.951 76.43 20.532 20.343 76.239-77.856 77.951c45.914 12.454 97.247 0.76 133.371-35.458 36.313-36.408 48.101-88.027 35.077-134.417l323.304-322.923c25.381-25.476 25.381-66.638 0.095-91.83zM703.643 412.19c-15.494 1.712-31.275-2.185-44.678-11.123l-65.591 64.547c9.411 13.593 13.403 29.565 11.407 45.248l176.528 176.339 98.578-98.769-176.244-176.244z" />
<glyph unicode="&#xe918;" glyph-name="homecare" d="M886.929 296.709c-2.538 6.272-6.346 12.244-11.198 17.246-6.943 6.794-15.080 11.348-23.742 13.513-8.211 2.016-16.724 1.867-24.861-0.149-8.511-2.164-16.573-6.718-23.143-13.364l-104.968-105.043c0 0-24.787-25.16-57.262-25.16l-247.788 0.149c-7.092 0-21.65 1.568-21.65 17.918s14.558 18.141 21.65 18.141h202.843c7.988 0.149 15.38 2.389 21.65 6.421 6.794 4.331 12.244 10.675 15.528 18.141 2.090 4.928 3.286 10.303 3.434 15.902-0.149 7.689-2.164 14.783-5.749 20.904-3.509 5.749-8.362 10.452-14.11 13.886-5.973 3.583-12.99 5.524-20.382 5.45 0 0-295.27 0-303.258 0-8.736 0-23.442-3.583-45.839-26.055-22.472-22.472-143.117-143.342-143.117-143.342s0-173.354 0-208.667c0-28.519 25.98-16.648 37.628-4.928 43.601 43.525 111.538 101.012 126.544 115.943 22.397 22.472 45.839 26.055 45.839 26.055h342.080c41.36 0 83.391 46.959 83.391 46.959l135.28 135.28c6.943 7.166 11.423 15.828 13.438 24.935 2.239 9.781 1.419 20.382-2.239 29.863zM202.546 606.387h67.266v-269.512c7.988 2.687 16.051 4.106 23.965 4.106h303.258c14.708 0 28.892-3.883 41.137-11.123 11.497-6.869 21.127-16.499 27.847-27.847 7.54-12.468 11.348-26.728 11.497-41.36 0-1.941-0.149-3.883-0.299-5.824l98.1 98.174c11.348 11.497 25.906 19.933 41.734 23.89 2.687 0.746 5.376 1.119 8.137 1.568v227.929h67.266c16.798 0 21.949 11.123 23.143 14.558s3.957 15.38-9.333 25.757l-337.9 264.362c-5.824 4.554-13.215 7.018-20.978 7.018s-15.155-2.464-20.904-7.018l-158.199-123.857v19.037c0 6.421-6.047 11.646-13.587 11.646h-70.7c-7.466 0-13.662-5.225-13.662-11.646v-95.561l-81.675-63.98c-13.215-10.378-10.452-22.323-9.258-25.757 1.119-3.434 6.421-14.558 23.143-14.558z" />
<glyph unicode="&#xe919;" glyph-name="meter" d="M984.883 726.465h-894.015c-35.97 0-64.992-29.114-64.992-64.992v-602.208c0-35.877 29.114-64.899 64.992-64.899h894.015c35.97 0 64.992 29.114 64.992 64.899v602.208c0 35.877-29.020 64.992-64.992 64.992zM354.029 255.178c0-12.585-10.049-22.728-22.634-22.728h-209.722c-12.585 0-22.728 10.143-22.728 22.728v210.473c0 12.585 10.143 22.728 22.728 22.728h209.722c12.585 0 22.634-10.143 22.634-22.728v-210.473zM665.557 255.178c0-12.585-10.049-22.728-22.728-22.728h-209.722c-12.491 0-22.728 10.143-22.728 22.728v210.473c0 12.585 10.236 22.728 22.728 22.728h47.993v-18.971c16.999 5.729 33.53 8.641 49.965 8.641 11.177 0 20.005-1.878 26.391-5.635s9.768-10.707 9.768-20.943c0-5.822-0.751-10.519-2.348-13.993-1.502-3.57-3.944-6.386-7.326-8.547s-7.701-3.57-13.149-4.32c-5.448-0.751-12.021-1.127-19.722-1.127h-9.015v-25.453h6.105c8.922 0 16.435-0.564 22.447-1.598s10.8-2.723 14.463-5.071c3.663-2.348 6.292-5.448 7.794-9.298 1.598-3.85 2.348-8.641 2.348-14.183 0-11.364-3.57-19.348-10.8-23.949-7.326-4.601-19.348-6.95-35.97-6.95-15.308 0-30.431 2.536-45.458 7.794v-30.335c15.027-4.791 31.275-7.233 48.651-7.233 14.276 0 26.485 1.221 36.817 3.476 10.049 2.348 18.503 5.822 25.17 10.707 6.48 4.791 11.364 10.989 14.37 18.503 3.099 7.514 4.695 16.529 4.695 27.142 0 8.641-1.221 15.778-3.287 21.413-2.255 5.542-4.978 9.956-7.794 13.149-3.099 3.193-6.105 5.542-9.392 6.95-3.193 1.408-5.635 2.442-7.326 3.006 3.663 1.315 7.043 3.193 10.049 5.354 3.099 2.159 5.729 4.884 8.077 8.171s4.133 7.233 5.635 11.928c1.221 4.601 1.972 10.049 1.972 16.435 0 14.746-3.193 26.391-9.298 34.845h47.898c12.679 0 22.728-10.143 22.728-22.728v-210.379zM824.656 233.954c-5.729 4.601-8.641 12.021-8.641 22.26 0 9.862 2.723 17.563 8.077 23.104 5.448 5.635 14.933 8.358 28.457 8.358 13.43 0 22.821-2.817 28.269-8.358 5.542-5.542 8.077-13.242 8.077-23.104 0-10.236-2.817-17.656-8.452-22.26-0.751-0.564-1.785-1.034-2.442-1.502h-50.904c-0.845 0.47-1.785 0.938-2.442 1.502zM819.585 344.966c0 8.828 2.442 15.591 7.701 20.192 5.259 4.695 13.525 6.95 25.17 6.95 11.458 0 19.911-2.159 25.17-6.669 5.165-4.414 7.794-11.27 7.794-20.475 0-9.111-2.442-16.155-7.514-21.226-5.071-5.165-13.619-7.701-25.453-7.701-12.021 0-20.475 2.536-25.453 7.701-4.884 4.978-7.42 12.115-7.42 21.226zM976.899 255.178c0-12.585-10.143-22.728-22.728-22.728h-32.871c2.255 6.292 3.38 13.525 3.38 21.696 0 13.149-3.006 23.855-8.922 32.213-6.012 8.358-15.591 13.993-28.739 16.905 11.647 3.099 20.005 7.984 25.17 14.746 5.354 6.763 7.89 16.529 7.89 29.21 0 17.75-5.354 30.992-15.965 39.823-10.613 8.735-27.799 13.149-51.655 13.149-24.042 0-41.137-4.32-51.844-13.149-10.519-8.828-15.872-22.070-15.872-39.823 0-12.679 2.629-22.447 7.794-29.21 5.259-6.763 13.525-11.74 25.076-14.746-12.868-2.817-22.26-8.547-28.552-16.905-6.012-8.358-9.111-19.16-9.111-32.213 0-8.171 1.127-15.404 3.38-21.696h-39.165c-12.491 0-22.728 10.143-22.728 22.728v210.473c0 12.585 10.236 22.728 22.728 22.728h209.722c12.585 0 22.728-10.143 22.728-22.728v-210.473zM162.527 428.272h95.14l-73.163-164.828h36.723l74.008 169.055v25.17h-132.708z" />
<glyph unicode="&#xe91a;" glyph-name="moving" d="M1016.486 432.384l-231.615 296.055c-5.677 7.356-12.073 9.034-16.629 9.034-2.718 0-4.797-0.639-5.916-0.96-2.959-1.039-12.792-5.516-12.792-20.307v-58.922h-249.365l47.010-36.777h239.212v46.371l197.797-252.882-197.797-252.882v46.371h-176.61v-36.777h139.753v-58.922c0-14.791 9.833-19.268 12.792-20.307 1.119-0.321 3.198-0.96 5.916-0.96 4.558 0 10.954 1.758 16.629 9.034l231.615 296.055c3.997 5.036 6.157 11.514 6.157 18.308 0.080 6.876-2.159 13.352-6.157 18.469zM639.281 495.625l-296.055 231.615c-5.118 3.997-11.673 6.157-18.469 6.157s-13.272-2.159-18.308-6.157l-138.634-108.492v16.629c0 5.596-5.277 10.154-11.912 10.154h-61.961c-6.555 0-11.992-4.558-11.992-10.154v-83.708l-71.555-56.045c-11.673-9.034-9.114-19.588-8.075-22.545 1.039-3.039 5.516-12.792 20.228-12.792h58.922v-338.908c0-14.791 11.992-26.783 26.863-26.783h432.931c14.712 0 26.783 11.992 26.783 26.783v338.828h58.922c14.791 0 19.268 9.833 20.307 12.792 1.119 3.039 3.598 13.511-7.995 22.625z" />
<glyph unicode="&#xe91b;" glyph-name="notification" d="M532.149 852.345c0.653 0.186 0.653 0.186 0 0v0zM438.117 42.999c6.436-60.077 56.717-106.999 118.567-106.999 61.755 0 112.036 46.922 118.472 106.999-48.602-3.731-62.408-8.116-118.472-8.116-56.157-0.093-69.963 4.291-118.567 8.116zM862.007 344.871c-32.837 101.309-50.095 207.562-50.095 314.56 0 124.164-88.809 227.618-206.254 250.473 0 0.374 0 0.746 0 1.12 0 27.147-21.829 48.976-48.976 48.976-27.052 0-48.976-21.922-48.976-48.976 0-0.279 0-0.746 0-1.12-117.54-22.856-206.254-126.216-206.254-250.473 0-107.838-17.070-213.438-49.907-314.653 76.68-21.55 180.694-44.217 305.232-44.217 124.443 0 228.456 22.668 305.232 44.31zM930.293 195.428c-16.884 31.81-37.314 79.199-50.748 112.503-93.846-27.052-205.601-48.23-322.955-48.23s-229.39 21.176-323.234 48.23c-13.246-33.209-33.49-80.412-50.281-112.41-6.157-11.661-9.889-18.936-9.889-19.684 0-53.546 171.646-97.017 383.311-97.017s383.311 43.471 383.311 97.017c0.186 0.746-3.453 7.93-9.515 19.589z" />
<glyph unicode="&#xe91c;" glyph-name="tariff" d="M1017.151 569.481c0 90.552 0 181.191 0 271.832 0 24.273-9.135 42.633-22.839 55.261-12.718 13.793-31.079 22.839-55.352 22.839-108.374 0-216.928 0-325.393 0 0.179-0.089 0.538-0.179 0.805-0.268-20.421 0.179-40.841-7.255-56.068-22.571-146.977-146.977-382.534-382.445-529.422-529.422-30.093-30.093-30.093-80.339 0-110.524 108.554-108.465 217.017-216.928 325.482-325.393 30.185-30.185 80.431-30.185 110.524 0 32.511 32.603 81.774 81.863 137.483 137.483h-320.913l15.136 84.013h72.28l27.764 162.113h-73.982l9.224 52.934c1.164 6.090 2.956 10.569 5.463 12.988 2.507 2.507 7.703 4.299 15.584 5.463l57.144 7.524 14.241 78.907c10.032 58.217 33.049 101.208 68.875 128.886 35.737 27.764 85.624 41.559 149.485 41.559 18.988 0 36.005-0.986 51.143-2.956 15.136-1.881 27.764-4.031 37.796-6.179 15.674-3.404 24.811-7.614 27.318-12.628 2.507-5.106 2.956-12.898 1.343-23.555l-10.121-55.442c-16.838 6.179-33.138 10.21-49.171 12.18-15.943 1.881-31.258 2.956-45.678 2.956-35.378 0-62.875-7.792-82.76-23.109-19.883-15.406-32.871-40.125-39.141-74.339l-10.837-63.055h157.904l-14.241-82.311h-157.904l-27.856-162.113h205.912c143.305 143.305 294.044 294.133 305.867 305.956 30.542 30.631 24.9 71.92 24.9 110.972zM941.646 777.722c-18.181-18.272-47.828-18.272-66.189 0-18.272 18.272-18.272 47.917 0 66.189 18.361 18.272 48.006 18.272 66.189 0 18.272-18.272 18.272-48.006 0-66.189z" />
<glyph unicode="&#xe91d;" glyph-name="billings" d="M567.006 290.883c2.166 2.274 6.821 3.897 14.075 4.981l51.974 6.821 13.101 72.007c9.096 53.166 30.102 92.255 62.802 117.592s78.177 38.007 136.432 38.007c17.433 0 33.026-0.974 46.777-2.708 13.859-1.842 25.229-3.681 34.326-5.739 4.547-0.974 8.447-2.058 11.694-3.139v387.749c0 12.344-9.962 22.306-22.198 22.306h-748.428c-12.236 0-22.198-9.962-22.198-22.306v-979.388c0-12.344 9.962-22.306 22.198-22.306h748.428c12.236 0 22.198 9.962 22.198 22.306v512.92c-13.428 4.547-26.637 7.689-39.523 9.312-14.617 1.732-28.587 2.708-41.904 2.708-32.268 0-57.171-7.039-75.362-21.222-18.191-13.967-30.102-36.599-35.623-67.675l-10.070-57.497h144.011l-12.886-75.038h-144.011l-25.337-147.91h189.272l-13.751-76.662h-356.997l13.751 76.662h65.942l25.121 147.91h-67.568l8.554 48.293c1.192 5.631 2.816 9.528 5.197 12.020zM236.862 813.439h377.353v-44.72h-377.353v44.72zM236.862 733.854h377.353v-44.828h-377.353v44.828zM236.862 654.161h377.353v-44.612h-377.353v44.612zM236.862 529.964v44.72h377.353v-44.72h-377.353z" />
<glyph unicode="&#xe91e;" glyph-name="boiler-control" d="M810.436 122.929c-53.161-10.879-172.289-26.23-300.191-26.23-137.024 0-254.223 16.492-302.208 28.686v-166.062c0.701-16.492 12.544-30.001 28.334-33.597 0.876-0.352 1.667-0.352 2.456-0.527 0 0 0.087-0.087 0.175-0.087 58.249-10.789 157.816-22.019 271.243-22.019 112.022 0 210.625 11.755 269.137 22.019 0.175 0 0.439 0.087 0.614 0.087 0.527 0.087 1.053 0.175 1.58 0.175 16.404 3.771 28.861 18.071 28.861 35.177v0.175c0 0 0 147.726 0 162.201zM305.148-39.623c-30.44 0-55.178 24.738-55.178 55.178 0 30.528 24.738 55.265 55.178 55.265 30.528 0 55.355-24.738 55.355-55.265 0-30.44-24.825-55.178-55.355-55.178zM426.118-28.657c-20.352 0-37.019 16.579-37.019 36.931 0 20.527 16.579 37.106 37.019 37.106s37.019-16.492 37.019-37.106c0-20.265-16.579-36.931-37.019-36.931zM774.294 927.093h-530.202c-19.913 0-36.055-16.229-36.055-36.055 0 0-0.175-697.228-0.175-704.422 0.087 0 0.087 0 0.175 0v-0.087c0.087 0 0.087 0 0.087 0 48.072-12.369 165.183-28.598 302.12-28.598 127.902 0 238.609 15.264 291.77 26.23 2.895 0.614 5.703 1.315 8.333 2.017 0 9.738 0.087 704.949 0.087 704.949 0 19.738-16.142 35.966-36.143 35.966z" />
<glyph unicode="&#xe91f;" glyph-name="ctrl-heating" d="M1004.16 194.941v-59.841h-86.029v130.006c45.488 0 86.029-31.473 86.029-70.164zM886.995 773.969v-634.084c0-36.844-29.878-66.807-66.639-66.807h-125.81v-85.944h-59.758c-38.774 0-70.247 36.844-70.247 82.251v3.777h-224.762v-3.777c0-45.405-31.305-82.251-70.081-82.251h-59.758v85.944h-125.895c-37.012 0-66.89 29.878-66.89 66.807v634.084c0 36.929 29.795 66.89 66.89 66.89h736.226c36.761 0 66.724-29.878 66.724-66.89zM183.080 191.081c-17.29-0.168-21.484 9.064-21.484 21.822v556.534c-0.083 0-0.083 0-0.083 0-26.606 0-48.343-21.484-48.343-48.007v-527.494c0-39.362 17.54-48.595 48.343-48.595 29.374 0 48.26 14.435 48.26 45.658l-26.69 0.083zM376.454 191.081c-17.29-0.168-21.484 9.064-21.484 21.822v556.534c-0.083 0-0.083 0-0.083 0-26.606 0-48.343-21.484-48.343-48.007v-527.494c0-39.362 17.54-48.595 48.343-48.595 29.374 0 48.26 14.435 48.26 45.658l-26.69 0.083zM569.743 191.081c-17.29-0.168-21.484 9.064-21.484 21.822v556.534c-0.083 0-0.083 0-0.083 0-26.606 0-48.343-21.484-48.343-48.007v-527.494c0-39.362 17.54-48.595 48.343-48.595 29.374 0 48.26 14.435 48.26 45.658l-26.69 0.083zM763.117 191.081c-17.29-0.168-21.484 9.064-21.484 21.822v556.534c-0.083 0-0.083 0-0.083 0-26.606 0-48.343-21.484-48.343-48.007v-527.494c0-39.362 17.54-48.595 48.343-48.595 29.374 0 48.26 14.435 48.26 45.658l-26.69 0.083z" />
<glyph unicode="&#xe920;" glyph-name="home-elec" d="M797.336 638.448c-26.95 37.278-51.244 60.786-68.456 75.046-17.31 14.164-28.033 19.081-28.033 19.081v-0.098c-98.554 60.884-205.175 72.883-320.056 27.048-19.277-7.771-37.572-16.622-54.588-26.95 0 0-13.376-6.098-34.326-24-16.031-13.082-30.392-27.54-43.081-44.064-49.671-59.409-114.193-167.11-164.651-355.957-83.505-313.959 239.305-370.71 319.86-379.759 0 0 0.294-0.196 0.688-0.196 3.148-0.294 6-0.688 8.459-0.884v0c2.852-0.196 5.213-0.492 6.688-0.59l-0.196-0.492 18.589-0.786c35.999-2.361 94.522-4.917 148.519-0.982 10.818 0.688 21.244 1.573 30.294 2.95 66.587 6.786 407.594 57.342 322.712 380.644-42.983 164.060-96.883 266.747-142.422 329.99zM396.43 169.576c0-17.508-14.164-31.671-31.671-31.671h-132.98c-17.606 0-31.769 14.164-31.769 31.671v33.344c0 17.508 14.164 31.769 31.769 31.769h132.882c17.606 0 31.671-14.36 31.671-31.769v-33.344zM560.589 481.274c0-17.508-14.36-31.671-31.869-31.671h-33.246c-17.606 0-31.769 14.164-31.769 31.671v133.078c0 17.606 14.164 31.769 31.769 31.769h33.246c17.606 0 31.869-14.262 31.869-31.769v-133.078zM836.285 169.576c0-17.508-14.262-31.671-31.671-31.671h-133.176c-17.508 0-31.671 14.164-31.671 31.671v33.344c0 17.508 14.164 31.769 31.671 31.769h133.176c17.508 0 31.671-14.36 31.671-31.769v-33.344zM510.819 915.423c-88.522 0-335.695-20.654-429.036-478.904-10.426-50.95-11.705-98.652-11.115-131.898 107.799 497.296 325.465 538.212 440.249 538.212s332.45-40.916 440.249-538.212c0.59 33.246-0.786 80.948-11.115 131.898-93.439 458.149-340.612 478.904-429.232 478.904z" />
<glyph unicode="&#xe921;" glyph-name="gak" horiz-adv-x="726" d="M71.242 959.766c-39.228 0-71.078-31.848-71.078-71.074v-919.29h725.004v919.29c0 39.226-31.85 71.074-71.078 71.074h-582.846zM63.992 926.598h606.354v-834.4h-606.354v834.4zM239.492 623.326v0h-135.080v-483.336h521.244v483.336h-135.080v-63.972h-251.086v63.972zM0.166-25.858q54.018-24.434 364.87-33.17 294.724 10.64 360.132 33.17h-725.004zM94.666 855.52v-75.424h185.116v75.424h-185.116zM306.62 817.806c0-20.814 17.418-37.712 38.872-37.712s38.872 16.898 38.872 37.712c0 20.814-17.418 37.712-38.872 37.712s-38.872-16.898-38.872-37.712zM476.042 817.806c0-20.814 17.418-37.712 38.872-37.712s38.874 16.898 38.874 37.712c0 20.814-17.418 37.712-38.874 37.712s-38.872-16.898-38.872-37.712zM562.4 817.806c0-20.814 17.418-37.712 38.874-37.712s38.874 16.898 38.874 37.712c0 20.814-17.418 37.712-38.874 37.712s-38.874-16.898-38.874-37.712zM38.074 931.336h658.664v-246.408h-658.664v246.408zM389.686 817.806c0-20.814 17.418-37.712 38.872-37.712s38.872 16.898 38.872 37.712c0 20.814-17.418 37.712-38.872 37.712s-38.872-16.898-38.872-37.712z" />
<glyph unicode="&#xe922;" glyph-name="kak" d="M868.515 868.442v-164.243c-2.052-3.503-7.179-3.503-12.391-4.785-35.891-8.888-72.808-14.1-109.552-18.287-34.695-4.016-69.475-7.007-104.34-9.399-10.255-0.683-20.509-1.281-30.849-1.879-0.17 0-0.17-0.085-0.343-0.085-3.163-0.17-12.134-0.683-21.535-1.196-5.811-0.343-8.545-0.683-15.637-0.941-0.598 0-1.454 0-2.563 0-4.872-0.256-8.29-0.428-8.29-0.428-4.785 0-98.187 0-102.973 0 0 0-3.418 0.17-8.29 0.428-1.026 0-1.879 0-2.563 0-7.092 0.256-9.827 0.598-15.724 0.941-9.399 0.513-18.372 1.026-21.45 1.196-0.17 0-0.256 0.085-0.343 0.085-10.34 0.598-20.594 1.196-30.849 1.879-34.78 2.392-69.645 5.298-104.34 9.399-36.745 4.272-77.252 10.255-113.228 19.056-6.751 1.709-13.33 1.111-13.33 8.801 0 10.682 0 21.363 0 31.96 0 21.363 0 42.727 0 64.005v59.135c1.709 10.938 5.383 21.107 12.647 29.31 20.424 22.731 64.688 17.261 91.948 17.006 75.713-0.683 151.511-0.854 227.309-0.768 9.912 0 19.826-0.085 29.738-0.085s19.911 0.085 29.738 0.085c75.798-0.085 151.511 0.085 227.309 0.768 27.26 0.256 67.851 4.872 88.19-17.859 6.068-6.836 9.656-15.126 11.708-24.098zM643.77 766.495c19.996 0 36.146 16.15 36.146 36.146s-16.15 36.234-36.146 36.234c-20.081 0-36.234-16.15-36.234-36.234 0-19.996 16.15-36.146 36.234-36.146zM762.040 741.629c29.738 0 53.923 24.183 53.923 54.008 0 29.738-24.183 54.008-53.923 54.008-29.823 0-54.093-24.27-54.093-54.008 0-29.823 24.27-54.008 54.093-54.008zM258.541 838.534c-23.072 0.854-42.898-18.202-42.642-40.933 0.256-21.45 19.398-40.42 40.933-40.505 21.62-0.085 40.763 18.457 41.189 40.078 0.513 21.705-17.519 40.59-39.479 41.361zM257.004 775.726c12.306 0 22.218 9.999 22.218 22.218s-9.999 22.218-22.218 22.218c-12.219 0-22.218-9.999-22.218-22.218 0-12.306 9.912-22.218 22.218-22.218zM867.747 501.16c0 46.573 0 93.145 0 139.718-43.070-9.314-86.993-15.211-130.659-19.911-30.421-3.333-60.844-5.896-91.35-7.862-16.835-1.026-33.669-1.965-50.504-2.563-7.007-0.256-13.928-0.598-20.852-1.026-4.529-0.256-113.313-0.513-116.902-0.256-5.725 0.343-11.536 0.854-17.346 1.111-13.502 0.598-27.003 1.111-40.59 1.794-51.443 2.735-102.801 7.264-153.818 14.271-31.96 4.529-64.688 9.229-95.709 18.545 0-24.012 0-48.025 0-72.037 0-57.511 0-115.022 0-172.533 0-69.304 0-138.522 0-207.826 0-59.22 0-118.525 0-177.831 0-27.516 0-55.034 0-82.464 0-2.478 23.927-6.666 26.833-7.264 18.8-4.016 37.6-7.179 56.656-10.084 53.665-7.947 107.843-12.817 162.021-15.81 124.764-7.007 250.211-3.418 374.204 12.477 21.62 2.735 43.24 5.896 64.688 9.656 8.46 1.454 16.921 3.076 25.381 4.7 1.709 0.343 3.503 0.768 5.212 1.196 2.82 0.513 2.563 0.768 2.563 3.589 0 4.614 0 9.229 0 13.843 0 42.983 0 85.968 0 128.95 0 100.153 0 200.305 0 300.458 0.17 42.3 0.17 84.771 0.17 127.156zM244.015 279.32c0 147.41 119.551 266.959 266.959 266.959s266.959-119.466 266.959-266.959-119.551-266.959-266.959-266.959c-147.495 0-266.959 119.551-266.959 266.959zM649.496 286.755c0 49.306 13.928 92.376 34.695 116.303-41.959 57.767-99.468 86.906-164.841 89.726-134.761 0-232.522-108.699-220.045-235.683 8.888-90.069 75.543-164.841 165.184-185.436 86.138-19.741 178.086 18.457 225.428 92.719-23.927 22.303-40.42 68.619-40.42 122.371z" />
<glyph unicode="&#xe923;" glyph-name="plumbing-and-drains" d="M927.724 409.546h-31.155c-0.106-0.53-0.106-1.272-0.317-1.803-0.317-0.847-0.425-1.695-0.636-2.544-4.239-16.85-8.583-42.283-12.505-73.544-5.192-40.48-9.536-90.816-10.703-146.451v-66.019c1.167-54.469 5.722-104.063 10.703-144.332 3.708-29.883 7.736-54.469 11.55-71.849 0.211-1.695 0.53-3.178 0.953-4.875 0-0.53 0.211-1.272 0.317-1.908h109.679v513.323h-77.888zM224.925 787.12h65.913c54.68 1.272 104.276 5.617 144.332 10.597 29.883 3.814 54.575 7.842 71.955 11.339 1.695 0.425 3.178 0.742 4.875 1.167 0.636 0.106 1.272 0.317 1.908 0.53v109.468h-513.323v-108.938c0.53-0.211 1.167-0.211 2.014-0.425 0.636-0.211 1.378-0.53 2.225-0.742 17.061-4.028 42.388-8.583 73.755-12.505 40.48-5.086 90.71-9.325 146.346-10.491zM834.363 114.735v67.716c1.378 65.066 6.675 117.627 10.703 150.268 1.378 10.703 2.755 20.769 4.344 30.519-101.307 0-239.389 0-344.299 0-15.894 0-31.155 0-45.355 0 0 69.305 0 162.029 0 250.092 0 55.211 0 108.727 0 153.234-1.908-0.317-4.133-0.53-6.041-0.847-3.603-0.425-7.1-0.953-10.703-1.378-16.744-2.119-34.016-3.922-51.397-5.405-3.497-0.425-7.947-0.847-13.353-1.167-0.317 0-0.53 0-0.847 0-7.1-0.425-14.2-0.953-21.405-1.378-12.292-1.167-21.194-2.331-27.764-3.497-10.28-2.225-16.639-4.875-19.18-6.253-0.636-0.317-1.167-0.53-1.695-0.847v0c-25.116-13.989-53.41-48.322-24.267-132.463 5.722-15.683 13.033-33.063 22.783-52.455 0.106-0.425 0.425-0.847 0.53-1.167 25.858-44.825 49.172-90.499 67.185-138.715 3.708-9.961 6.464-20.133 7.63-30.414 6.358-59.238-29.141-114.979-88.063-133.84-14.942-4.769-29.883-6.675-44.613-6.253-53.197 1.803-101.307 36.136-119.004 89.546-9.431 28.294-7.525 55.847 2.65 83.188 17.908 48.216 41.328 93.785 67.185 138.61 0.106 0.425 0.317 0.742 0.53 1.059 9.75 19.5 17.167 36.983 22.572 52.669h0.211c29.141 84.141 0.953 118.476-24.267 132.463v0c-0.53 0.211-1.059 0.53-1.589 0.847-0.847 0.425-2.119 1.059-3.603 1.803-3.603 1.272-8.583 2.861-15.578 4.344-1.483 0.317-3.072 0.53-4.769 0.847-5.933 0.953-13.353 1.803-22.997 2.755-7.206 0.425-14.306 0.953-21.405 1.483-0.317 0-0.53 0-0.742 0.106-5.511 0.211-9.75 0.742-13.458 1.059-17.38 1.483-34.547 3.392-51.291 5.405-3.708 0.425-7.206 0.953-10.703 1.483-1.908 0.317-4.028 0.425-5.828 0.636-0.106 0.106-0.317 0.106-0.425 0.106v0 0c0-44.508 0-97.918 0-153.234v0c0-127.060 0-254.117 0.106-381.177 0.211-169.976 117.31-286.544 288.028-286.758 171.037 0 342.18 0 513.323 0-0.742 6.253-1.695 12.505-2.436 18.864-5.933 48.005-9.75 99.294-10.703 148.148z" />
<glyph unicode="&#xe924;" glyph-name="elec" d="M442.371 63.038c-23.327 0-36.883 6.954-48.591 12.852-1.585-4.841-4.841-22.623 2.113-40.492 6.867-7.483 14.437-17.958 51.23-17.958 110.031 0 179.572 47.797 221.296 97.707 10.388 28.256-1.848 53.431-1.848 53.431-66.724-71.3-162.759-105.543-224.201-105.543zM468.516-11.783c-38.819-0.175-58.272 11.883-59.154 7.57-1.497-7.13 2.464-19.19 11.883-27.464 10.475-9.243 46.565-20.951 64.523-19.278v0c4.4-11.971 25.704-44.453 48.325-44.453 21.742 0 43.484 36.179 43.484 62.938 38.731 17.252 86.528 51.23 70.949 89.698-50.702-54.576-141.192-68.835-180.013-69.013zM852.13 611.086c-0.441 90.314-50.614 173.409-116.634 230.362-67.956 58.713-156.157 87.144-243.302 81.159-87.41-6.338-171.21-47.005-230.89-114.962-57.481-65.58-89.433-153.956-84.945-244.007 4.665-91.547 52.375-168.744 105.455-237.932 24.207-31.601 49.823-62.059 72.444-94.892 5.985-8.715 11.883-16.548 17.165-24.384 6.161-9.331 21.654-35.914 26.055-70.596 1.32-10.826 2.289-18.574 2.552-33.45 9.066-9.155 54.488-19.541 114.521 6.601 67.691 29.313 141.985 63.378 233.707 211.174 83.272 134.15 104.311 199.817 103.87 290.923zM446.773 834.581v0c-7.042-1.936-66.547-21.389-116.985-84.064-34.419-42.868-63.554-120.594-56.777-133.974-23.24 46.565-8.803 115.049 27.905 158.358 32.834 38.731 94.452 64.698 145.857 59.682 0.879 0.263 0.879 0.263 0 0z" />
<glyph unicode="&#xe925;" glyph-name="gas" d="M778.466 624.822c4.023-105.456-41.772-172.992-96.897-169.654 48.448 242.412-169.567 443.052-287.35 461.026 28.245-27.989 40.231-83.541 22.854-129.165-31.414-82.258-126.855-173.248-194.22-275.024-30.644-40.915-74.127-133.104-74.127-223.153 0-110.163 47.763-209.028 123.432-277.077 32.956-32.698 73.1-56.15 116.753-74.984 103.402-44.596 283.925-11.127 370.121 73.87 2.139 1.882 4.279 4.023 6.418 5.992-162.206-16.177-358.995 147.74-362.589 276.049-32.527-36.55-38.178-156.043 13.44-249.172 6.592-11.127 17.374-27.476 33.040-44.596-160.066 98.778-153.047 252.511-140.635 309.177 23.197 99.548 98.265 183.863 178.984 218.186-67.535-62.060-31.67-161.436 38.861-243.096-0.172 0.342-0.172 0.429-0.172 0.429 130.364-131.99 260.472-139.351 320.305-113.244 64.197 171.023-26.706 397.084-68.22 454.436z" />
<glyph unicode="&#xe927;" glyph-name="textphone" d="M512.571 44.571v0c-222.492 0-402.857 180.365-402.857 402.857s180.365 402.857 402.857 402.857c222.492 0 402.857-180.365 402.857-402.857s-180.365-402.857-402.857-402.857zM512-64c282.77 0 512 229.23 512 512s-229.23 512-512 512c-282.77 0-512-229.23-512-512s229.23-512 512-512zM420.493 308.246c0-22.125-18.475-40.325-41.135-40.325-22.595 0-41.072 18.203-41.072 40.325 0 22.125 18.475 40.325 41.072 40.325 22.657 0 41.135-18.139 41.135-40.325zM552.875 308.246c0-22.125-18.414-40.325-41.009-40.325-22.534 0-41.009 18.203-41.009 40.325 0 22.125 18.475 40.325 41.009 40.325 22.595 0 41.009-18.139 41.009-40.325zM686.84 438.654c0-22.245-18.475-40.448-41.072-40.448-22.657 0-41.197 18.203-41.197 40.448 0 22.125 18.54 40.203 41.197 40.203 22.595 0 41.072-18.079 41.072-40.203zM420.493 438.654c0-22.245-18.475-40.448-41.135-40.448-22.595 0-41.072 18.203-41.072 40.448 0 22.125 18.475 40.203 41.072 40.203 22.657 0 41.135-18.079 41.135-40.203zM552.875 438.654c0-22.245-18.414-40.448-41.009-40.448-22.534 0-41.009 18.203-41.009 40.448 0 22.125 18.475 40.203 41.009 40.203 22.595 0 41.009-18.079 41.009-40.203zM686.84 308.246c0-22.125-18.475-40.325-41.072-40.325-22.657 0-41.197 18.203-41.197 40.325 0 22.125 18.54 40.325 41.197 40.325 22.595 0 41.072-18.139 41.072-40.325zM686.84 177.96c0-22.245-18.475-40.325-41.072-40.325-22.657 0-41.197 18.079-41.197 40.325 0 22.125 18.54 40.325 41.197 40.325 22.595 0 41.072-18.139 41.072-40.325v0zM420.493 177.96c0-22.245-18.475-40.325-41.135-40.325-22.595 0-41.072 18.079-41.072 40.325 0 22.125 18.475 40.325 41.072 40.325 22.657 0 41.135-18.139 41.135-40.325v0zM552.875 177.96c0-22.245-18.414-40.325-41.009-40.325-22.534 0-41.009 18.079-41.009 40.325 0 22.125 18.475 40.325 41.009 40.325 22.595 0 41.009-18.139 41.009-40.325v0zM585.643 590.856c-0.313 0-0.687-0.122-1.062-0.122s-0.561 0.122-0.936 0.122h-142.692c-0.186 0-0.498-0.122-0.811-0.122-0.251 0-0.561 0.122-0.749 0.122-15.479 0-27.964-12.318-27.964-27.394v1.594c0-15.077 12.483-27.394 27.964-27.394 0.186 0 0.498 0.122 0.749 0.122 0.313 0 0.623-0.122 0.811-0.122h142.692c0.437 0 0.874 0.122 1.186 0.122 0.251 0 0.498-0.122 0.811-0.122 15.356 0 27.778 12.318 27.778 27.394v-1.532c0 15.015-12.422 27.333-27.778 27.333v-0.001zM512.761 646.685h166.413c8.052 0 10.985-3.555 10.985-8.948s-2.996-9.131-16.416-9.131c-4.556 0-14.544-2.574-13.919-18.447 1.311-23.167 2.809-58.588 29.837-83.47 6.304-5.883 14.795-11.889 25.779-11.889h72.906c49.747 0 49.747 25.065 49.747 101.366 0 76.422-120.346 113.622-120.346 113.622v-0.061c-46.566 16.425-126.837 26.844-204.987 26.844-78.212 0-158.421-10.48-204.987-26.844v0.061c0 0-120.346-37.2-120.346-113.622 0-76.3 0-101.366 49.747-101.366h72.845c11.050 0 19.6 6.067 25.842 11.889 26.966 24.882 28.463 60.304 29.775 83.47 0.623 15.873-9.363 18.447-13.919 18.447-13.482 0-16.479 3.799-16.479 9.131s2.934 8.948 10.985 8.948h166.536z" />
<glyph unicode="&#xe928;" glyph-name="experience-1" d="M512-64v0c-282.77 0-512 229.23-512 512s229.23 512 512 512c282.77 0 512-229.23 512-512s-229.23-512-512-512zM511.429 44.571c222.492 0 402.857 180.365 402.857 402.857s-180.365 402.857-402.857 402.857c-222.492 0-402.857-180.365-402.857-402.857s180.365-402.857 402.857-402.857v0zM600.335 603.39c32.317-8.145 55.124-22.619 55.124-63.616 0-55.647-41.691-146.189-41.691-146.189h-208.484c0 0-41.69 90.105-41.69 146.189 0 39.293 22.839 54.222 54.512 62.691-5.155-4.681-8.131-10.943-8.131-19.535 0-28.042 99.444-160.167 99.444-160.167s99.444 132.344 99.444 160.167c0 9.175-3.113 15.693-8.528 20.459v0zM535.717 619.583c-4.16 4.412-14.333 6.565-24.347 6.502 8.641-0.056 17.227-1.887 17.227-5.539 2.386-0.34 4.761-0.658 7.12-0.963v0zM500.070 625c-4.889-0.977-9.010-2.61-11.354-4.893 1.698 0.234 3.397 0.476 5.097 0.73 0 1.903 2.545 3.293 6.258 4.163v0zM381.881 695.236c0 72.959 59.239 132.193 132.205 132.193s132.205-59.234 132.205-132.193c0-72.959-59.239-132.193-132.205-132.193s-132.205 59.234-132.205 132.193zM510.763 168.705l-80.255-42.251 15.327 89.49-64.928 63.377 89.728 13.056 40.127 81.42 40.127-81.42 89.728-13.056-64.928-63.377 15.327-89.49-80.255 42.251z" />
<glyph unicode="&#xe929;" glyph-name="experience-2" d="M512-64v0c-282.77 0-512 229.23-512 512s229.23 512 512 512c282.77 0 512-229.23 512-512s-229.23-512-512-512zM511.429 44.571c222.492 0 402.857 180.365 402.857 402.857s-180.365 402.857-402.857 402.857c-222.492 0-402.857-180.365-402.857-402.857s180.365-402.857 402.857-402.857v0zM600.335 603.39c32.317-8.145 55.124-22.619 55.124-63.616 0-55.647-41.691-146.189-41.691-146.189h-208.484c0 0-41.69 90.105-41.69 146.189 0 39.293 22.839 54.222 54.512 62.691-5.155-4.681-8.131-10.943-8.131-19.535 0-28.042 99.444-160.167 99.444-160.167s99.444 132.344 99.444 160.167c0 9.175-3.113 15.693-8.528 20.459v0zM535.717 619.583c-4.16 4.412-14.333 6.565-24.347 6.502 8.641-0.056 17.227-1.887 17.227-5.539 2.386-0.34 4.761-0.658 7.12-0.963v0zM500.070 625c-4.889-0.977-9.010-2.61-11.354-4.893 1.698 0.234 3.397 0.476 5.097 0.73 0 1.903 2.545 3.293 6.258 4.163v0zM381.881 695.236c0 72.959 59.239 132.193 132.205 132.193s132.205-59.234 132.205-132.193c0-72.959-59.239-132.193-132.205-132.193s-132.205 59.234-132.205 132.193zM357.411 190.966l-80.255-42.251 15.327 89.49-64.928 63.377 89.728 13.056 40.127 81.42 40.127-81.42 89.728-13.056-64.928-63.377 15.327-89.49-80.255 42.251zM665.353 190.966l-79.491-42.251 15.181 89.49-64.309 63.377 88.873 13.056 39.745 81.42 39.745-81.42 88.873-13.056-64.309-63.377 15.181-89.49-79.491 42.251z" />
<glyph unicode="&#xe92a;" glyph-name="boiler-replacement" horiz-adv-x="725" d="M663.703 155.836c-53.535-10.879-173.501-26.23-302.303-26.23-137.988 0-256.012 16.492-304.334 28.686v-166.062c0.706-16.492 12.632-30.001 28.533-33.597 0.882-0.352 1.679-0.352 2.473-0.527 0 0 0.088-0.087 0.176-0.087 58.659-10.789 158.926-22.019 273.152-22.019 112.81 0 212.107 11.755 271.031 22.019 0.176 0 0.442 0.087 0.618 0.087 0.531 0.087 1.060 0.175 1.591 0.175 16.519 3.771 29.064 18.071 29.064 35.177v0.175c0 0 0 147.726 0 162.201l-0.001 0.002zM154.859-6.716c-30.654 0-55.566 24.738-55.566 55.178 0 30.528 24.912 55.265 55.566 55.265 30.743 0 55.744-24.738 55.744-55.265 0-30.44-25-55.178-55.744-55.178zM276.681 4.25c-20.495 0-37.279 16.579-37.279 36.931 0 20.527 16.696 37.106 37.279 37.106s37.279-16.492 37.279-37.106c0-20.265-16.696-36.931-37.279-36.931zM627.306 960h-533.933c-20.053 0-36.309-16.229-36.309-36.055 0 0-0.176-697.228-0.176-704.422 0.088 0 0.088 0 0.176 0v-0.087c0.088 0 0.088 0 0.088 0 48.41-12.369 166.345-28.598 304.246-28.598 128.802 0 240.288 15.264 293.823 26.23 2.915 0.614 5.743 1.315 8.392 2.017 0 9.738 0.088 704.949 0.088 704.949 0 19.738-16.256 35.966-36.397 35.966h0.003zM439.499 611.721l46.476 46.151-2.984 4.089c-28.501 39.052-74.369 62.353-122.694 62.353-62.66 0-118.982-38.601-141.468-96.51h-72.411c24.658 96.095 113.409 165.084 213.88 165.084 66.408 0 128.698-29.476 170.901-80.865l4.177-5.084 45.724 45.404v-140.61l-141.6-0.012zM360.296 354.37c-66.408 0-128.698 29.476-170.901 80.865l-4.177 5.084-45.724-45.404v140.622h141.6l-46.476-46.151 2.984-4.089c28.501-39.040 74.357-62.353 122.682-62.353 62.66 0 118.982 38.601 141.468 96.51h72.411c-24.646-96.095-113.397-165.084-213.868-165.084z" />
<glyph unicode="&#xe92b;" glyph-name="boiler-iq" horiz-adv-x="725" d="M663.703 155.836c-53.535-10.879-173.501-26.23-302.303-26.23-137.988 0-256.012 16.492-304.334 28.686v-166.062c0.706-16.492 12.632-30.001 28.533-33.597 0.882-0.352 1.679-0.352 2.473-0.527 0 0 0.088-0.087 0.176-0.087 58.659-10.789 158.926-22.019 273.152-22.019 112.81 0 212.107 11.755 271.031 22.019 0.176 0 0.442 0.087 0.618 0.087 0.531 0.087 1.060 0.175 1.591 0.175 16.519 3.771 29.064 18.071 29.064 35.177v0.175c0 0 0 147.726 0 162.201l-0.001 0.002zM154.859-6.716c-30.654 0-55.566 24.738-55.566 55.178 0 30.528 24.912 55.265 55.566 55.265 30.743 0 55.744-24.738 55.744-55.265 0-30.44-25-55.178-55.744-55.178zM276.681 4.25c-20.495 0-37.279 16.579-37.279 36.931 0 20.527 16.696 37.106 37.279 37.106s37.279-16.492 37.279-37.106c0-20.265-16.696-36.931-37.279-36.931zM627.306 960h-533.933c-20.053 0-36.309-16.229-36.309-36.055 0 0-0.176-697.228-0.176-704.422 0.088 0 0.088 0 0.176 0v-0.087c0.088 0 0.088 0 0.088 0 48.41-12.369 166.345-28.598 304.246-28.598 128.802 0 240.288 15.264 293.823 26.23 2.915 0.614 5.743 1.315 8.392 2.017 0 9.738 0.088 704.949 0.088 704.949 0 19.738-16.256 35.966-36.397 35.966h0.003zM200.301 676.843q0 24.144 27.087 24.144t27.087-24.144q0-11.505-6.772-17.905t-20.316-6.4q-27.087 0-27.087 24.306zM252.191 448.856h-49.769v181.157h49.769v-181.157zM524.86 567.63q0-41.806-14.931-70.081t-43.813-41.4l57.438-63.681h-64.781l-43.731 53.148h-3.753q-54.828 0-84.199 31.597t-29.372 90.741 29.453 90.336 84.444 31.192 84.118-31.435 29.127-90.417zM350.75 567.63q0-39.699 15.175-59.792t45.363-20.093q60.539 0 60.539 79.884 0 80.046-60.212 80.046-30.188 0-45.526-20.174t-15.339-59.873z" />
</font>
</defs>
</svg>
