<?xml version="1.0" standalone="no"?><!-- Generator: Gravit.io --><svg xmlns="http://www.w3.org/2000/svg" xmlns:xlink="http://www.w3.org/1999/xlink" style="isolation:isolate" width="414" height="414"><path d=" M 160.92156862745097 291.7809036658114 L 160.92156862745097 291.7809036658114 L 160.92156862745097 317.80392156862746 L 223.66666666666669 263.39215686273826 L 286.4117647058824 208.98039215686268 L 223.66666666666669 154.56862745098718 L 160.92156862745097 100.15686274509794 L 160.92156862745097 126.17988064791392 L 193.65814151747657 154.56862745098718 L 256.4032395566923 208.98039215686268 L 193.65814151747657 263.39215686273826 L 160.92156862745097 291.7809036658114 Z " fill="rgb(0,0,0)" fill-opacity="100" stroke-width="1" stroke="rgb(0,0,0)" stroke-opacity="0" stroke-linecap="butt"/><path d=" M 160.92156862745097 291.7809036658114 L 160.92156862745097 291.7809036658114 L 160.92156862745097 317.80392156862746 L 223.66666666666669 263.39215686273826 L 286.4117647058824 208.98039215686268 L 223.66666666666669 154.56862745098718 L 160.92156862745097 100.15686274509794 L 160.92156862745097 126.17988064791392 L 193.65814151747657 154.56862745098718 L 256.4032395566923 208.98039215686268 L 193.65814151747657 263.39215686273826 L 160.92156862745097 291.7809036658114 Z " fill="rgb(0,0,0)" fill-opacity="0" stroke-width="3" stroke="rgb(0,0,0)" stroke-opacity="100" stroke-linecap="butt"/><path d=" M 6.999999999999968 207.99999999999997 C 6.999999999999968 97.6169940994975 96.61699409949748 8.000000000000012 207 7.999999999999924 C 317.38300590050244 7.999999999999924 407.00000000000006 97.61699409949742 407.00000000000006 207.99999999999997 C 407.00000000000017 318.3830059005025 317.3830059005025 407.9999999999999 207 408 C 96.61699409949755 408 6.999999999999968 318.3830059005025 6.999999999999968 207.99999999999997 Z  M 16.80392156862742 208.98039215686268 C 16.80392156862742 104.00831791814956 102.02792576128678 18.78431372549027 207 18.78431372549013 C 311.9720742387131 18.784313725490172 397.1960784313725 104.00831791814952 397.1960784313726 208.98039215686268 C 397.1960784313726 313.9524663955758 311.9720742387132 399.1764705882352 207 399.1764705882353 C 102.02792576128688 399.1764705882353 16.803921568627448 313.952466395576 16.80392156862742 208.98039215686268 Z " fill-rule="evenodd" fill="rgb(0,0,0)" stroke-width="1" stroke="rgba(0,0,0,0)" stroke-linecap="butt"/></svg>