<?xml version="1.0" standalone="no"?><!-- Generator: Gravit.io --><svg xmlns="http://www.w3.org/2000/svg" xmlns:xlink="http://www.w3.org/1999/xlink" style="isolation:isolate" width="414" height="414"><path d=" M 253.0784313725491 291.7809036658114 L 253.0784313725491 291.7809036658114 L 253.0784313725491 317.80392156862746 L 190.33333333333337 263.39215686273826 L 127.58823529411768 208.98039215686268 L 190.33333333333337 154.56862745098718 L 253.0784313725491 100.15686274509794 L 253.0784313725491 126.17988064791392 L 220.3418584825235 154.56862745098718 L 157.59676044330774 208.98039215686268 L 220.3418584825235 263.39215686273826 L 253.0784313725491 291.7809036658114 Z " fill="rgb(0,0,0)" fill-opacity="100" stroke-width="1" stroke="rgb(0,0,0)" stroke-opacity="0" stroke-linecap="butt"/><path d=" M 253.0784313725491 291.7809036658114 L 253.0784313725491 291.7809036658114 L 253.0784313725491 317.80392156862746 L 190.33333333333337 263.39215686273826 L 127.58823529411768 208.98039215686268 L 190.33333333333337 154.56862745098718 L 253.0784313725491 100.15686274509794 L 253.0784313725491 126.17988064791392 L 220.3418584825235 154.56862745098718 L 157.59676044330774 208.98039215686268 L 220.3418584825235 263.39215686273826 L 253.0784313725491 291.7809036658114 Z " fill="rgb(0,0,0)" fill-opacity="0" stroke-width="3" stroke="rgb(0,0,0)" stroke-opacity="100" stroke-linecap="butt"/><path d=" M 407.0000000000001 207.99999999999997 C 407.0000000000001 97.6169940994975 317.38300590050255 8.000000000000012 207.00000000000006 7.999999999999924 C 96.61699409949762 7.999999999999924 7 97.61699409949742 7 207.99999999999997 C 6.999999999999886 318.3830059005025 96.61699409949756 407.9999999999999 207.00000000000006 408 C 317.3830059005025 408 407.0000000000001 318.3830059005025 407.0000000000001 207.99999999999997 Z  M 397.19607843137265 208.98039215686268 C 397.19607843137265 104.00831791814956 311.9720742387133 18.78431372549027 207.00000000000006 18.78431372549013 C 102.02792576128695 18.784313725490172 16.803921568627572 104.00831791814952 16.80392156862746 208.98039215686268 C 16.80392156862746 313.9524663955758 102.02792576128684 399.1764705882352 207.00000000000006 399.1764705882353 C 311.97207423871316 399.1764705882353 397.1960784313726 313.952466395576 397.19607843137265 208.98039215686268 Z " fill-rule="evenodd" fill="rgb(0,0,0)" stroke-width="1" stroke="rgba(0,0,0,0)" stroke-linecap="butt"/></svg>