<?xml version="1.0" encoding="utf-8"?>
<!-- Generated by IcoMoon.io -->
<!DOCTYPE svg PUBLIC "-//W3C//DTD SVG 1.1//EN" "http://www.w3.org/Graphics/SVG/1.1/DTD/svg11.dtd">
<svg version="1.1" xmlns="http://www.w3.org/2000/svg" xmlns:xlink="http://www.w3.org/1999/xlink" width="1024" height="1024" viewBox="0 0 1024 1024">
<g id="icomoon-ignore">
</g>
<path d="M580.943 719.722c38.211 38.211 38.097 100.025-0.2 138.315-38.097 38.097-99.943 38.211-138.162 0-38.097-38.097-38.296-100.219-0.162-138.354 38.257-38.257 100.419-38.058 138.516 0.037z"></path>
<path d="M846.869 584.171l-91.004 91.004c-66.103-63.713-152.575-98.791-244.218-98.83-91.764-0.162-178.078 34.641-243.828 98.002l-90.69-90.69c185.865-180.943 483.6-180.706 669.74 0.514z"></path>
<path d="M1023.999 407.046l-90.851 90.851c-233.89-228.93-609.083-229.406-842.458-1.033l-90.69-90.69c283.504-278.422 740.049-278.069 1024 0.876z"></path>
</svg>
