<?xml version="1.0" encoding="utf-8"?>
<!-- Generated by IcoMoon.io -->
<!DOCTYPE svg PUBLIC "-//W3C//DTD SVG 1.1//EN" "http://www.w3.org/Graphics/SVG/1.1/DTD/svg11.dtd">
<svg version="1.1" xmlns="http://www.w3.org/2000/svg" xmlns:xlink="http://www.w3.org/1999/xlink" width="1024" height="1024" viewBox="0 0 1024 1024">
<g id="icomoon-ignore">
</g>
<path d="M403.101 701.741h-55.008l-13.748-421.145q0-55.776 40.544-55.776 43.424 0 43.424 54.961l-15.2 421.943zM413.233 758.327q0 16.16-10.848 28.292t-26.063 12.128q-14.481 0-25.329-12.128t-10.848-28.292q0-16.982 10.848-29.091t25.329-12.128q15.2 0 26.063 12.128t10.848 29.091zM645.577 702.56h-78.89v-75.168q0-37.183 10.496-69.92t22.807-51.329 30.753-44.064 26.415-39.2q15.2-27.488 15.2-49.312 0-4.045-0.733-8.092-3.616-25.056-18.087-40.017t-31.135-14.944q-28.231 0-41.981 16.16t-13.748 42.025h-81.060q0-60.631 33.655-101.856t95.19-41.228q37.642 0 69.856 21.824t50.307 54.961q18.087 32.339 18.087 74.365 0 43.651-24.608 83.255-13.024 21.024-31.84 43.651t-27.5 34.761-15.567 40.416-7.593 72.74v50.915zM641.969 758.327q0 16.16-10.848 28.292t-26.063 12.128q-14.481 0-25.329-12.128t-10.848-28.292q0-16.982 10.848-29.091t25.329-12.128q15.2 0 26.063 12.128t10.848 29.091z"></path>
<path d="M0 512c0 282.591 229.409 512 512 512s512-229.409 512-512c0-282.591-229.409-512-512-512s-512 229.409-512 512zM66.956 512.426c0-245.857 199.61-445.472 445.472-445.472s445.472 199.61 445.472 445.472c0 245.857-199.61 445.472-445.472 445.472s-445.472-199.61-445.472-445.472z"></path>
</svg>
