<?xml version="1.0" standalone="no"?>
<!DOCTYPE svg PUBLIC "-//W3C//DTD SVG 1.1//EN" "http://www.w3.org/Graphics/SVG/1.1/DTD/svg11.dtd" >
<svg xmlns="http://www.w3.org/2000/svg" xmlns:xlink="http://www.w3.org/1999/xlink" version="1.1" viewBox="0 -64 1024 1024">
  <g transform="matrix(1 0 0 -1 0 960)">
   <path fill="currentColor"
d="M278.048 880.515v-869.884h565.425v869.884h-565.425zM307.429 850.816h506.665v-811.76h-506.665zM452.045 957.885v-1008l488.784 64.704v864.973l-488.784 78.324zM497.323 456.354q0 15.3391 7.19355 26.1991q7.19355 10.8599 17.3545 10.8599
q10.1611 0 17.3546 -10.8594q7.19343 -10.8594 7.19343 -26.1996q0 -15.3391 -7.19355 -26.1991t-17.3545 -10.8599q-17.2366 0 -23.0952 24.4791q-1.34278 6.61963 -1.4528 12.5799zM243.532 537.175h-221.615v-149.377h222.931l0.768 -87.206l187.079 165.573
l-189.931 158.219l0.768 -87.206z" />
  </g>

</svg>
