<!-- Generated by IcoMoon.io -->
<svg version="1.1" xmlns="http://www.w3.org/2000/svg" width="32" height="32" viewBox="0 0 32 32">
<title>hema-icon-adapt-rsl</title>
<path d="M29.156 0h-26.311c-1.571 0-2.844 1.274-2.844 2.844v26.311c0 1.571 1.274 2.844 2.844 2.844h26.311c1.571 0 2.844-1.273 2.844-2.844v-26.311c0-1.571-1.273-2.844-2.844-2.844zM8.924 21.71l-2.844-4.146h-1.735v4.146h-2.268v-10.873c-0.003-0.022-0.004-0.047-0.004-0.072 0-0.152 0.055-0.291 0.147-0.398 0.114-0.081 0.257-0.131 0.411-0.131 0.025 0 0.050 0.001 0.075 0.004l4.335-0q2.183 0 3.143 0.882c0.599 0.642 0.967 1.506 0.967 2.457 0 0.111-0.005 0.222-0.015 0.33 0.006 0.057 0.009 0.141 0.009 0.225 0 0.825-0.27 1.587-0.726 2.203-0.48 0.559-1.175 0.937-1.959 1.006l3.061 4.367zM20.203 21.127c-0.836 0.503-1.845 0.8-2.923 0.8-0.16 0-0.319-0.007-0.475-0.019 0.008 0.001-0.008 0.001-0.023 0.001-1.419 0-2.789-0.21-4.081-0.602l0.099-1.78c1.142 0.387 2.458 0.611 3.825 0.612 0.081 0.007 0.174 0.012 0.268 0.012 0.557 0 1.080-0.147 1.533-0.404 0.305-0.255 0.507-0.651 0.507-1.094 0-0.035-0.001-0.070-0.004-0.105 0.002-0.017 0.003-0.043 0.003-0.068 0-0.359-0.173-0.678-0.44-0.878-0.331-0.228-0.712-0.411-1.12-0.529q-0.739-0.213-1.521-0.405c-0.567-0.138-1.064-0.33-1.528-0.579-0.429-0.23-0.814-0.565-1.111-0.969-0.299-0.455-0.473-1.001-0.473-1.588 0-0.058 0.002-0.115 0.005-0.172-0.008-0.072-0.013-0.164-0.013-0.257 0-0.928 0.436-1.753 1.115-2.283 0.827-0.498 1.818-0.79 2.877-0.79 0.121 0 0.241 0.004 0.359 0.011-0.009-0.001 0-0.001 0.009-0.001 0.515 0 1.022 0.031 1.521 0.091q0.651 0.079 1.305 0.215c0.247 0.032 0.466 0.134 0.642 0.286 0.080 0.119 0.128 0.268 0.128 0.428 0 0.019-0.001 0.038-0.002 0.057l0 1.256c-0.476-0.156-1.060-0.299-1.659-0.402-0.587-0.097-1.175-0.146-1.775-0.146-0.006 0-0.011 0-0.017 0-0.077-0.007-0.167-0.011-0.258-0.011-0.542 0-1.050 0.141-1.491 0.389-0.295 0.234-0.494 0.608-0.494 1.028 0 0.036 0.001 0.072 0.004 0.107-0.001 0.003-0.001 0.013-0.001 0.022 0 0.367 0.198 0.687 0.493 0.86 0.336 0.212 0.719 0.384 1.126 0.5q0.742 0.214 1.532 0.399c0.567 0.131 1.068 0.326 1.53 0.584 0.436 0.245 0.821 0.595 1.116 1.012 0.299 0.471 0.473 1.032 0.473 1.633 0 0.050-0.001 0.099-0.004 0.149 0.011 0.091 0.018 0.204 0.018 0.319 0 0.928-0.416 1.759-1.073 2.316zM30.478 21.71h-7.41v-10.873c-0.003-0.022-0.004-0.047-0.004-0.072 0-0.152 0.055-0.291 0.147-0.398 0.114-0.081 0.257-0.131 0.411-0.131 0.025 0 0.050 0.001 0.075 0.004l1.633-0v9.728h5.134z"></path>
<path d="M8.42 12.416c-0.385-0.299-0.875-0.48-1.408-0.48-0.078 0-0.155 0.004-0.23 0.011l-2.437-0.001v3.911h2.446c0.066 0.007 0.143 0.011 0.221 0.011 0.532 0 1.023-0.181 1.413-0.484 0.3-0.345 0.487-0.805 0.487-1.309 0-0.064-0.003-0.126-0.009-0.188 0.006-0.045 0.009-0.107 0.009-0.169 0-0.5-0.186-0.957-0.493-1.304z"></path>
</svg>
