<?xml version="1.0" standalone="no"?>
<!DOCTYPE svg PUBLIC "-//W3C//DTD SVG 1.1//EN" "http://www.w3.org/Graphics/SVG/1.1/DTD/svg11.dtd" >
<svg xmlns="http://www.w3.org/2000/svg" xmlns:xlink="http://www.w3.org/1999/xlink" version="1.1" viewBox="0 -64 1024 1024">
  <g transform="matrix(1 0 0 -1 0 960)">
   <path fill="currentColor"
d="M43.407 586.107q-17.2587 3.42374 -28.6478 17.1395q-11.3892 13.7158 -11.3892 31.6695v242.658q0 27.1426 22.879 41.872v-201.695h22.879v209.424q1.9893 0.158 4.004 0.158h22.687v-209.585h22.879v209.585h26.5h0.191v-205.307h22.879v199.64
q26.691 -14.0043 26.691 -44.092v-242.658q0 -17.9543 -11.3887 -31.6694q-11.3887 -13.7151 -28.6483 -17.1396v-611.934q0 -12.6673 -8.96704 -21.6342q-8.96704 -8.96684 -21.634 -8.96684h-30.311q-12.6673 0 -21.6342 8.96704q-8.96684 8.96704 -8.96684 21.634
v611.934h-0.002zM938.185 536.008h34.921q11.7203 0 20.0081 -8.28787t8.28787 -20.0081v-535.845q0 -11.7203 -8.28787 -20.0081q-8.28787 -8.28787 -20.0081 -8.28787h-34.921q-11.7203 0 -20.0081 8.28787t-8.28787 20.0081v535.845q0 11.7203 8.28787 20.0081
t20.0081 8.28787zM909.559 448.239q-32.062 150.978 -30.055 248.677q3.04822 148.303 26.299 197.479q6.52775 13.8086 18.8922 23.6476q12.3645 9.83893 22.4328 9.26545q33.8678 -1.92798 45.082 -43.885q8.519 -31.871 18.785 -343.759l-11.271 -113.368z
M213.088 416.389q0 -129.425 91.622 -221.047q91.622 -91.6222 221.047 -91.6222q129.425 0 221.047 91.6219t91.6219 221.047q0 129.425 -91.622 221.047q-91.622 91.6222 -221.047 91.6222q-129.425 0 -221.047 -91.6219q-91.6219 -91.6219 -91.6219 -221.047z
M289.019 416.389q0 97.9508 69.3406 167.291t167.291 69.3406t167.291 -69.3406q69.3406 -69.3406 69.3406 -167.291q0 -97.9507 -69.3406 -167.291t-167.291 -69.3406q-97.9508 0 -167.291 69.3406q-69.3406 69.3406 -69.3406 167.291zM738.285 416.389
q0 -87.2434 -61.6897 -148.933t-148.932 -61.6893q-87.2422 0 -148.932 61.6899t-61.6899 148.932q0 87.2434 61.6897 148.933q61.6897 61.6893 148.932 61.6893q95.6931 0 158.695 -72.1344q51.5092 -60.1204 51.9273 -138.488z" />
  </g>

</svg>
