<?xml version="1.0" standalone="no"?>
<!DOCTYPE svg PUBLIC "-//W3C//DTD SVG 1.1//EN" "http://www.w3.org/Graphics/SVG/1.1/DTD/svg11.dtd" >
<svg xmlns="http://www.w3.org/2000/svg" xmlns:xlink="http://www.w3.org/1999/xlink" version="1.1" viewBox="0 -64 1024 1024">
  <g transform="matrix(1 0 0 -1 0 960)">
   <path fill="currentColor"
d="M670.967 173.938q-11.7033 -11.5699 -27.147 -5.911l-105.574 38.66q-10.1673 3.72385 -14.7452 13.6003q-4.57793 9.87646 -0.876786 20.1047l4.058 11.214q3.70125 10.2293 13.5176 14.8346q9.81638 4.60537 19.9834 0.882371l60.481 -22.146v106.666
q0 12.3248 8.67216 21.0504q8.67216 8.72559 20.9218 8.72559h4.947q12.2506 0 20.9223 -8.72492q8.6717 -8.72492 8.6717 -21.0511v-152.796q0 -16.4421 -13.832 -25.107zM279.726 395.202h112.279q14.2009 20.2158 31.332 38.038h-15.14v65.207h91.818v-6.411
q6.13146 3.36784 12.301 6.411q12.4969 6.17174 25.506 11.223q55.065 21.38 114.573 21.38q13.5638 0 27.004 -1.137v202.195h-448.282v-233.66h139.272v-65.207h-90.665v65.207h-48.608v-326.038h104.843q-2.224 18.901 -2.224 38.038h-54.009v70.641h61.785
q4.33754 19.3699 11.03 38.038h-72.814v76.074zM419.923 554.168h-28.52v78.564l0.276 12.907l0.463 14.115q-7.108 -7.151 -9.877 -9.38l-15.506 -12.537l-13.753 17.274l43.474 34.824h23.444v-135.769zM551.639 554.168h-94.333v19.967l33.875 34.454
q15.046 15.508 19.66 21.499q4.614 5.991 6.646 11.098t2.031 10.587q0 8.172 -4.476 12.165t-11.952 3.995q-7.846 0 -15.23 -3.622t-15.414 -10.308l-15.506 18.482q9.969 8.542 16.523 12.072t14.308 5.432t17.353 1.904q12.644 0 22.337 -4.642t15.046 -13.002
t5.353 -19.13q0 -9.38 -3.278 -17.599t-10.153 -16.855t-24.228 -24.609l-17.353 -16.437v-1.299h58.797v-24.145zM695.596 835.353h86.42v-331.978q-28.7199 12.8984 -59.41 19.855v252.349h-534.697v-657.51h159.277q9.30393 -31.1173 24.704 -59.773h-248.791v777.057
h81.02l-0.004 0.683v63.843q0 19.4019 13.6513 33.1359q13.6513 13.7341 32.9367 13.7341h4.045q19.2837 0 32.9359 -13.7351q13.6521 -13.7351 13.6521 -33.1349v-63.843q0 -0.229 -0.004 -0.683h297.064q-0.004 0.454 -0.004 0.683v63.843q0 19.4019 13.6513 33.1359
q13.6513 13.7341 32.9367 13.7341h4.045q19.2837 0 32.9359 -13.7351q13.6521 -13.7351 13.6521 -33.1349v-63.843q0 -0.229 -0.004 -0.683h-0.013zM376.944 211.806q0 -74.122 36.3384 -137.029q36.3384 -62.9071 98.8638 -99.4675q62.5254 -36.5604 136.198 -36.5604
q112.342 0 191.871 80.0148q79.5292 80.0148 79.5292 193.042q0 113.027 -79.5292 193.042q-79.5292 80.0148 -191.871 80.0148t-191.871 -80.0148q-79.5292 -80.0148 -79.5292 -193.042zM428.792 212.106q0 91.5353 64.4058 156.335q64.4058 64.7994 155.385 64.7994
t155.385 -64.7994q64.4058 -64.7994 64.4058 -156.335q0 -44.9573 -17.4179 -85.9057q-17.4179 -40.9484 -46.8536 -70.564q-29.4356 -29.6155 -70.1354 -47.1399t-85.3841 -17.5244q-98.6895 0 -164.356 74.374q-55.4354 62.7867 -55.4354 146.76z" />
  </g>

</svg>
