<?xml version="1.0" standalone="no"?>
<!DOCTYPE svg PUBLIC "-//W3C//DTD SVG 1.1//EN" "http://www.w3.org/Graphics/SVG/1.1/DTD/svg11.dtd" >
<svg xmlns="http://www.w3.org/2000/svg" xmlns:xlink="http://www.w3.org/1999/xlink" version="1.1" viewBox="0 -64 1024 1024">
  <g transform="matrix(1 0 0 -1 0 960)">
   <path fill="currentColor"
d="M211.769 630.957l691.591 -691.591l113.248 113.248l-691.591 691.591zM895.807 122.163l30.17 -30.17q8.55 -8.55 8.55 -20.6546q0 -12.1046 -8.55 -20.6554l-19.457 -19.457q-8.55 -8.55 -20.6546 -8.55q-12.1046 0 -20.6554 8.55l-30.17 30.17
q-8.55 8.55 -8.55 20.6546t8.55 20.6554l19.457 19.457q8.55 8.55 20.6546 8.55q12.1046 0 20.6554 -8.55zM702.809 744.205l-687.569 -691.591l112.59 -113.248l687.569 691.591zM101.024 86.979l21.708 21.835q10.2165 10.2757 24.6792 10.2757t24.6778 -10.2757
l11.057 -11.121q10.2165 -10.2758 10.2165 -24.823q0 -14.5472 -10.2165 -24.823l-21.708 -21.835q-10.2165 -10.2758 -24.6792 -10.2758t-24.6778 10.2758l-11.057 11.121q-10.2165 10.2757 -10.2165 24.823q0 14.5473 10.2165 24.823zM890.306 939.205
q-45.5079 15.7504 -95.0021 4.386t-85.5349 -47.583q-51.8138 -52.071 -51.8138 -125.794t51.8138 -125.794t125.173 -52.071t125.173 52.071q36.0386 36.2173 47.3471 85.9572t-4.36312 95.4748l-107.44 -107.975q-12.6075 -12.669 -30.455 -12.669
q-17.8475 0 -30.452 12.669l-51.886 52.143q-12.6075 12.669 -12.6075 30.6054q0 17.9364 12.6075 30.6046zM19.391 825.853q-15.672 -45.7344 -4.36388 -95.474t47.3479 -85.958q51.8145 -52.071 125.173 -52.071q73.3589 0 125.173 52.071
q51.8139 52.0712 51.8141 125.794t-51.8141 125.794q-36.0389 36.2176 -85.5326 47.5823t-95.0044 -4.38525l107.44 -107.975q12.6075 -12.669 12.6075 -30.6054q0 -17.9364 -12.6075 -30.6046l-51.886 -52.143q-12.6075 -12.669 -30.455 -12.669t-30.452 12.669z
M343.671 440.327l169.903 170.744l169.903 -170.744l-169.903 -170.744z" />
  </g>

</svg>
