<?xml version="1.0" standalone="no"?>
<!DOCTYPE svg PUBLIC "-//W3C//DTD SVG 1.1//EN" "http://www.w3.org/Graphics/SVG/1.1/DTD/svg11.dtd" >
<svg xmlns="http://www.w3.org/2000/svg" xmlns:xlink="http://www.w3.org/1999/xlink" version="1.1" viewBox="0 -64 1025 1024">
  <g transform="matrix(1 0 0 -1 0 960)">
   <path fill="currentColor"
d="M811.584 667.89q-16.0045 -14.566 -22.3864 -35.7099t-0.55462 -42.8571q8.37599 -31.2157 36.1772 -47.3229t58.6968 -7.64413q30.8953 8.46294 46.8367 36.5531t7.56533 59.3069q-5.82742 21.7131 -21.9056 36.7041t-37.1724 19.3939l14.07 -52.436
q3.40421 -12.6838 -3.07357 -24.0974t-19.0314 -14.8516l-6.602 -1.809q-12.5533 -3.43945 -23.8493 3.10568q-11.2959 6.54513 -14.6987 19.2293l-14.07 52.436zM840.286 554.767l114.692 -420.338l69.27 18.661l-114.692 420.338zM959.249 181.25l-0.414 1.515
q-2.36846 8.67735 1.40133 16.2882q3.76979 7.61081 11.4627 9.68384q7.69297 2.07306 14.8151 -2.60322t9.48986 -13.3558l0.414 -1.515q2.36846 -8.67735 -1.40133 -16.2882q-3.76979 -7.61081 -11.4627 -9.68384q-7.69297 -2.07306 -14.8151 2.60322t-9.48986 13.3558z
M0.248 95.559l3.301 732.865h319.049q1.58511 0.042 3.426 0.042q36.5374 0 67.8113 -17.3168q31.2739 -17.3168 50.5277 -46.8212q22.492 -32.1618 65.668 -89.7558q43.176 -57.594 75.106 -99.1071l31.93 -41.5131q143.743 -57.5143 193.918 -86.187
q22.344 -12.7684 34.913 -30.7242q12.569 -17.9558 13.966 -29.5273l1.397 -11.5715l7.186 -215.457q-0.367694 -26.982 -19.572 -45.9505q-19.2043 -18.9685 -46.211 -18.9685q-3.16619 0 -6.302 0.298l-38.52 -0.02q9.983 27.1644 9.983 57.81q0 71.3986 -50.4872 121.887
q-50.4872 50.4882 -121.888 50.4882q-71.4015 0 -121.888 -50.4868t-50.4868 -121.888q0 -30.5592 10.365 -59.01l-433.195 0.916zM595.529 31.205q-50.5751 0 -86.337 35.7615q-35.762 35.7615 -35.762 86.3375q0 50.5763 35.7614 86.3376q35.7614 35.7614 86.3376 35.7614
q50.5751 0 86.337 -35.7615q35.762 -35.7615 35.762 -86.3375q0 -50.5762 -35.7614 -86.3376t-86.3376 -35.7614zM545.253 541.143q0 16.6423 -64.8185 94.4489q-64.8185 77.8066 -101.09 114.407q-6.50533 6.609 -15.773 6.609h-0.032h-148.671
q-1.06404 -1.06404 -7.44826 0.531963t-13.8325 -5.85226t-7.44826 -23.4087v-179.557q0.00630852 -2.41304 0.799605 -5.99001q0.793296 -3.57697 7.97712 -9.56698q7.18383 -5.99001 19.9523 -5.99001h308.838q21.547 0.0281627 21.547 14.363l-0.002 0.005z
M608.945 530.325q153.382 196.347 155.108 197.201q29.677 14.672 67.871 21.503l4.18 -20.905l-62.714 -20.905l-142.153 -188.142l-22.294 11.249z" />
  </g>

</svg>
