<!-- Generated by IcoMoon.io -->
<svg version="1.1" xmlns="http://www.w3.org/2000/svg" width="32" height="32" viewBox="0 0 32 32">
<title>hema-icon-adapt-na</title>
<path d="M31.559 12.281c-1.74-7.093-8.040-12.273-15.551-12.281-1.326 0.001-2.613 0.161-3.844 0.464-6.982 1.72-12.16 8.023-12.16 15.536 0 8.828 7.149 15.986 15.973 16 1.326-0 2.614-0.161 3.845-0.464 6.989-1.714 12.174-8.022 12.174-15.54 0-1.318-0.159-2.6-0.46-3.825zM24 23.772c-1.433 1.483-3.271 2.566-5.336 3.071-0.857 0.211-1.753 0.323-2.676 0.323-6.162 0-11.157-4.995-11.157-11.157 0-1.302 0.223-2.552 0.633-3.713zM7.986 8.228c1.433-1.483 3.271-2.566 5.336-3.071 0.858-0.212 1.755-0.324 2.679-0.324 2.16 0 4.177 0.615 5.884 1.68 3.164 1.968 5.271 5.476 5.271 9.476 0 1.303-0.224 2.554-0.634 3.716z"></path>
</svg>
