<?xml version="1.0" standalone="no"?>
<!DOCTYPE svg PUBLIC "-//W3C//DTD SVG 1.1//EN" "http://www.w3.org/Graphics/SVG/1.1/DTD/svg11.dtd" >
<svg xmlns="http://www.w3.org/2000/svg" xmlns:xlink="http://www.w3.org/1999/xlink" version="1.1" viewBox="0 -70 1024 1024">
  <g transform="matrix(1 0 0 -1 0 960)">
   <path fill="currentColor"
d="M833.268 707.395q-30.558 4.59658 -51.0665 28.4924t-20.5085 55.7296q0 2.148 0.113 4.973q-12.713 5.57328 -12.713 13.375q0 5.25779 6.219 9.767q34.1727 -10.113 90.165 -10.113q56.2183 0 90.415 10.181q6.307 -4.53777 6.307 -9.835q0 -7.80172 -12.713 -13.375
q0.113 -2.82671 0.113 -4.973q0 -31.9494 -20.6424 -55.8836q-20.6424 -23.9342 -51.3466 -28.3824q-5.45653 -2.935 -12.132 -2.935q-6.72635 0 -12.209 2.978zM938.294 856.401q-3.4598 41.3391 -30.0705 69.562t-62.7465 28.223q-36.0939 0 -62.6908 -28.1636
q-26.5969 -28.1636 -30.1112 -69.4414q-20.724 -6.09632 -20.724 -15.27q0 -10.6965 33.316 -18.2688q33.316 -7.57223 80.379 -7.57223q47.0638 0 80.3794 7.57194q33.3156 7.57194 33.3156 18.2691q0 8.37101 -21.046 15.089zM915.897 429.984h23.295
q16.6479 0 28.4334 11.8179q11.7856 11.8179 11.7856 28.5121v181.443q0 16.6937 -11.7854 28.5119t-28.4336 11.8181h-187.094q-16.6479 0 -28.4334 -11.8179q-11.7856 -11.8179 -11.7856 -28.5121v-181.443q0 -16.6937 11.7854 -28.5119t28.4336 -11.8181h23.295v-215.848
h140.505v215.848h-0.001zM162.901 707.395q-30.558 4.59658 -51.0665 28.4924q-20.5085 23.8958 -20.5085 55.7296q0 2.148 0.113 4.973q-12.713 5.57328 -12.713 13.375q0 5.25779 6.219 9.767q34.1727 -10.113 90.165 -10.113q56.2183 0 90.415 10.181
q6.307 -4.53777 6.307 -9.835q0 -7.80172 -12.713 -13.375q0.113 -2.82671 0.113 -4.973q0 -31.9494 -20.6424 -55.8836t-51.3466 -28.3824q-5.45653 -2.935 -12.132 -2.935q-6.72635 0 -12.209 2.978zM267.928 856.401q-3.4598 41.3391 -30.0705 69.562
q-26.6107 28.223 -62.7465 28.223q-36.0939 0 -62.6908 -28.1636q-26.5969 -28.1636 -30.1112 -69.4414q-20.724 -6.09632 -20.724 -15.27q0 -10.6965 33.316 -18.2688t80.379 -7.57223q47.0638 0 80.3794 7.57194q33.3156 7.57194 33.3156 18.2691
q0 8.37101 -21.046 15.089zM245.532 429.984h23.295q16.6479 0 28.4334 11.8179q11.7856 11.8179 11.7856 28.5121v181.443q0 16.6937 -11.7854 28.5119q-11.7854 11.8181 -28.4336 11.8181h-187.094q-16.6479 0 -28.4334 -11.8179q-11.7856 -11.8179 -11.7856 -28.5121
v-181.443q0 -16.6937 11.7854 -28.5119q11.7854 -11.8181 28.4336 -11.8181h23.295v-215.848h140.505v215.848h-0.001zM498.084 423.446q-30.558 4.59658 -51.0665 28.4924q-20.5085 23.8958 -20.5085 55.7296q0 2.148 0.113 4.973q-12.713 5.57328 -12.713 13.375
q0 5.25779 6.219 9.767q34.1727 -10.113 90.165 -10.113q56.2183 0 90.415 10.181q6.307 -4.53777 6.307 -9.835q0 -7.80172 -12.713 -13.375q0.113 -2.82671 0.113 -4.973q0 -31.9494 -20.6424 -55.8836q-20.6424 -23.9342 -51.3466 -28.3824
q-5.45653 -2.935 -12.132 -2.935q-6.72635 0 -12.209 2.978zM603.111 572.452q-3.4598 41.3391 -30.0705 69.562t-62.7465 28.223q-36.0939 0 -62.6908 -28.1636q-26.5969 -28.1636 -30.1112 -69.4414q-20.724 -6.09632 -20.724 -15.27q0 -10.6965 33.316 -18.2688
q33.316 -7.57223 80.379 -7.57223q47.0638 0 80.3794 7.57194q33.3156 7.57194 33.3156 18.2691q0 8.37101 -21.046 15.089zM580.715 146.034h23.295q16.6479 0 28.4334 11.8179q11.7856 11.8179 11.7856 28.5121v181.443q0 16.6937 -11.7854 28.5119t-28.4336 11.8181
h-187.094q-16.6479 0 -28.4334 -11.8179q-11.7856 -11.8179 -11.7856 -28.5121v-181.443q0 -16.6937 11.7854 -28.5119t28.4336 -11.8181h23.295v-215.848h140.505v215.848h-0.001z" />
  </g>

</svg>
