<!-- Generated by IcoMoon.io -->
<svg version="1.1" xmlns="http://www.w3.org/2000/svg" width="32" height="32" viewBox="0 0 32 32">
<title>hema-icon-adapt-sl</title>
<path d="M29.156 0h-26.311c-1.571 0-2.844 1.274-2.844 2.844v26.311c0 1.571 1.274 2.844 2.844 2.844h26.311c1.571 0 2.844-1.273 2.844-2.844v-26.311c0-1.571-1.273-2.844-2.844-2.844zM14.763 21.49c-0.835 0.503-1.844 0.801-2.922 0.801-0.163 0-0.324-0.007-0.483-0.020 0.002 0.002-0.020 0.002-0.043 0.002-1.402 0-2.755-0.205-4.032-0.587l0.099-1.774c1.142 0.387 2.458 0.611 3.825 0.612 0.081 0.007 0.174 0.012 0.268 0.012 0.557 0 1.080-0.147 1.533-0.404 0.306-0.255 0.509-0.651 0.509-1.095 0-0.045-0.002-0.089-0.006-0.133 0.001-0.012 0.002-0.032 0.002-0.052 0-0.368-0.182-0.694-0.46-0.893-0.334-0.227-0.717-0.407-1.128-0.522q-0.739-0.213-1.521-0.405c-0.567-0.138-1.064-0.331-1.528-0.579-0.428-0.23-0.813-0.565-1.111-0.969-0.299-0.455-0.473-1.001-0.473-1.588 0-0.058 0.002-0.115 0.005-0.172-0.008-0.072-0.013-0.164-0.013-0.257 0-0.928 0.436-1.753 1.115-2.283 0.828-0.499 1.82-0.792 2.88-0.792 0.13 0 0.259 0.004 0.386 0.013-0.010-0.001-0.001-0.001 0.008-0.001 0.515 0 1.022 0.031 1.521 0.091q0.651 0.079 1.305 0.215c0.247 0.032 0.466 0.134 0.642 0.286 0.080 0.119 0.128 0.268 0.128 0.428 0 0.019-0.001 0.038-0.002 0.057l0 1.249c-0.483-0.155-1.076-0.297-1.682-0.395-0.585-0.096-1.173-0.145-1.773-0.145-0.005 0-0.011 0-0.017 0-0.077-0.007-0.167-0.011-0.258-0.011-0.542 0-1.050 0.141-1.491 0.389-0.295 0.234-0.494 0.608-0.494 1.028 0 0.036 0.001 0.072 0.004 0.107-0.001 0.012-0.002 0.031-0.002 0.050 0 0.353 0.183 0.662 0.46 0.839 0.335 0.212 0.718 0.384 1.125 0.5q0.742 0.214 1.532 0.399c0.568 0.131 1.068 0.326 1.53 0.584 0.448 0.234 0.845 0.574 1.152 0.986 0.299 0.47 0.473 1.031 0.473 1.632 0 0.057-0.002 0.113-0.005 0.169 0.011 0.088 0.017 0.199 0.017 0.311 0 0.928-0.416 1.759-1.072 2.315zM25.038 22.044h-7.41v-10.852c-0.003-0.022-0.004-0.047-0.004-0.072 0-0.152 0.055-0.291 0.147-0.398 0.114-0.081 0.257-0.131 0.411-0.131 0.025 0 0.050 0.001 0.075 0.004l1.654-0v9.728h5.134z"></path>
</svg>
