<?xml version="1.0" standalone="no"?><!-- Generator: Gravit.io --><svg xmlns="http://www.w3.org/2000/svg" xmlns:xlink="http://www.w3.org/1999/xlink" style="isolation:isolate" width="414" height="414"><path d=" M 125.01350407359465 165.52040060881714 L 152.80181259787278 133.25060371640643 L 349.86975605577106 302.9506124059866 L 322.0814475314929 335.2204092983973 L 125.01350407359465 165.52040060881714 Z  M 316.46143911580384 286.8991634566672 L 325.05875951482426 294.302525570357 C 328.30704594208225 297.09970417414013 328.6732882669595 302.0078548483533 325.8761096631764 305.2561412756089 L 321.10157552411204 310.8006761935538 C 318.3043969203369 314.04896262080547 313.3962462461237 314.41520494568266 310.1479598188706 311.61802634190514 L 301.5506394198493 304.21466422820527 C 298.3023529925962 301.41748562442496 297.93611066771894 296.50933495021184 300.73328927149714 293.26104852295316 L 305.5078234105622 287.7165136050186 C 308.3050020143414 284.4682271777597 313.2131526885546 284.1019848528825 316.46143911580384 286.8991634566672 Z " fill-rule="evenodd" fill="rgb(11,11,11)" fill-opacity="100" stroke-width="1" stroke="rgb(0,0,0)" stroke-opacity="0" stroke-linejoin="miter" stroke-linecap="butt"/><path d=" M 67.51085843427481 112.30885874972634 C 63.39023088839064 129.07683827991139 68.58741082649385 147.52822346483612 82.49830554508361 159.5673415529493 C 102.19068419704723 176.6100175865773 131.93555335386802 174.3904789545632 148.88051230331618 154.61395374003106 C 165.82547125276434 134.83742852549895 163.594915079189 104.94490916451326 143.9025364272254 87.9022331308854 C 129.9916417086357 75.8631150427722 111.06440146246513 73.43613479677956 95.17650091963546 80.02018352659869 L 125.80208303393499 106.52494882386915 C 130.59317375753824 110.67137564681408 131.13586073259586 117.94412721480762 127.01320815367836 122.75569051932507 L 114.28701261041246 137.6084811219638 C 110.16436003149488 142.42004442648116 102.92753127217756 142.96005086994174 98.13644054857434 138.81362404699684 L 67.51085843427481 112.30885874972634 Z " fill="rgb(11,11,11)" stroke-width="1" stroke="rgba(0,0,0,0)" stroke-linejoin="miter" stroke-linecap="butt"/><path d=" M 0 207 C 0 321.250658203125 92.749341796875 414 207 414 C 321.250658203125 414 414 321.250658203125 414 207 C 414 92.749341796875 321.250658203125 0 207 0 C 92.749341796875 0 0 92.749341796875 0 207 Z  M 27.070505859374997 207.17182617187498 C 27.070505859374997 107.77260937499999 107.772205078125 27.06888867187499 207.173443359375 27.06888867187499 C 306.574681640625 27.06888867187499 387.27638085937497 107.770587890625 387.27638085937497 207.17182617187498 C 387.27638085937497 306.57104296874996 306.574681640625 387.27476367187495 207.173443359375 387.27476367187495 C 107.772205078125 387.27476367187495 27.070505859374997 306.57306445312497 27.070505859374997 207.17182617187498 Z " fill-rule="evenodd" fill="rgb(0,0,0)" stroke-width="1" stroke="rgba(0,0,0,0)" stroke-linejoin="miter" stroke-linecap="butt"/><path d=" M 324.0000000000001 69.00000000000001 Q 332.0437878215022 76.34563273117895 336.0000000000001 81.00000000000003 Q 340.5565717557155 86.36067265378284 346.0000000000001 92.00000000000001 L 92.00000000000001 346.0000000000001 L 79.00000000000003 334.00000000000006 L 66.00000000000001 320.0000000000001 L 324.0000000000001 69.00000000000001 Z " fill="rgb(0,0,0)" stroke-width="1" stroke="rgba(0,0,0,0)" stroke-linejoin="miter" stroke-linecap="butt"/></svg>