<?xml version="1.0" standalone="no"?>
<!DOCTYPE svg PUBLIC "-//W3C//DTD SVG 1.1//EN" "http://www.w3.org/Graphics/SVG/1.1/DTD/svg11.dtd" >
<svg xmlns="http://www.w3.org/2000/svg" xmlns:xlink="http://www.w3.org/1999/xlink" version="1.1" viewBox="0 -64 1024 1024">
  <g transform="matrix(1 0 0 -1 0 960)">
   <path fill="currentColor"
d="M295.249 729.741l-80.359 -96.125l308.58 -390.91l308.58 390.91l-77.146 96.125h-459.656h0.001zM534.191 401.83q19.841 0 35.119 11.636t15.278 35.122t-16.468 35.982t-46.824 21.762q-30.356 9.266 -44.047 16.16t-25.991 18.099q-24.603 22.408 -24.603 69.382
q0 38.354 25.198 65.934t68.846 27.58q21.031 0 43.848 -6.68t28.372 -6.68t9.92 8.619h4.365l2.778 -87.049h-6.349q-19.047 37.492 -39.88 60.115t-45.237 22.625t-37.896 -12.282t-13.492 -32.751t16.071 -31.458t39.484 -17.884t30.754 -9.48t18.254 -7.111
t17.857 -9.48t14.683 -12.497t12.103 -16.591q10.715 -20.686 10.715 -49.127q0 -46.541 -26.785 -74.767t-70.434 -28.226q-22.619 0 -51.784 6.463t-32.341 6.463q-5.555 0 -10.715 -12.928h-5.555l-3.968 102.562h6.746q17.46 -37.492 44.642 -65.503t57.339 -28.011z
M148.549 833.84l-130.705 -157.029l501.907 -638.586l501.907 638.586l-125.477 157.029h-747.631h-0.001zM244.372 767.082h561.387l94.219 -117.911l-376.875 -479.506l-376.875 479.506l98.145 117.911z" />
  </g>

</svg>
