<!-- Generated by IcoMoon.io -->
<svg version="1.1" xmlns="http://www.w3.org/2000/svg" width="32" height="32" viewBox="0 0 32 32">
<title>hema-icon-adapt-fo</title>
<path d="M29.156 0h-26.311c-1.571 0-2.844 1.274-2.844 2.844v26.311c0 1.571 1.274 2.844 2.844 2.844h26.311c1.571 0 2.844-1.273 2.844-2.844v-26.311c0-1.571-1.273-2.844-2.844-2.844zM14.030 11.982h-5.689v3.52h4.459v1.707h-4.437v4.508h-2.254v-10.88c-0.003-0.022-0.004-0.047-0.004-0.072 0-0.152 0.055-0.291 0.147-0.398 0.114-0.081 0.257-0.131 0.411-0.131 0.025 0 0.050 0.001 0.074 0.004l7.293-0zM25.792 18.674c-0.194 0.717-0.544 1.337-1.012 1.845-0.468 0.48-1.057 0.846-1.718 1.049-0.746 0.225-1.57 0.351-2.424 0.351-0.060 0-0.121-0.001-0.181-0.002-0.042 0.001-0.102 0.002-0.163 0.002-0.854 0-1.678-0.125-2.456-0.359-0.629-0.195-1.218-0.561-1.688-1.043-0.465-0.505-0.811-1.125-0.99-1.813-0.206-0.78-0.321-1.641-0.321-2.529 0-0.069 0.001-0.137 0.002-0.206-0.001-0.048-0.002-0.116-0.002-0.184 0-0.888 0.115-1.75 0.33-2.571 0.169-0.647 0.515-1.268 0.983-1.774 0.469-0.48 1.058-0.846 1.718-1.049 0.746-0.225 1.571-0.351 2.424-0.351 0.060 0 0.121 0.001 0.181 0.002 0.042-0.001 0.102-0.002 0.163-0.002 0.854 0 1.678 0.125 2.456 0.359 0.629 0.195 1.218 0.561 1.688 1.043 0.467 0.506 0.817 1.125 1.003 1.812 0.216 0.787 0.336 1.656 0.336 2.553 0 0.061-0.001 0.122-0.002 0.182 0.001 0.035 0.001 0.087 0.001 0.14 0 0.906-0.122 1.783-0.352 2.615z"></path>
<path d="M20.466 11.833c-0.029-0.001-0.063-0.001-0.097-0.001-0.511 0-1.001 0.089-1.455 0.252-0.383 0.139-0.731 0.384-0.998 0.698-0.282 0.365-0.488 0.798-0.589 1.27-0.122 0.544-0.19 1.146-0.19 1.763 0 0.050 0 0.1 0.001 0.15-0.001 0.038-0.002 0.091-0.002 0.144 0 0.616 0.068 1.217 0.197 1.795 0.095 0.435 0.301 0.866 0.585 1.233 0.265 0.311 0.613 0.556 1.009 0.699 0.439 0.159 0.927 0.248 1.436 0.248 0.036 0 0.072-0 0.108-0.001 0.082 0.009 0.183 0.014 0.285 0.014 0.895 0 1.702-0.379 2.268-0.986 0.504-0.776 0.803-1.722 0.803-2.739 0-0.153-0.007-0.304-0.020-0.454 0.012-0.101 0.017-0.242 0.017-0.384 0-1.015-0.298-1.96-0.81-2.753-0.555-0.585-1.359-0.961-2.251-0.961-0.105 0-0.208 0.005-0.31 0.015z"></path>
</svg>
