<?xml version="1.0" standalone="no"?>
<!DOCTYPE svg PUBLIC "-//W3C//DTD SVG 1.1//EN" "http://www.w3.org/Graphics/SVG/1.1/DTD/svg11.dtd" >
<svg xmlns="http://www.w3.org/2000/svg" xmlns:xlink="http://www.w3.org/1999/xlink" version="1.1" viewBox="0 -64 1024 1024">
  <g transform="matrix(1 0 0 -1 0 960)">
   <path fill="currentColor"
d="M22.394 129.278q154.463 172.132 177.198 191.293q6.14577 5.17999 11.5559 9.38985t11.4881 7.82835q6.07796 3.61848 9.72376 6.03018q3.6458 2.4117 10.553 5.12898q6.90716 2.71728 9.39964 3.91553t10.8399 3.59905t10.2975 2.97033
q1.95016 0.569527 12.3488 3.23857q10.3986 2.66905 12.7035 3.27015q22.9044 9.76064 78.2273 3.82688t79.5487 -3.82688q78.197 6.799 197.22 39.444q43.189 16.671 59.167 0q10.978 -11.456 9.86 -39.444q-51.157 -43.711 -87.926 -65.677
q-17.6385 -10.5369 -49.2876 -20.9702q-31.6491 -10.4333 -51.2712 -17.7247q-19.6221 -7.29136 -18.5963 -13.9602q3.1696 -3.85044 26.038 -12.153q22.8684 -8.30252 33.339 -7.44405q87.4184 -11.9989 164.451 7.776q78.097 20.049 180.474 100.57
q33.397 17.324 53.921 10.999q15.898 -4.899 33.159 -26.787q-99.456 -106.514 -196.887 -153.572q-10.5194 -5.08053 -32.9483 -16.4469t-33.5734 -16.6149q-11.1445 -5.2485 -28.2498 -11.4106t-32.0855 -8.80362q-46.3999 -8.18203 -123.943 -17.4327
q-77.543 -9.25063 -130.822 -15.744q-53.2789 -6.49339 -60.7862 -10.4353q-68.146 -35.777 -157.776 -118.332l-187.359 177.499zM552.418 603.95l-41.415 0.524l78.68 121.405l75.088 -123.351l-41.415 0.524l-0.059 -143.875l-70.941 0.043l0.061 144.73h0.001z
M508.868 800.431h330.91v-68.642h-330.91v68.642zM793.857 603.065l-0.059 -143.875l-70.941 0.043l0.061 144.73l-41.415 0.524l78.68 121.405l75.088 -123.351l-41.415 0.524h0.001zM738.856 239.263h-204.434q-20.0805 7.49016 -22.956 10.963
q-0.981009 6.34609 16.3309 13.0758q17.3119 6.72968 47.3699 16.3415q30.0579 9.61177 47.5602 18.5698h237.966q-66.849 -44.166 -121.835 -58.948zM921.863 245.359v-6.098h-7.478q3.738 3.006 7.478 6.098zM920.489 885.822h1.374v-544.559q-2.599 -1.231 -5.279 -2.615
q-28.169 -22.028 -54.502 -39.515v557.739h-646.476v-518.304q-9.73018 -6.51208 -20.633 -15.651q-9.318 -7.81 -40.72 -41.117v604.021h1.478l239.451 73.957h302.561l222.746 -73.957z" />
  </g>

</svg>
