<?xml version="1.0" standalone="no"?>
<!DOCTYPE svg PUBLIC "-//W3C//DTD SVG 1.1//EN" "http://www.w3.org/Graphics/SVG/1.1/DTD/svg11.dtd" >
<svg xmlns="http://www.w3.org/2000/svg" xmlns:xlink="http://www.w3.org/1999/xlink" version="1.1" viewBox="0 -64 1024 1024">
  <g transform="matrix(1 0 0 -1 0 960)">
   <path fill="currentColor"
d="M279.048 878.765v-869.884h565.425v869.884h-565.425zM308.429 849.066h506.665v-811.76h-506.665zM453.045 956.135v-1008l488.784 64.704v864.973l-488.784 78.324zM498.323 454.604q0 15.3391 7.19355 26.1991t17.3545 10.8599q10.1611 0 17.3546 -10.8594
q7.19343 -10.8594 7.19343 -26.1996q0 -15.3391 -7.19355 -26.1991t-17.3545 -10.8599q-17.2366 0 -23.0952 24.4791q-1.34278 6.61963 -1.4528 12.5799zM425.947 526.252h-261.849v-148.234h261.849v148.234zM203.376 291.478l2.839 321.314l-188.973 -157.009
l186.133 -164.305h0.001z" />
  </g>

</svg>
