<svg xmlns="http://www.w3.org/2000/svg" viewBox="0 0 72 72"><title>icon_Linked</title><g id="Layer_2" data-name="Layer 2"><g id="Layer_2-2" data-name="Layer 2"><path d="M43.74,38.28c4.56,2.53,10.52,1.49,14.57-2.44q5.09-4.94,10-10A12.74,12.74,0,0,0,68.42,8C67,6.55,65.61,5.12,64.14,3.73A12.73,12.73,0,0,0,46,3.91q-4.36,4.32-8.67,8.69a28.46,28.46,0,0,0-3,3.37c-2.2,3.09-3,8.75-.65,12.09.38-.36.76-.7,1.12-1.06q8-7.94,15.91-15.88c1.63-1.64,3.57-2.47,5.8-1.78a9.28,9.28,0,0,1,6.07,5.92,5.26,5.26,0,0,1-1.34,5.59c-.71.76-1.45,1.48-2.19,2.21Zm-5.4,5.44c-.35.33-.61.55-.85.8L21.64,60.43c-3.28,3.29-6.41,3.28-9.73,0l-.61-.61c-3-3-3-6.28.06-9.34L26.88,34.92c.42-.42.8-.88,1.24-1.36a12.35,12.35,0,0,0-14,2.2c-3.63,3.46-7.19,7-10.63,10.63A12.73,12.73,0,0,0,3.4,63.8C4.91,65.45,6.51,67,8.16,68.56a12.48,12.48,0,0,0,17,.19c3.95-3.61,7.72-7.44,11.37-11.35A12.11,12.11,0,0,0,38.34,43.72Zm-11,6.91c3.16-3,6.22-6.16,9.32-9.26,4.77-4.76,9.56-9.51,14.3-14.3C53,25,53,22.49,51,20.68s-4.19-1.55-6.28.53Q33,32.86,21.37,44.54a9.53,9.53,0,0,0-.82.88c-1,1.35-2.27,3.72-.08,5.71C23,53.48,25.48,52.37,27.29,50.63Z"/></g></g></svg>