<!-- Generated by IcoMoon.io -->
<svg version="1.1" xmlns="http://www.w3.org/2000/svg" width="32" height="32" viewBox="0 0 32 32">
<title>hema-icon-adapt-w</title>
<path d="M29.156 0h-26.311c-1.571 0-2.844 1.274-2.844 2.844v26.311c0 1.571 1.274 2.844 2.844 2.844h26.311c1.571 0 2.844-1.273 2.844-2.844v-26.311c0-1.571-1.273-2.844-2.844-2.844zM20.58 22.044h-2.283l-2.219-8.064h-0.071l-2.219 8.064h-2.283l-3.278-11.449h2.29l2.133 8.484h0.071l2.332-8.484h2.012l2.318 8.484h0.071l2.034-7.886c0.071-0.284 0.156-0.455 0.27-0.512 0.142-0.056 0.307-0.088 0.479-0.088 0.029 0 0.058 0.001 0.086 0.003l1.546-0z"></path>
</svg>
