<?xml version="1.0" standalone="no"?>
<!DOCTYPE svg PUBLIC "-//W3C//DTD SVG 1.1//EN" "http://www.w3.org/Graphics/SVG/1.1/DTD/svg11.dtd" >
<svg xmlns="http://www.w3.org/2000/svg" xmlns:xlink="http://www.w3.org/1999/xlink" version="1.1" viewBox="0 -64 1024 1024">
  <g transform="matrix(1 0 0 -1 0 960)">
   <path fill="currentColor"
d="M705.382 615.457l-367.43 -639.874l-104.78 60.166l367.43 639.874zM307.45 110.191l-16.029 -27.915q-4.54145 -7.91014 -2.15738 -16.726t10.2934 -13.357l18.003 -10.337q7.91014 -4.54145 16.726 -2.15738t13.357 10.2934l16.029 27.915
q4.54145 7.91014 2.15738 16.726t-10.2934 13.357l-18.003 10.337q-7.91014 4.54145 -16.726 2.15738t-13.357 -10.2934zM809.113 812.055q20.4646 -31.2621 21.9844 -68.67t-17.5504 -71.925q-27.476 -48.1263 -80.9008 -62.5759t-101.413 13.2649
q-47.9892 27.7143 -62.5106 81.4035t12.9566 101.816q19.1118 33.4744 52.4591 51.255q33.3474 17.7806 70.5089 15.764l-56.976 -99.795q-6.685 -11.7089 -3.15175 -24.7717t15.2097 -19.8053l48.056 -27.752q11.6759 -6.74275 24.6741 -3.22713t19.6829 15.2251
l56.976 99.795zM942.467 134.354l56.695 195.923l-140.993 147.157l-197.688 -48.766l-56.695 -195.923l140.993 -147.157zM728.038 280.04q0 29.8479 21.088 50.978q21.088 21.13 50.877 21.13q29.7894 0 50.8772 -21.1295q21.0878 -21.1295 21.0878 -50.9785
q0 -29.8479 -21.088 -50.978q-21.088 -21.13 -50.877 -21.13q-29.7894 0 -50.8772 21.1295q-21.0878 21.1295 -21.0878 50.9785zM958.079 118.005l62.262 215.338l-154.842 161.741l-217.104 -53.599l-62.262 -215.338l154.842 -161.741zM950.326 126.103l-206.233 -50.915
l-147.088 153.643l59.146 204.557l206.233 50.915l147.088 -153.643zM184.34 823.388h171.688q10.5028 0 17.9289 -7.42629q7.42609 -7.42629 7.42609 -17.9287v-344.666q0 -10.5028 -7.42629 -17.9289q-7.42629 -7.42609 -17.9287 -7.42609h-171.688
q-10.5028 0 -17.9289 7.42629q-7.42609 7.42629 -7.42609 17.9287v344.666q6.39523 20.4284 25.355 25.355zM127.214 805.738h285.942v-42.361h-285.942v42.361zM14.24 395.967l0.017 173.534q0.000749996 10.1204 7.1576 17.2755q7.15685 7.15503 17.2774 7.15353
l318.261 -0.031q10.1204 -0.000749996 17.2755 -7.1576t7.15353 -17.2774l-0.017 -173.534q-0.000749996 -10.1204 -7.1576 -17.2755q-7.15685 -7.15503 -17.2774 -7.15353l-318.261 0.031q-18.7173 0.00138708 -23.5873 18.0502q-0.728516 3.65381 -0.841664 6.38478z
M38.945 339.746l0.028 285.942l42.361 -0.004l-0.028 -285.942z" />
  </g>

</svg>
