<!-- Generated by IcoMoon.io -->
<svg version="1.1" xmlns="http://www.w3.org/2000/svg" width="32" height="32" viewBox="0 0 32 32">
<title>hema-icon-adapt-safety</title>
<path d="M31.573 27.264l-12.8-25.685c-0.562-0.949-1.58-1.576-2.745-1.576s-2.183 0.627-2.737 1.561l-12.865 25.7c-0.266 0.453-0.423 0.997-0.423 1.579 0 1.744 1.414 3.157 3.157 3.157 0.006 0 0.012-0 0.019-0h25.642c0.005 0 0.011 0 0.018 0 1.744 0 3.157-1.414 3.157-3.157 0-0.581-0.157-1.126-0.431-1.594zM14.45 9.003c0.195-0.137 0.437-0.219 0.698-0.219 0.040 0 0.079 0.002 0.118 0.006l1.645-0c0.483 0.016 0.868 0.411 0.868 0.896 0 0.005-0 0.010-0 0.015l-0.156 12.173h-3.271l-0.171-12.089c-0.003-0.027-0.004-0.059-0.004-0.090 0-0.268 0.104-0.512 0.275-0.692zM17.678 27.733c-0.39 0.318-0.893 0.51-1.441 0.51-0.084 0-0.166-0.004-0.248-0.013-0.057 0.008-0.134 0.012-0.213 0.012-0.548 0-1.051-0.192-1.446-0.512-0.313-0.387-0.504-0.89-0.504-1.438 0-0.078 0.004-0.156 0.012-0.232-0.007-0.054-0.011-0.128-0.011-0.203 0-0.542 0.192-1.039 0.511-1.427 0.387-0.313 0.89-0.505 1.438-0.505 0.078 0 0.156 0.004 0.232 0.012 0.062-0.009 0.144-0.013 0.228-0.013 0.548 0 1.051 0.192 1.445 0.513 0.303 0.384 0.489 0.88 0.489 1.419 0 0.075-0.004 0.149-0.011 0.222 0.008 0.058 0.012 0.137 0.012 0.216 0 0.545-0.186 1.046-0.498 1.444z"></path>
</svg>
