<svg id="Layer_1" data-name="Layer 1" xmlns="http://www.w3.org/2000/svg" viewBox="0 0 64 64"><title>hema-icon-bridge-service</title><path d="M64,23.42l-.37,0a14.79,14.79,0,0,1-8.34-2.66c-2.33-1.65-3.68-3.72-3.69-5.69a.92.92,0,0,0-.91-.93H44.08a.9.9,0,0,0-.9.9c0,1.57-1.28,3.67-3.27,5.35a12.45,12.45,0,0,1-7.86,3H32a12.45,12.45,0,0,1-7.85-3c-2-1.68-3.27-3.78-3.27-5.35a.9.9,0,0,0-.9-.9H13.37a.92.92,0,0,0-.91.93c0,2-1.36,4-3.68,5.68A14.79,14.79,0,0,1,.45,23.44a2.45,2.45,0,0,1-.43,0l0,0V36.67H12.46V49a.91.91,0,0,0,.91.91H19.8a.91.91,0,0,0,.91-.91V36.67H43.33V49a.91.91,0,0,0,.91.91h6.43a.91.91,0,0,0,.91-.91V36.67H64ZM6.52,31.5H1.91V25.16c.45,0,1-.14,1.66-.27s1-.22,1.19-.27h0A17,17,0,0,0,6.52,24Zm5.94,0H8.31V23.17a15.42,15.42,0,0,0,1.59-1C10.1,22,11,21.3,11.36,21a12.89,12.89,0,0,0,1.11-1.25Zm12.22,0h-4V19.36q.35.49.77,1v0l1,1h0A15,15,0,0,0,24.68,23Zm6.4,0H26.48V24a11,11,0,0,0,4.61,1.19Zm6.48,0H33V25.2A15.65,15.65,0,0,0,37.56,24Zm1.79,0V23a12.13,12.13,0,0,0,4-3.69V31.5Zm16.37,0H51.58V19.74a11.55,11.55,0,0,0,1.06,1.17,3.3,3.3,0,0,0,.49.46l.43.35.58.44a15.43,15.43,0,0,0,1.59,1Zm6.4,0-3,0H57.52V24c.46.19.93.35,1.41.5v0l1.22.28a16.32,16.32,0,0,0,2,.32Z"/></svg>