<svg xmlns="http://www.w3.org/2000/svg" viewBox="0 0 96 96"><defs><style>.cls-1{fill:#00aa8a;opacity:0;}.cls-2{fill-rule:evenodd;}</style></defs><title>Icon_Jobs_Done</title><g id="Layer_2" data-name="Layer 2"><g id="Layer_1-2" data-name="Layer 1"><rect class="cls-1" width="96" height="96"/><path id="Jobs_Done_icon" data-name="Jobs Done icon" class="cls-2" d="M45.7,21.27a3.58,3.58,0,0,1-.95-1.09,3,3,0,0,1-.39-1.51V14.52a2.79,2.79,0,0,1,.28-1.27,3.75,3.75,0,0,1,.7-1h.07a2.41,2.41,0,0,1,.95-.6,3.42,3.42,0,0,1,1.09-.18h.35a3.21,3.21,0,0,1,.95.14,3.36,3.36,0,0,1,.88.42,3,3,0,0,1,.88,1.05,3.1,3.1,0,0,1,.32,1.41v4.15a3.08,3.08,0,0,1-.42,1.62,2.7,2.7,0,0,1-1.12,1.05v.07h-.07a3.64,3.64,0,0,1-.67.25,2.81,2.81,0,0,1-.74.11h-.35a3,3,0,0,1-.88-.14,3.66,3.66,0,0,1-.81-.35Zm-16.87.49a3,3,0,0,1-2.32-1.05,3.7,3.7,0,0,1-.56-.91,2.83,2.83,0,0,1-.21-1.12V14.52a3,3,0,0,1,.25-1.2,3.18,3.18,0,0,1,.67-1,2.73,2.73,0,0,1,1-.63,3.38,3.38,0,0,1,1.2-.21h.28a3.3,3.3,0,0,1,1.23.21,2.81,2.81,0,0,1,.95.63h.07a4.08,4.08,0,0,1,.6,1,3,3,0,0,1,.25,1.2v4.15A3.33,3.33,0,0,1,32,19.8a2.95,2.95,0,0,1-1.55,1.69,3.18,3.18,0,0,1-1.37.28Zm37.27,0a2.86,2.86,0,0,1-2.14-.91,3,3,0,0,1-.88-2.18V14.52a3,3,0,0,1,.74-2,2.87,2.87,0,0,1,1.86-1h1.2a2.07,2.07,0,0,1,.49.07h0s0,0,0,.07h.21v.07a.31.31,0,0,1,.14,0,.31.31,0,0,0,.14,0,3.55,3.55,0,0,1,1.16,1.13,2.9,2.9,0,0,1,.46,1.62v4.15a2.83,2.83,0,0,1-.21,1.13,3.7,3.7,0,0,1-.56.91,3,3,0,0,1-2.32,1.05ZM77,18.85a8.94,8.94,0,0,0-4.68-3.34v3.16a5.75,5.75,0,0,1-1.76,4.22,5.67,5.67,0,0,1-4.15,1.76h-.35a5.67,5.67,0,0,1-4.15-1.76,5.75,5.75,0,0,1-1.76-4.22V15H53.71v3.66a6,6,0,0,1-6,6h-.28a5.64,5.64,0,0,1-4.18-1.76,5.81,5.81,0,0,1-1.72-4.22V15H35v3.66a5.81,5.81,0,0,1-1.72,4.22,5.64,5.64,0,0,1-4.18,1.76h-.28a5.67,5.67,0,0,1-4.15-1.76,5.75,5.75,0,0,1-1.76-4.22V15.51a9,9,0,0,0-4.61,3.38,9.31,9.31,0,0,0-1.79,5.63V74.08a9.12,9.12,0,0,0,2.74,6.64,9,9,0,0,0,6.68,2.78H51.8a20.87,20.87,0,0,1-1.08-20.64l-13-13a9.56,9.56,0,0,1-5.2.25,9.64,9.64,0,0,1-7.17-7,9.73,9.73,0,0,1,0-4.92l5.48,5.48,5.41-1.48,1.41-5.34-5.48-5.48a10.28,10.28,0,0,1,5,0,9.13,9.13,0,0,1,4.43,2.5,9.56,9.56,0,0,1,2.5,4.5,10.28,10.28,0,0,1,0,5L56.49,55.76a20.89,20.89,0,0,1,22.39-2.3v-29A9.22,9.22,0,0,0,77,18.85ZM29.52,65.71l2.39-1.9.42.49,7.88-7.95L43.94,60,36,67.89l.49.49-1.9,2.32-6.26,4L25.59,72ZM58,49.26a5.56,5.56,0,0,0-1.65.11,4.15,4.15,0,0,0-1.51.67L50.2,45.46a4.68,4.68,0,0,0,.7-1.51A4.89,4.89,0,0,0,51,42.3L63.41,29.92l7,7Zm11.5,6a17,17,0,1,0,17,17A17,17,0,0,0,69.5,55.23ZM80,67.34,68.38,81.6a2.43,2.43,0,0,1-3.49.3L57.8,75.68a2.2,2.2,0,0,1-.63-.87,2.21,2.21,0,0,1,2.06-3,2.21,2.21,0,0,1,1.46.55l5.57,4.89L76.6,64.45a2.2,2.2,0,0,1,3.91,1.41A2.36,2.36,0,0,1,80,67.34Z"/></g></g></svg>