<svg xmlns="http://www.w3.org/2000/svg" viewBox="0 0 72 72"><title>icon_Settings</title><g id="Layer_2" data-name="Layer 2"><g id="Layer_1-2" data-name="Layer 1"><g id="settings_icon_72x72"><path d="M65.16,14.79a.69.69,0,0,1,.79.26,36.76,36.76,0,0,1,6,14.49.71.71,0,0,1-.47.93c-1.61.76-3.19,1.59-4.79,2.37-.44.21-.53.46-.47,1.06a21.08,21.08,0,0,1,0,4.19c-.06.6,0,.85.47,1.07,1.56.75,3.09,1.57,4.66,2.3a1,1,0,0,1,.56,1.11,36.69,36.69,0,0,1-5.24,13.19c-1.05,1.63-1.06,1.62-2.89,1-1.3-.44-2.61-.87-3.91-1.32-.41-.14-.64,0-1,.34A29.37,29.37,0,0,1,55.77,59a.73.73,0,0,0-.29.94c.59,1.7,1.14,3.42,1.73,5.12a.66.66,0,0,1-.27.93,36.84,36.84,0,0,1-14.58,6,.7.7,0,0,1-.93-.46c-.75-1.59-1.56-3.15-2.32-4.73a.83.83,0,0,0-.91-.56c-1.47.05-2.95,0-4.42,0a.74.74,0,0,0-.82.48c-.78,1.6-1.6,3.18-2.38,4.78-.19.39-.37.56-.85.48A36.29,36.29,0,0,1,15,65.83a.72.72,0,0,1-.11-.15c.15-.16.31-.34.47-.51Q21.5,59,27.65,52.87a.82.82,0,0,1,1.08-.24A18.23,18.23,0,0,0,54,38.57a17.61,17.61,0,0,0-.41-7.24c-.25.23-.43.39-.61.57Q48.44,36.46,43.88,41a1,1,0,0,1-1.18.26q-4.12-1.49-8.26-2.91a1.32,1.32,0,0,1-.91-1.11,43.47,43.47,0,0,0-2.74-7.75c-.32-.67-.24-1,.18-1.41q4.59-4.54,9.14-9.12l.73-.76c-1.66-.18-3.12-.46-4.59-.49A18.2,18.2,0,0,0,19.34,43.33c.14.31.25.54-.07.87Q12.84,50.58,6.44,57a2.73,2.73,0,0,1-.3.2c-.82-1.37-1.67-2.7-2.43-4.09A36.4,36.4,0,0,1,0,42.6a.87.87,0,0,1,.58-1.14c1.57-.73,3.1-1.55,4.66-2.3a.74.74,0,0,0,.48-.82c0-1.57,0-3.13,0-4.7a.74.74,0,0,0-.49-.81c-1.56-.76-3.09-1.57-4.66-2.3A.83.83,0,0,1,0,29.45,36.85,36.85,0,0,1,5.71,15.58c.64-.94.64-.94,1.71-.58,1.55.52,3.11,1,4.66,1.56.47.16.69,0,1.1-.52a15.85,15.85,0,0,1,2.87-2.88c.52-.4.61-.63.45-1.07-.59-1.73-1.16-3.46-1.75-5.19A.59.59,0,0,1,15,6.07,36.89,36.89,0,0,1,29.65,0a.71.71,0,0,1,.93.46c.76,1.59,1.57,3.14,2.34,4.72.24.49.49.63,1.22.53a14.38,14.38,0,0,1,3.8,0c.65.08.9,0,1.11-.47.79-1.62,1.61-3.23,2.41-4.85.14-.28.25-.5.68-.42A36.61,36.61,0,0,1,57,6.15c.36.25.27.49.17.79-.56,1.69-1.11,3.38-1.7,5.06a.86.86,0,0,0,.35,1.12,25.75,25.75,0,0,1,3.06,3c.36.43.59.52,1,.37C61.68,15.94,63.4,15.37,65.16,14.79Z"/></g></g></g></svg>