<svg xmlns="http://www.w3.org/2000/svg" viewBox="0 0 175 175"><defs><style>.cls-1{fill-opacity:0;}</style></defs><title>Icon_Arrive_House_02</title><g id="Layer_2" data-name="Layer 2"><g id="Layer_1-2" data-name="Layer 1"><g id="ARRIVE_HOUSE_02"><path id="arrive_icon_house_2" data-name="arrive icon house 2" d="M105.66,66.24H71.29a1,1,0,0,1-.61-1.74L88.28,50.42a1,1,0,0,1,.5-.21l40.3-4.42a1,1,0,0,1,.74.23L152,65a1,1,0,0,1-.63,1.72h0a1,1,0,0,1-.64-.24L129.62,48.27a1,1,0,0,0-1.25,0L106.27,66A1,1,0,0,1,105.66,66.24Zm40.84-.2V84.22a1,1,0,0,1-1,1H140a1,1,0,0,1-1-1V72.1a1,1,0,0,0-1-1h-5.46a1,1,0,0,0-1,1V84.22a1,1,0,0,1-1,1h-19a1,1,0,0,1-1-1V66.06a1,1,0,0,1,.38-.79l17.46-14.16a1,1,0,0,1,1.31,0l16.5,14.14A1,1,0,0,1,146.51,66ZM127,71.82a1.07,1.07,0,0,0-1.07-1.07h-9.85A1.07,1.07,0,0,0,115,71.82v4.35a1.07,1.07,0,0,0,1.07,1.07h9.85A1.07,1.07,0,0,0,127,76.17Zm-10,44.44a8.5,8.5,0,1,0-8.5,8.5A8.5,8.5,0,0,0,117,116.26Zm-70.5,8.5a8.5,8.5,0,1,1,8.5-8.5A8.5,8.5,0,0,1,46.48,124.76Zm80.5-24s0-3-3.5-5-13.5-6-13.5-6-8.5-11-12-16a9.83,9.83,0,0,0-8.5-4.5h-56c-5,0-5,5-5,5l-.47,10c-.07,1.57-1,29-1,29,.26,7.46,6,7,6,7h2.2a12,12,0,0,1,11.4-16A12.13,12.13,0,0,1,58.39,114.8a11.84,11.84,0,0,1-.61,5.46H97.18a12,12,0,0,1,11.4-16,12.13,12.13,0,0,1,11.82,10.54,11.84,11.84,0,0,1-.61,5.46h2.7a4.58,4.58,0,0,0,5-4.5Zm-22.46-13,1.46,2H81.48c-2,0-2-1.5-2-1.5s0-10,0-12.5a1.79,1.79,0,0,1,2-2H91.84a3.66,3.66,0,0,1,2.67.75C95.72,75.74,101.72,83.91,104.53,87.77Z"/></g></g></g></svg>