<?xml version="1.0" encoding="utf-8"?>
<!-- Generated by IcoMoon.io -->
<!DOCTYPE svg PUBLIC "-//W3C//DTD SVG 1.1//EN" "http://www.w3.org/Graphics/SVG/1.1/DTD/svg11.dtd">
<svg version="1.1" xmlns="http://www.w3.org/2000/svg" xmlns:xlink="http://www.w3.org/1999/xlink" width="1024" height="1024" viewBox="0 0 1024 1024">
<g id="icomoon-ignore">
</g>
<path fill="#000" d="M725.804 341.48c0-0.040 0-0.091 0-0.137 0-22.902-16.843-41.868-38.82-45.185-4.897-0.585-10.278-0.898-15.737-0.898-2.469 0-4.925 0.065-7.362 0.193-10.429-0.012-10.566-0.012-12.774 10.135-7.080 28.544-32.477 49.369-62.736 49.369-0.348 0-0.69-0.002-1.036-0.007-41.37-0.553-82.377 0.001-123.59 0.001-0.501 0.013-1.092 0.025-1.685 0.025-5.687 0-11.192-0.79-16.408-2.266-24.238-6.229-42.747-26.711-46.071-51.984-0.655-3.973-1.693-5.49-5.765-5.285-6.559 0.348-13.118 0-19.677 0-0.627-0.031-1.367-0.045-2.104-0.045-25.739 0-46.597 20.863-46.597 46.597 0 0.624 0.010 1.245 0.036 1.863q-0.002 173.812-0.002 347.783c0 29.202 19.466 48.325 49.152 48.325h302.241c29.27 0 48.878-19.398 48.947-48.325q0-86.846 0-173.628 0-88.3 0-176.526zM464.434 587.872c-0.589 2.518-1.906 4.664-3.714 6.271-11.195 11.541-22.242 23.136-33.563 34.531-3.388 3.972-8.4 6.473-13.997 6.473-6.616 0-12.41-3.499-15.645-8.74-4.047-5.672-7.846-11.33-11.575-17.062-1.608-1.959-2.584-4.49-2.584-7.248 0-4.091 2.141-7.679 5.368-9.708 1.877-1.225 4.123-1.94 6.531-1.94 4.46 0 8.345 2.441 10.399 6.066 2.792 3.927 5.415 7.862 8.313 12.14 10.215-10.494 20.088-20.709 30.171-31.066 2.092-2.482 5.197-4.043 8.671-4.043 2.206 0 4.268 0.631 6.009 1.727 3.545 1.88 5.949 5.602 5.949 9.88 0 0.965-0.124 1.906-0.355 2.8zM460.224 500.747c-10.563 11.047-21.125 22.090-31.757 33s-23.264 9.873-31.894-2.761c-3.73-5.521-7.734-10.905-11.116-16.568-1.191-1.779-1.904-3.97-1.904-6.327 0-6.33 5.129-11.458 11.458-11.458 0.356 0 0.708 0.019 1.051 0.045 3.379 0.036 6.411 1.668 8.36 4.186 0.848 1.059 1.538 2.233 2.365 3.271 2.624 3.245 4.004 9.319 7.455 9.319s6.074-5.179 8.977-8.145c6.901-6.901 13.255-13.808 19.882-20.709 2.237-3.010 5.781-4.934 9.777-4.934 3.284 0 6.265 1.305 8.453 3.42 2.112 2.139 3.42 5.087 3.42 8.339 0 3.774-1.762 7.139-4.503 9.312zM460.567 410.999c-10.979 11.458-22.021 22.78-33.068 34.517-3.352 3.911-8.289 6.388-13.803 6.422-0.305 0.021-0.658 0.029-1.014 0.029-6.048 0-11.387-3.052-14.557-7.701q-6.945-9.313-12.882-18.975c-1.337-1.829-2.137-4.121-2.137-6.597 0-4.158 2.255-7.784 5.605-9.736 1.837-1.155 4.006-1.827 6.332-1.827 4.143 0 7.795 2.125 9.916 5.342l0.993 1.423c2.624 3.588 4.351 9.804 8.076 10.147s6.211-5.453 9.251-8.629c6.901-6.901 13.186-13.808 19.882-20.709 2.156-2.24 5.178-3.636 8.527-3.636 6.526 0 11.815 5.289 11.815 11.815 0 3.178-1.253 6.062-3.292 8.182zM653.524 633.295h-154.436c-0.36 0.035-0.778 0.058-1.201 0.058-4.627 0-8.681-2.46-10.92-6.143-1.038-1.654-1.632-3.601-1.632-5.682 0-2.343 0.755-4.517 2.034-6.276 2.52-3.415 6.563-5.629 11.124-5.629 0.473 0 0.946 0.025 1.408 0.070l153.618-0.004c8.766 0 13.808 4.42 14.224 11.527s-5.247 12.080-14.224 12.080zM667.332 531.882c-1.774 4.417-6.024 7.476-10.984 7.476-0.511 0-1.011-0.032-1.503-0.095l-78.299 0.005c-26.167 0-52.397 0-78.564 0-0.339 0.035-0.734 0.058-1.137 0.058-6.33 0-11.458-5.129-11.458-11.458 0-2.023 0.523-3.923 1.442-5.57 2.041-3.792 6.041-6.361 10.64-6.361 0.45 0 0.889 0.026 1.323 0.071 23.282-0.004 46.547-0.004 69.879-0.004 28.859 0 57.781 0 86.64 0 0.367-0.041 0.793-0.066 1.224-0.066 6.292 0 11.39 5.098 11.39 11.39 0 1.646-0.351 3.213-0.979 4.626zM654.905 450.004c-26.025 0-51.986 0-78.011 0v0c-25.819 0-51.639 0-77.458 0-10.563 0-16.705-8.698-12.291-17.053 2.337-3.971 6.593-6.594 11.458-6.594 0.585 0 1.158 0.037 1.726 0.109l153.885-0.006c0.364-0.038 0.787-0.061 1.215-0.061 5.767 0 10.599 3.995 11.883 9.369 0.144 0.744 0.221 1.501 0.221 2.273 0 6.596-5.347 11.943-11.943 11.943-0.388 0-0.768-0.021-1.148-0.056zM425.223 294.050c-0.039-0.634-0.063-1.379-0.063-2.128 0-18.401 13.636-33.618 31.352-36.095 5.516-0.525 11.706-0.813 17.958-0.813 4.311 0 8.596 0.136 12.84 0.403 3.701-0.030 4.876-0.857 4.665-5.346-0.034-0.562-0.055-1.22-0.055-1.881 0-17.871 14.173-32.426 31.891-33.046 0.745-0.054 1.544-0.078 2.354-0.078 18.144 0 32.928 14.403 33.532 32.403 0.349 7.786 0.349 7.786 8.425 7.786s14.224 0 21.399 0c20.208 0 36.588 16.38 36.588 36.588s-16.38 36.588-36.588 36.588c-21.399 0-42.735 0-64.135 0s-41.972 0-62.96 0c-0.187 0.003-0.402 0.004-0.623 0.004-19.447 0-35.357-15.144-36.582-34.279z"></path>
</svg>
