<?xml version="1.0" encoding="utf-8"?>
<!-- Generated by IcoMoon.io -->
<!DOCTYPE svg PUBLIC "-//W3C//DTD SVG 1.1//EN" "http://www.w3.org/Graphics/SVG/1.1/DTD/svg11.dtd">
<svg version="1.1" xmlns="http://www.w3.org/2000/svg" xmlns:xlink="http://www.w3.org/1999/xlink" width="1024" height="1024" viewBox="0 0 1024 1024">
<g id="icomoon-ignore">
</g>
<path fill="#000" d="M839.681 756.237c-38.54 0-69.782-31.242-69.782-69.782s31.242-69.782 69.782-69.782c38.54 0 69.782 31.242 69.782 69.782s-31.242 69.782-69.782 69.782zM400.465 686.455c0-38.54-31.242-69.782-69.782-69.782s-69.782 31.242-69.782 69.782c0 38.54 31.242 69.782 69.782 69.782s69.782-31.242 69.782-69.782zM269.11 382.698v0c0-9.068-7.352-16.419-16.419-16.419h-229.87c-9.068 0-16.419 7.352-16.419 16.419v0c0 9.068 7.352 16.419 16.419 16.419h229.87c9.068 0 16.419-7.352 16.419-16.419zM223.957 505.842v0c0-9.068-7.352-16.419-16.419-16.419h-127.249c-9.068 0-16.419 7.352-16.419 16.419v0c0 9.068 7.352 16.419 16.419 16.419h127.249c9.068 0 16.419-7.352 16.419-16.419zM995.661 682.35c-0.28 20.55-17.006 37.103-37.597 37.103-1.215 0-2.417-0.058-3.602-0.17l-22.015 0.012c3.614-9.835 5.706-21.194 5.706-33.040 0-54.407-44.106-98.516-98.516-98.516s-98.516 44.106-98.516 98.516c0 11.846 2.091 23.204 5.924 33.726l-323.595-0.685c3.614-9.835 5.706-21.194 5.706-33.040 0-54.407-44.106-98.516-98.516-98.516s-98.516 44.106-98.516 98.516c0 11.846 2.091 23.204 5.924 33.726l-18.197-0.685s-46.959 3.777-49.258-57.467h8.209c22.67 0 41.048-18.378 41.048-41.048s-18.378-41.048-41.048-41.048h-6.239c0-10.509 0.821-21.591 1.232-32.839h33.741c22.67 0 41.048-18.378 41.048-41.048s-18.378-41.048-41.048-41.048h-30.375c0.657-14.284 1.232-28.158 1.806-41.048h73.887c22.67 0 41.048-18.378 41.048-41.048s-18.378-41.048-41.048-41.048h-69.946s0-41.048 41.048-41.048h459.738c0.583-0.015 1.269-0.024 1.958-0.024 28.32 0 53.232 14.587 67.634 36.657 28.923 41.358 98.705 131.665 98.705 131.665s82.096 32.839 110.829 49.258 28.734 41.048 28.734 41.048zM810.947 464.795c0-14.531-76.842-101.225-94.821-119.366-2.295-2.332-5.485-3.777-9.014-3.777-0.006 0-0.013 0-0.018 0h-84.969s-16.419-4.105-16.419 16.419v102.621s0 12.315 16.419 12.315h176.508s12.315 0 12.315-8.209zM195.223 620.777v0c0-9.068-7.352-16.419-16.419-16.419h-57.467c-9.068 0-16.419 7.352-16.419 16.419v0c0 9.068 7.352 16.419 16.419 16.419h57.467c9.068 0 16.419-7.352 16.419-16.419z"></path>
</svg>
