<?xml version="1.0" encoding="utf-8"?>
<!-- Generated by IcoMoon.io -->
<!DOCTYPE svg PUBLIC "-//W3C//DTD SVG 1.1//EN" "http://www.w3.org/Graphics/SVG/1.1/DTD/svg11.dtd">
<svg version="1.1" xmlns="http://www.w3.org/2000/svg" xmlns:xlink="http://www.w3.org/1999/xlink" width="1024" height="1024" viewBox="0 0 1024 1024">
<g id="icomoon-ignore">
</g>
<path fill="#000" d="M515.484 177.551c-165.469 0-299.611 134.142-299.611 299.611s134.142 299.611 299.611 299.611c165.469 0 299.611-134.142 299.611-299.611s-134.142-299.611-299.611-299.611zM515.484 755.872c-153.926 0-278.709-124.783-278.709-278.709s124.783-278.709 278.709-278.709c153.926 0 278.709 124.783 278.709 278.709s-124.783 278.709-278.709 278.709zM515.484 226.323c-138.534 0-250.839 112.306-250.839 250.839s112.306 250.839 250.839 250.839c138.534 0 250.839-112.306 250.839-250.839s-112.306-250.839-250.839-250.839zM306.455 525.935v-97.55h418.064v97.55z"></path>
</svg>
