<svg xmlns="http://www.w3.org/2000/svg" xmlns:xlink="http://www.w3.org/1999/xlink" viewBox="0 0 64 64"><defs><style>.cls-1{clip-rule:evenodd;}.cls-2{fill:#fff;opacity:0;}.cls-3{fill:none;}.cls-4{fill-rule:evenodd;}.cls-5{clip-path:url(#clip-path);}</style><clipPath id="clip-path"><path class="cls-1" d="M17,27.62v3s5,0,5,0v-3h7v15H10v-15Zm-3,7H12v7h2Zm2,7h2v-7H16Z"/></clipPath></defs><title>Asset 1</title><g id="Layer_2" data-name="Layer 2"><g id="Layer_1-2" data-name="Layer 1"><g id="Van_Stock_Icon_Small" data-name="Van Stock Icon Small"><rect class="cls-2" width="64" height="64"/><polygon class="cls-3" points="35 20.63 35 27.63 45 27.63 40 20.63 35 20.63"/><ellipse cx="46.84" cy="38.77" rx="3.62" ry="3.64"/><path d="M54.71,32.13A2.68,2.68,0,0,0,53.23,30c-1.49-.86-5.74-2.57-5.74-2.57s-3.59-4.73-5.11-6.85a4.77,4.77,0,0,0-3.62-1.93H14.93a2.09,2.09,0,0,0-2.13,2.14L12,25.63H31v15H41.35a6,6,0,1,1,11.3,0h.15a2.09,2.09,0,0,0,2.2-2ZM35,27.63v-7h5l5,7Z"/><path class="cls-4" d="M17,27.62v3s5,0,5,0v-3h7v15H10v-15Zm-3,7H12v7h2Zm2,7h2v-7H16Z"/><g class="cls-5"><rect x="5" y="22.62" width="29" height="25"/></g></g></g></g></svg>