<?xml version="1.0" encoding="utf-8"?>
<!-- Generated by IcoMoon.io -->
<!DOCTYPE svg PUBLIC "-//W3C//DTD SVG 1.1//EN" "http://www.w3.org/Graphics/SVG/1.1/DTD/svg11.dtd">
<svg version="1.1" xmlns="http://www.w3.org/2000/svg" xmlns:xlink="http://www.w3.org/1999/xlink" width="1024" height="1024" viewBox="0 0 1024 1024">
<g id="icomoon-ignore">
</g>
<path d="M720.148 759.257c-39.017 0-70.645-31.627-70.645-70.645s31.627-70.645 70.645-70.645c39.017 0 70.645 31.627 70.645 70.645s-31.627 70.645-70.645 70.645zM275.672 688.612c0-39.017-31.627-70.645-70.645-70.645s-70.645 31.627-70.645 70.645c0 39.017 31.627 70.645 70.645 70.645s70.645-31.627 70.645-70.645zM878.227 684.457c-0.283 20.804-17.214 37.562-38.061 37.562-1.23 0-2.447-0.057-3.648-0.171l-22.287 0.012c3.659-9.957 5.776-21.455 5.776-33.447 0-55.082-44.653-99.734-99.734-99.734s-99.734 44.653-99.734 99.734c0 11.992 2.116 23.492 5.999 34.143l-327.762-0.692c3.659-9.957 5.776-21.455 5.776-33.447 0-55.082-44.653-99.734-99.734-99.734s-99.734 44.653-99.734 99.734c0 11.992 2.116 23.492 5.999 34.143l-18.254-0.692s-47.539 3.823-49.866-58.179c0 0 7.73-227.975 8.31-241.023l3.906-83.11s0-41.555 41.555-41.555h465.424c0.591-0.017 1.284-0.023 1.984-0.023 28.67 0 53.89 14.766 68.468 37.11 29.282 41.87 99.926 133.292 99.926 133.292s83.11 33.245 112.2 49.866 29.090 41.555 29.090 41.555zM691.227 464.211c0-14.711-77.79-102.476-95.992-120.843-2.322-2.359-5.552-3.823-9.123-3.823-0.006 0-0.014 0-0.018 0h-86.020s-16.621-4.156-16.621 16.621v103.89s0 12.465 16.621 12.465h178.69s12.465 0 12.465-8.31zM990.428 306.298c0 78.032-63.258 141.289-141.289 141.289s-141.289-63.258-141.289-141.289c0-78.032 63.258-141.289 141.289-141.289s141.289 63.258 141.289 141.289zM849.137 214.877c-0.034 0-0.074 0-0.114 0-13.127 0-25.601 2.784-36.866 7.793l106.212 130.088 5.568 5.485c10.309-14.597 16.478-32.758 16.478-52.359 0-50.442-40.849-91.341-91.272-91.422zM849.137 397.722c0.035 0 0.078 0 0.123 0 12.835 0 25.052-2.658 36.12-7.458l-111.043-136.159c-10.238 14.563-16.363 32.664-16.363 52.195 0 50.4 40.784 91.274 91.151 91.422z"></path>
</svg>
