<svg xmlns="http://www.w3.org/2000/svg" viewBox="0 0 64.17 64"><defs><style>.cls-1{fill:#fff;fill-opacity:0;}.cls-2{fill:#231f20;}</style></defs><title>Asset 3</title><g id="Layer_2" data-name="Layer 2"><g id="Layer_1-2" data-name="Layer 1"><rect class="cls-1" x="0.17" width="64" height="64"/><g id="Landlords_Details_Icon" data-name="Landlords Details Icon"><circle class="cls-2" cx="22.29" cy="28.41" r="3.04" transform="translate(-13.56 24.08) rotate(-45)"/><path class="cls-2" d="M63.08,24.16,33.86,1.86A3.68,3.68,0,0,0,33,1.44,3,3,0,0,0,32,1.27a3.18,3.18,0,0,0-1,.16,2.62,2.62,0,0,0-.82.42L16.47,12.32V10.75a.93.93,0,0,0-.36-.75,1.26,1.26,0,0,0-.82-.29H9.15A1.22,1.22,0,0,0,8.3,10a1,1,0,0,0-.33.75v8L.92,24.16Q0,24.81,0,25.46a3.38,3.38,0,0,0,.07.85A3.12,3.12,0,0,0,.56,27a1.89,1.89,0,0,0,1.54.52H7.91V60.18A2.4,2.4,0,0,0,8.69,62a2.64,2.64,0,0,0,1.9.75H53.41a2.64,2.64,0,0,0,1.9-.75,2.4,2.4,0,0,0,.78-1.8V27.55h5.82A1.89,1.89,0,0,0,63.44,27a3.12,3.12,0,0,0,.49-.72,3.38,3.38,0,0,0,.07-.85Q64,24.81,63.08,24.16ZM50.53,55.33a1.78,1.78,0,0,1-1.45,1.46l-5.22.91a1.78,1.78,0,0,1-1.57-.49L29.1,44a11.59,11.59,0,0,1-11.38-3.17A12,12,0,0,1,34.65,23.9a11.75,11.75,0,0,1,3.09,11.52l1.72,1.72a1.07,1.07,0,0,1,0,1.51.9.9,0,0,0,.64,1.53h1.12a1.07,1.07,0,0,1,1.08,1.07v2.23a1.07,1.07,0,0,0,1.07,1.07h2.5a1.07,1.07,0,0,1,1.07,1.07v2.52A1.07,1.07,0,0,0,48,49.23h2.3a1.07,1.07,0,0,1,1.05,1.25Z"/></g></g></g></svg>