<?xml version="1.0" encoding="utf-8"?>
<!-- Generated by IcoMoon.io -->
<!DOCTYPE svg PUBLIC "-//W3C//DTD SVG 1.1//EN" "http://www.w3.org/Graphics/SVG/1.1/DTD/svg11.dtd">
<svg version="1.1" xmlns="http://www.w3.org/2000/svg" xmlns:xlink="http://www.w3.org/1999/xlink" width="1024" height="1024" viewBox="0 0 1024 1024">
<g id="icomoon-ignore">
</g>
<path d="M0 512c0 282.591 229.409 512 512 512s512-229.409 512-512c0-282.591-229.409-512-512-512s-512 229.409-512 512zM66.957 512.425c0-245.857 199.61-445.472 445.472-445.472s445.472 199.61 445.472 445.472c0 245.857-199.61 445.472-445.472 445.472s-445.472-199.61-445.472-445.472z"></path>
<path d="M0 512c0 282.591 229.409 512 512 512s512-229.409 512-512c0-282.591-229.409-512-512-512s-512 229.409-512 512zM66.957 512.425c0-245.857 199.61-445.472 445.472-445.472s445.472 199.61 445.472 445.472c0 245.857-199.61 445.472-445.472 445.472s-445.472-199.61-445.472-445.472z"></path>
<path d="M397.697 650.448h-102.176l-105.315-203.161h-1.769q3.744 47.924 3.744 73.184v129.975h-69.024v-288.352h101.78l104.928 200.394h1.184q-2.767-43.593-2.767-70.020v-130.375h69.421v288.352zM583.095 362.079l-107.296 288.352h-43.791l107.488-288.352h43.593zM794.528 650.448l-14.198-54.048h-93.683l-14.596 54.048h-85.6l94.083-289.546h103.946l95.264 289.546h-85.216zM764.16 532.503l-12.431-47.328q-4.333-15.776-10.548-40.826t-8.182-35.894q-1.769 10.064-7.008 33.129t-23.18 90.918h61.344z"></path>
</svg>
