<?xml version="1.0" encoding="UTF-8" standalone="no"?>
<!DOCTYPE svg PUBLIC "-//W3C//DTD SVG 1.1//EN" "http://www.w3.org/Graphics/SVG/1.1/DTD/svg11.dtd">
<svg width="100%" height="100%" viewBox="0 0 868 748" version="1.1" xmlns="http://www.w3.org/2000/svg" xmlns:xlink="http://www.w3.org/1999/xlink" xml:space="preserve" style="fill-rule:evenodd;clip-rule:evenodd;stroke-linejoin:round;stroke-miterlimit:1.41421;">
    <g transform="matrix(1,0,0,1,-891.278,-74.5658)">
        <g transform="matrix(0.905533,0,0,0.905533,-479.253,-978.969)">
            <path d="M2305.69,1988.55L1691.28,1988.55C1672.41,1988.55 1662.64,1969.97 1657.08,1947.08L1513.51,1414.54C1513.51,1391.65 1528.83,1373.06 1547.71,1373.06L2437.58,1373.06C2456.46,1373.06 2471.78,1391.65 2471.78,1414.54L2339.89,1947.08C2333.26,1969.97 2324.57,1988.55 2305.69,1988.55ZM2038.54,1972.33L1968.58,1917.09L1981.44,1828.88L2064.26,1795.91L2134.22,1851.15L2121.36,1939.36L2038.54,1972.33ZM1890.66,1681.68L1731.72,1681.68L1652.26,1819.32L1731.72,1956.96L1890.66,1956.96L1970.12,1819.32L1890.66,1681.68ZM2081.38,1846.34C2102.29,1862.84 2105.86,1893.22 2089.36,1914.12C2072.85,1935.03 2042.48,1938.6 2021.57,1922.09C2000.67,1905.59 1997.1,1875.21 2013.6,1854.31C2030.11,1833.4 2060.48,1829.83 2081.38,1846.34ZM1811.4,1733.32C1858.89,1733.32 1897.45,1771.87 1897.45,1819.36C1897.45,1866.85 1858.89,1905.41 1811.4,1905.41C1763.91,1905.41 1725.36,1866.85 1725.36,1819.36C1725.36,1771.87 1763.91,1733.32 1811.4,1733.32ZM2239.82,1736.9C2234.97,1736.42 2230.07,1736.42 2225.22,1736.9L2223.02,1748.43C2218.37,1749.14 2213.82,1750.36 2209.44,1752.08L2201.77,1743.18C2197.33,1745.2 2193.09,1747.64 2189.12,1750.49L2192.99,1761.57C2189.31,1764.51 2185.98,1767.84 2183.04,1771.52L2171.96,1767.65C2169.11,1771.62 2166.67,1775.85 2164.65,1780.3L2173.55,1787.97C2171.83,1792.35 2170.61,1796.9 2169.91,1801.55L2158.37,1803.75C2157.89,1808.6 2157.89,1813.5 2158.37,1818.35L2169.91,1820.55C2170.61,1825.19 2171.83,1829.75 2173.55,1834.13L2164.65,1841.8C2166.67,1846.24 2169.11,1850.48 2171.96,1854.45L2183.04,1850.58C2185.98,1854.25 2189.31,1857.59 2192.99,1860.53L2189.12,1871.61C2193.09,1874.45 2197.33,1876.9 2201.77,1878.91L2209.44,1870.02C2213.82,1871.74 2218.37,1872.96 2223.02,1873.66L2225.22,1885.2C2230.07,1885.67 2234.97,1885.67 2239.82,1885.2L2242.02,1873.66C2246.67,1872.96 2251.22,1871.74 2255.6,1870.02L2263.27,1878.91C2267.71,1876.9 2271.95,1874.45 2275.92,1871.61L2272.05,1860.53C2275.72,1857.59 2279.06,1854.25 2282,1850.58L2293.08,1854.45C2295.92,1850.48 2298.37,1846.24 2300.38,1841.8L2291.49,1834.13C2293.21,1829.75 2294.43,1825.19 2295.13,1820.55L2306.67,1818.35C2307.14,1813.5 2307.14,1808.6 2306.67,1803.75L2295.13,1801.55C2294.43,1796.9 2293.21,1792.35 2291.49,1787.97L2300.38,1780.3C2298.37,1775.85 2295.92,1771.62 2293.08,1767.65L2282,1771.52C2279.06,1767.84 2275.72,1764.51 2272.05,1761.57L2275.92,1750.49C2271.95,1747.64 2267.71,1745.2 2263.27,1743.18L2255.6,1752.08C2251.22,1750.36 2246.67,1749.14 2242.02,1748.43L2239.82,1736.9ZM2232.52,1796.15C2240.74,1796.15 2247.42,1802.82 2247.42,1811.05C2247.42,1819.27 2240.74,1825.95 2232.52,1825.95C2224.3,1825.95 2217.62,1819.27 2217.62,1811.05C2217.62,1802.82 2224.3,1796.15 2232.52,1796.15ZM2084.96,1478.1C2075.38,1477.15 2065.72,1477.15 2056.13,1478.1L2051.8,1500.87C2042.63,1502.26 2033.63,1504.67 2024.99,1508.05L2009.85,1490.5C2001.08,1494.48 1992.72,1499.3 1984.88,1504.91L1992.52,1526.8C1985.27,1532.59 1978.68,1539.17 1972.89,1546.43L1951.01,1538.8C1945.39,1546.63 1940.57,1554.99 1936.59,1563.76L1954.14,1578.9C1950.76,1587.54 1948.35,1596.54 1946.95,1605.71L1924.19,1610.04C1923.25,1619.63 1923.25,1629.29 1924.19,1638.88L1946.95,1643.21C1948.35,1652.38 1950.76,1661.38 1954.14,1670.02L1936.59,1685.16C1940.57,1693.93 1945.39,1702.29 1951.01,1710.12L1972.89,1702.49C1978.68,1709.74 1985.27,1716.33 1992.52,1722.12L1984.88,1744C1992.72,1749.62 2001.08,1754.44 2009.85,1758.42L2024.99,1740.87C2033.63,1744.25 2042.63,1746.66 2051.8,1748.05L2056.13,1770.82C2065.72,1771.76 2075.38,1771.76 2084.96,1770.82L2089.3,1748.05C2098.47,1746.66 2107.47,1744.25 2116.11,1740.87L2131.24,1758.42C2140.02,1754.44 2148.38,1749.62 2156.21,1744L2148.58,1722.12C2155.83,1716.33 2162.42,1709.74 2168.21,1702.49L2190.09,1710.12C2195.7,1702.29 2200.53,1693.93 2204.51,1685.16L2186.96,1670.02C2190.34,1661.38 2192.75,1652.38 2194.14,1643.21L2216.91,1638.88C2217.85,1629.29 2217.85,1619.63 2216.91,1610.04L2194.14,1605.71C2192.75,1596.54 2190.34,1587.54 2186.96,1578.9L2204.51,1563.76C2200.53,1554.99 2195.7,1546.63 2190.09,1538.8L2168.21,1546.43C2162.42,1539.17 2155.83,1532.59 2148.58,1526.8L2156.21,1504.91C2148.38,1499.3 2140.02,1494.48 2131.24,1490.5L2116.11,1508.05C2107.47,1504.67 2098.47,1502.26 2089.3,1500.87L2084.96,1478.1ZM2070.55,1595.05C2086.78,1595.05 2099.96,1608.23 2099.96,1624.46C2099.96,1640.69 2086.78,1653.87 2070.55,1653.87C2054.32,1653.87 2041.13,1640.69 2041.13,1624.46C2041.13,1608.23 2054.32,1595.05 2070.55,1595.05Z"/>
        </g>
        <g transform="matrix(0.905533,0,0,0.905533,-479.253,-978.969)">
            <path d="M2322.43,1393.98L2293.91,1393.98L2145.97,1208.13L1839.13,1208.13L1691.19,1393.98L1662.32,1393.98L1827.35,1186.66L2157.41,1186.66L2322.43,1393.98Z"/>
        </g>
        <g transform="matrix(0.905533,0,0,0.905533,-474.725,-978.969)">
            <path d="M2120.04,1179.2C2120.04,1170.5 2112.98,1163.44 2104.28,1163.44L1871.25,1163.44C1862.56,1163.44 1855.5,1170.5 1855.5,1179.2L1855.5,1210.71C1855.5,1219.41 1862.56,1226.47 1871.25,1226.47L2104.28,1226.47C2112.98,1226.47 2120.04,1219.41 2120.04,1210.71L2120.04,1179.2Z"/>
        </g>
    </g>
</svg>
