<?xml version="1.0" encoding="UTF-8" standalone="no"?><!DOCTYPE svg PUBLIC "-//W3C//DTD SVG 1.1//EN" "http://www.w3.org/Graphics/SVG/1.1/DTD/svg11.dtd"><svg width="100%" height="100%" viewBox="0 0 1024 1024" version="1.1" xmlns="http://www.w3.org/2000/svg" xmlns:xlink="http://www.w3.org/1999/xlink" xml:space="preserve" style="fill-rule:evenodd;clip-rule:evenodd;stroke-linejoin:round;stroke-miterlimit:1.41421;"><path d="M512,66.348c245.962,0 445.652,199.69 445.652,445.652c0,245.962 -199.69,445.652 -445.652,445.652c-245.962,0 -445.652,-199.69 -445.652,-445.652c0,-245.962 199.69,-445.652 445.652,-445.652Zm0,55.829c215.149,0 389.823,174.674 389.823,389.823c0,215.149 -174.674,389.823 -389.823,389.823c-215.149,0 -389.823,-174.674 -389.823,-389.823c0,-215.149 174.674,-389.823 389.823,-389.823Z"/><path d="M512,154.541c197.287,0 357.459,160.172 357.459,357.459c0,197.287 -160.172,357.459 -357.459,357.459c-197.287,0 -357.459,-160.172 -357.459,-357.459c0,-197.287 160.172,-357.459 357.459,-357.459Zm40.03,647.192l0,-79.671l-79.672,0l0,79.671l79.672,0Zm-8.161,-140.3c0.518,-27.983 2.461,-48.192 5.829,-60.628c3.369,-12.437 8.551,-23.448 15.546,-33.035c6.996,-9.586 21.894,-24.484 44.694,-44.694c33.942,-30.055 56.742,-55.576 68.401,-76.562c11.659,-20.987 17.489,-43.917 17.489,-68.79c0,-43.01 -16.582,-79.672 -49.746,-109.986c-33.164,-30.314 -77.599,-45.471 -133.305,-45.471c-52.596,0 -94.893,14.12 -126.892,42.362c-31.998,28.241 -51.236,68.919 -57.713,122.034l71.899,8.55c6.218,-39.642 19.302,-68.79 39.253,-87.445c19.95,-18.655 44.823,-27.982 74.619,-27.982c30.833,0 56.872,10.299 78.117,30.897c21.246,20.598 31.869,44.5 31.869,71.705c0,15.027 -3.627,28.889 -10.882,41.584c-7.254,12.696 -22.995,29.732 -47.22,51.107c-24.225,21.375 -41.002,37.634 -50.329,48.775c-12.696,15.286 -21.894,30.443 -27.594,45.471c-7.773,19.95 -11.659,43.657 -11.659,71.121c0,4.664 0.129,11.66 0.388,20.987l67.236,0Z"/></svg>