<?xml version="1.0" encoding="UTF-8" standalone="no"?><!DOCTYPE svg PUBLIC "-//W3C//DTD SVG 1.1//EN" "http://www.w3.org/Graphics/SVG/1.1/DTD/svg11.dtd"><svg width="100%" height="100%" viewBox="0 0 1024 1024" version="1.1" xmlns="http://www.w3.org/2000/svg" xmlns:xlink="http://www.w3.org/1999/xlink" xml:space="preserve" style="fill-rule:evenodd;clip-rule:evenodd;stroke-linejoin:round;stroke-miterlimit:1.41421;"><path d="M512,66.348c245.962,0 445.652,199.69 445.652,445.652c0,245.962 -199.69,445.652 -445.652,445.652c-245.962,0 -445.652,-199.69 -445.652,-445.652c0,-245.962 199.69,-445.652 445.652,-445.652Zm0,55.829c215.149,0 389.823,174.674 389.823,389.823c0,215.149 -174.674,389.823 -389.823,389.823c-215.149,0 -389.823,-174.674 -389.823,-389.823c0,-215.149 174.674,-389.823 389.823,-389.823Z"/><path d="M552.03,801.733l-79.672,0l0,-79.671l79.672,0l0,79.671Zm-8.161,-140.3l-67.236,0c-0.259,-9.327 -0.388,-16.323 -0.388,-20.987c0,-27.464 3.886,-51.171 11.659,-71.121c5.7,-15.028 14.898,-30.185 27.594,-45.471c9.327,-11.141 26.104,-27.4 50.329,-48.775c24.225,-21.375 39.966,-38.411 47.22,-51.107c7.255,-12.695 10.882,-26.557 10.882,-41.584c0,-27.205 -10.623,-51.107 -31.869,-71.705c-21.245,-20.598 -47.284,-30.897 -78.117,-30.897c-29.796,0 -54.669,9.327 -74.619,27.982c-19.951,18.655 -33.035,47.803 -39.253,87.445l-71.899,-8.55c6.477,-53.115 25.715,-93.793 57.713,-122.034c31.999,-28.242 74.296,-42.362 126.892,-42.362c55.706,0 100.141,15.157 133.305,45.471c33.164,30.314 49.746,66.976 49.746,109.986c0,24.873 -5.83,47.803 -17.489,68.79c-11.659,20.986 -34.459,46.507 -68.401,76.562c-22.8,20.21 -37.698,35.108 -44.694,44.694c-6.995,9.587 -12.177,20.598 -15.546,33.035c-3.368,12.436 -5.311,32.645 -5.829,60.628Z"/></svg>