<?xml version="1.0" encoding="utf-8"?>
<!-- Generated by IcoMoon.io -->
<!DOCTYPE svg PUBLIC "-//W3C//DTD SVG 1.1//EN" "http://www.w3.org/Graphics/SVG/1.1/DTD/svg11.dtd">
<svg version="1.1" xmlns="http://www.w3.org/2000/svg" xmlns:xlink="http://www.w3.org/1999/xlink" width="1024" height="1024" viewBox="0 0 1024 1024">
<g id="icomoon-ignore">
</g>
<path d="M0 512c0 282.591 229.409 512 512 512s512-229.409 512-512c0-282.591-229.409-512-512-512s-512 229.409-512 512zM66.957 512.425c0-245.857 199.61-445.472 445.472-445.472s445.472 199.61 445.472 445.472c0 245.857-199.61 445.472-445.472 445.472s-445.472-199.61-445.472-445.472z"></path>
<path d="M258.544 496.813h18.848q27.696 0 40.89-9.242t13.194-29.024q0-19.604-13.472-27.884t-41.745-8.288h-17.708v74.436zM258.544 544.301v105.711h-58.41v-275.494h80.285q56.16 0 83.104 20.448t26.948 62.097q0 24.304-13.38 43.239t-37.872 29.673q62.176 92.896 81.034 120.032h-64.82l-65.76-105.711h-31.088zM617.529 573.52q0 37.312-26.848 58.784t-74.72 21.472q-44.095 0-78.015-16.586v-54.271q27.884 12.448 47.2 17.52t35.334 5.088q19.231 0 29.485-7.344t10.272-21.856q0-8.096-4.513-14.423t-13.28-12.153-35.709-18.656q-25.248-11.872-37.872-22.809t-20.164-25.44-7.53-33.92q0-36.564 24.785-57.476t68.506-20.912q21.472 0 40.992 5.088t40.8 14.314l-18.848 45.408q-22.048-9.056-36.455-12.634t-28.364-3.578q-16.586 0-25.44 7.719t-8.864 20.164q0 7.719 3.578 13.472t11.405 11.11 37.024 19.309q38.624 18.464 52.96 37.024t14.314 45.511zM667.473 650.016v-275.494h58.41v227.26h111.748v48.234h-170.157z"></path>
</svg>
