<?xml version="1.0" encoding="utf-8"?>
<!-- Generated by IcoMoon.io -->
<!DOCTYPE svg PUBLIC "-//W3C//DTD SVG 1.1//EN" "http://www.w3.org/Graphics/SVG/1.1/DTD/svg11.dtd">
<svg version="1.1" xmlns="http://www.w3.org/2000/svg" xmlns:xlink="http://www.w3.org/1999/xlink" width="1024" height="1024" viewBox="0 0 1024 1024">
<g id="icomoon-ignore">
</g>
<path d="M986.358 1006.87c26.771 0 37.641-21.003 24.262-46.892l-474.353-916.96c-13.392-25.888-35.122-25.888-48.522 0l-474.353 916.96c-13.392 25.888-2.511 46.892 24.262 46.892h948.692zM868.901 934.855h-713.818c-26.771 0-37.641-21.003-24.262-46.892l356.896-689.941c13.392-25.888 35.122-25.888 48.522 0l356.896 689.941c13.392 25.888 2.511 46.892-24.262 46.892z"></path>
<path d="M472.322 294.634q0-8.194 6.975-8.194h64.562q6.975 0 6.975 8.194l-14.319 403.013q0 8.194-6.975 8.194h-35.954q-6.975 0-6.975-8.194l-14.319-403.013zM474.426 833.294v-51.838q0-8.567 3.135-12.279t11.165-3.699h46.425q8.022 0 11.165 3.699t3.135 12.279v51.838q0 8.963-3.135 12.464t-11.165 3.5h-46.425q-8.022 0-11.165-3.5t-3.135-12.464z"></path>
</svg>
