<?xml version="1.0" encoding="utf-8"?>
<!-- Generated by IcoMoon.io -->
<!DOCTYPE svg PUBLIC "-//W3C//DTD SVG 1.1//EN" "http://www.w3.org/Graphics/SVG/1.1/DTD/svg11.dtd">
<svg version="1.1" xmlns="http://www.w3.org/2000/svg" xmlns:xlink="http://www.w3.org/1999/xlink" width="1024" height="1024" viewBox="0 0 1024 1024">
<g id="icomoon-ignore">
</g>
<path d="M0 512c0 282.59 229.41 512 512 512s512-229.41 512-512c0-282.59-229.41-512-512-512s-512 229.41-512 512zM66.957 512.425c0-245.858 199.61-445.473 445.473-445.473s445.471 199.61 445.471 445.473c0 245.858-199.61 445.471-445.471 445.471s-445.473-199.61-445.473-445.471z"></path>
<path d="M495.646 583.353q0 47.263-34.017 74.463t-94.636 27.216q-55.848 0-98.82-21.010v-68.747q35.325 15.758 59.8 22.195t44.763 6.437q24.353 0 37.348-9.313t13.016-27.679q0-10.273-5.729-18.268t-16.826-15.391-45.225-23.636q-31.979-15.037-47.967-28.89t-25.542-32.223-9.553-42.972q0-46.305 31.391-72.801t86.757-26.495q27.216 0 51.92 6.437t51.679 18.145l-23.868 57.52q-27.935-11.457-46.178-15.989t-35.931-4.531q-21.010 0-32.225 9.783t-11.227 25.542q0 9.783 4.531 17.058t14.431 14.084 46.901 24.475q48.929 23.391 67.073 46.901t18.143 57.637zM558.882 680.267v-348.961h74v287.861h141.537v61.1h-215.535z"></path>
</svg>
