<?xml version="1.0" standalone="no"?><!-- Generator: Gravit.io --><svg xmlns="http://www.w3.org/2000/svg" xmlns:xlink="http://www.w3.org/1999/xlink" style="isolation:isolate" width="414" height="414"><path d="M 129.06054882677665 180 L 280.93945117322335 180 C 288.14776424016617 180.00000000000477 294 185.85533013433144 294 193.06745460275872 L 294 340.93254539724126 C 294 348.144669865673 288.14776424016617 353.99999999999966 280.93945117322335 354 L 129.06054882677665 354 C 121.85223575983385 353.99999999999966 116 348.144669865673 115.99999999999999 340.93254539724126 L 116 193.06745460275872 C 116 185.85533013433144 121.85223575983386 180.00000000000477 129.06054882677665 180 Z M 168.60923450361716 209.61339876769296 Q 176.2788933905086 200.21309884162167 185.67422552695564 194.841498883869 Q 195.06955766339914 189.4698989261082 208.29971924329058 189.46989892611123 Q 216.35286107453018 189.4698989261082 222.96794186447482 191.96385604934875 Q 229.58302265442242 194.45781317259656 234.3765594587271 198.67835599654603 Q 239.17009626304002 202.89889882050002 241.85447687344887 208.55826306170553 Q 244.53885748386588 214.21762730291601 244.53885748386233 220.74028439448128 Q 244.53885748386588 228.989527186747 241.7586061373691 234.74481285576985 Q 238.97835479086766 240.5000985247971 234.76004240307614 245.00840563220208 Q 230.5417300152842 249.5167127396031 225.6523224748883 253.3535698522908 Q 220.76291493449426 257.1904269649698 216.54460254670045 261.4109697889175 Q 212.32629015891078 265.63151261287317 209.54603881240752 270.81126971499367 Q 206.76578746591252 275.9910268171183 206.7657874659143 283.2810553312214 L 206.76578746591426 294.024255246727 L 191.80995263647068 294.0242552467271 Q 190.85124527560737 290.7629267009494 190.3718915951742 286.92606958826707 Q 189.8925379147456 283.0892124755826 189.89253791474536 279.82788392979717 Q 189.8925379147456 271.77048399316664 192.57691852515882 265.82335546850857 Q 195.26129913557145 259.8762269438481 199.2878700511925 255.36791983644497 Q 203.3144409668102 250.8596127290422 207.9162362989515 247.2145984719976 Q 212.51803163108315 243.56958421494383 216.54460254670045 239.82864853007558 Q 220.5711734623219 236.08771284521123 223.25555407273413 231.8671700212596 Q 225.93993468314778 227.6466271973078 225.93993468314758 222.0831843839207 Q 225.93993468314775 215.36868443672097 220.7629149344902 210.2848487624177 Q 215.58589518584074 205.20101308811002 206.7657874659143 205.20101308811195 Q 198.7126456346738 205.20101308811 192.48104778906907 209.03787020078892 Q 186.2494499434709 212.8747273134768 181.07243019481683 219.58922726067317 L 168.60923450361716 209.61339876769296 M 187.39989877650143 323.18436930312225 Q 187.39989877650504 317.23724077846464 190.75537453952325 313.7840693770461 Q 194.11085030253733 310.33089797563457 200.2465774120502 310.3308979756318 Q 205.2318556885337 310.33089797563457 209.16255586806844 314.16775508831876 Q 213.09325604760016 318.00461220100135 213.09325604759889 323.18436930312225 Q 213.09325604760016 328.93965497214896 209.45016807632774 332.4887478013777 Q 205.8070801050508 336.0378406306131 200.2465774120502 336.0378406306127 Q 195.06955766339908 336.0378406306131 191.2347282199521 332.2009835179257 Q 187.39989877650504 328.36412640524645 187.39989877650143 323.18436930312225 M 168.60923450361716 209.61339876769296 Z" style="stroke:none;fill:#FFFFFF;stroke-miterlimit:10;fill-rule:evenodd;"/><rect x="158.31751722921535" y="343.6499006481008" width="93.61496554156929" height="38.402154398563766" transform="matrix(1,0,0,1,0,0)" fill="rgb(255,255,255)" stroke="none"/><mask id="_mask_Sqfpb9FMFypZwoqEnfQazJhblner455I"><rect x="158.31751722921535" y="343.6499006481008" width="93.61496554156929" height="38.402154398563766" transform="matrix(1,0,0,1,0,0)" fill="white" stroke="none"/></mask><rect x="158.31751722921535" y="343.6499006481008" width="93.61496554156929" height="38.402154398563766" transform="matrix(1,0,0,1,0,0)" fill="none" stroke="none" stroke-width="2" mask="url(#_mask_Sqfpb9FMFypZwoqEnfQazJhblner455I)"/><path d="M 208.51862144073053 63.84634806421344 C 249.33888586652023 64.2612617565531 280.876723008946 71.73737442919362 280.876723008946 80.99899292249485 C 280.876723008946 90.4753095523776 246.93351443934858 98.16887618953426 205.12500000000003 98.16887618953427 C 163.31648556065147 98.16887618953427 129.37327699105404 90.47530955237761 129.373276991054 80.99899292249485 C 129.373276991054 74.85402927080099 139.13186247674793 70.56713648648727 161.22640050405866 67.00609143631766 L 208.51862144073053 63.84634806421344 Z" style="stroke:none;fill:#FFFFFF;stroke-miterlimit:10;"/><path d="M 267.00420182103414 94.5 C 268.59562049862296 96.5111846260908 269.50000000000745 98.9411016938415 269.5 101.55020188862125 C 269.50000000000745 108.6973899722573 262.71359744139494 114.49999999999339 254.35465288612602 114.5 L 155.64534711387384 114.5 C 147.2864025586051 114.49999999999338 140.49999999999247 108.6973899722573 140.5 101.55020188862125 C 140.49999999999247 98.96679729164923 141.38665374289494 96.5590638482162 142.94880955428235 94.55944860540328 C 156.6849320272003 98.92913530685769 179.3191552035586 101.77925268076719 204.88726471088464 101.77925268076808 C 230.56952438460175 101.77925268076712 253.29164226952906 98.90362950056083 267.00420182103414 94.5 Z" style="stroke:none;fill:#FFFFFF;stroke-miterlimit:10;"/><path d="M 267.00420182103414 94.5 C 268.59562049862296 96.5111846260908 269.50000000000745 98.9411016938415 269.5 101.55020188862125 C 269.50000000000745 108.6973899722573 262.71359744139494 114.49999999999339 254.35465288612602 114.5 L 155.64534711387384 114.5 C 147.2864025586051 114.49999999999338 140.49999999999247 108.6973899722573 140.5 101.55020188862125 C 140.49999999999247 98.96679729164923 141.38665374289494 96.5590638482162 142.94880955428235 94.55944860540328 C 156.6849320272003 98.92913530685769 179.3191552035586 101.77925268076719 204.88726471088464 101.77925268076808 C 230.56952438460175 101.77925268076712 253.29164226952906 98.90362950056083 267.00420182103414 94.5 Z" style="fill:none;stroke:#FFFFFF;stroke-width:1;stroke-linecap:square;stroke-miterlimit:3;"/><circle vector-effect="non-scaling-stroke" cx="0" cy="0" r="1" fill="rgb(255,255,255)" transform="matrix(15.146861175079856,0,0,12.381489991567312,205.01256027172042,159.57679506810712)" stroke="none"/><path d="M 149.32060665156436 107 C 149.10870109357063 109.00957765251714 149.00000000000523 111.05032412738026 149 113.11665609163497 C 149.00000000000523 144.51142852302235 174.0927583478621 169.99999999999937 204.9999999999897 170 C 235.90724165213732 169.99999999999937 260.9999999999941 144.51142852302235 261 113.11665609163497 C 260.9999999999941 111.05032412738026 260.8912989064286 109.00957765251712 260.67939334843555 107 L 149.32060665156436 107 Z" style="stroke:none;fill:#FFFFFF;stroke-linecap:square;stroke-miterlimit:3;"/><path d="M 266.3175594171254 88 C 266.76707993381234 84.54722515341189 267.0000000000057 81.01412723871181 267 77.41935483869919 C 267.00000000000574 38.00193950585526 238.9946893439129 6.000000000005681 204.5 6 C 170.00531065609908 6.000000000005747 142.00000000000617 38.00193950585528 142 77.41935483869919 C 142.00000000000617 81.01412723871181 142.2329200661995 84.5472251534119 142.68244058287473 88.00000000000001 L 266.3175594171254 88 Z" style="stroke:none;fill:#FFFFFF;stroke-linecap:square;stroke-miterlimit:3;"/></svg>