<?xml version="1.0" standalone="no"?><!-- Generator: Gravit.io --><svg xmlns="http://www.w3.org/2000/svg" xmlns:xlink="http://www.w3.org/1999/xlink" style="isolation:isolate" width="222" height="225"><g opacity="0"><rect x="-1" y="2" width="222" height="222" transform="matrix(1,0,0,1,0,0)" fill="rgb(255,255,255)" stroke-width="3.4687500000000004" stroke="rgba(0,0,0,0)" stroke-linejoin="miter" stroke-linecap="butt"/></g><path d=" M 180.2421875 163.0540625 C 170.66991120706578 163.0540625 162.8984375 155.2825887929342 162.8984375 145.7103125 C 162.8984375 136.1380362070658 170.66991120706578 128.3665625 180.2421875 128.3665625 C 189.81446379293422 128.3665625 197.5859375 136.1380362070658 197.5859375 145.7103125 C 197.5859375 155.2825887929342 189.81446379293422 163.0540625 180.2421875 163.0540625 Z  M 173.13125000000002 90.2103125 C 173.13125000000002 86.7415625 154.0878125 64.923125 149.64781250000001 60.41375 C 148.98958797096475 59.7422179918581 148.3681351133472 59.4800425675507 147.42781250000002 59.4771875 L 126.3378125 59.4771875 C 126.3378125 59.4771875 122.279375 58.4365625 122.279375 63.5703125 L 122.279375 89.204375 C 122.279375 89.204375 122.279375 92.2915625 126.3378125 92.2915625 L 170.0440625 92.2915625 C 170.0440625 92.2915625 173.13125000000002 92.1875 173.13125000000002 90.2796875 L 173.13125000000002 90.2103125 Z  M 99.59375 153.3415625 L 157.24437500000002 153.8271875 C 156.2427717515358 150.89158183120963 155.94359375000002 149.08822247067155 155.94359375000002 145.98645044327037 C 155.94359375000002 132.5852636331625 166.82365693989212 121.70520044327037 180.22484375000002 121.70520044327037 C 193.6260305601079 121.70520044327037 204.50609375000002 132.58526363316247 204.50609375000002 145.98645044327037 C 204.50609375000002 149.08822247067152 204.20691574846424 150.89158183120963 203.20531250000002 153.8271875 L 208.68593750000002 153.8271875 C 214.0235768986336 154.28387099282983 218.78951104089762 149.95711849507475 218.849375 144.60031249999997 L 217.84343750000002 113.8671875 C 217.42747195420236 108.96601712207556 215.14748208237125 105.62944657793248 210.73250000000004 103.4609375 C 203.62156250000004 99.3678125 183.29468750000004 91.146875 183.29468750000004 91.146875 C 183.29468750000004 91.146875 165.95093750000004 68.6 159.01343750000004 58.3671875 C 154.90230738379893 51.895759959373386 149.33375343284317 48.93328925746492 141.66968750000007 49.1403125 L 27.721249999999998 49.1403125 C 22.045097226349355 49.05760495527883 17.341139692503774 53.873943727134375 17.557812499999997 59.546562499999986 L 16.62125 80.046875 C 16.62125 80.67125 16.34375 87.2271875 16.34375 87.2271875 L 99.59375 87.4353125 L 99.59375 153.3415625 Z " fill-rule="evenodd" fill="rgb(0,0,0)" stroke-width="3.4687500000000004" stroke="rgba(0,0,0,0)" stroke-linejoin="miter" stroke-linecap="butt"/><path d=" M 33.6875 94.3728125 L 33.6875 108.2478125 C 33.6875 108.2478125 61.4375 108.2478125 61.4375 108.2478125 L 61.4375 94.3728125 L 92.65625 94.3728125 L 92.65625 167.21656249999998 L 2.46875 167.21656249999998 L 2.46875 94.37281249999998 L 33.6875 94.3728125 Z  M 23.28125 139.46656249999998 L 16.34375 125.59156249999998 L 9.40625 139.46656249999998 C 9.40625 139.46656249999998 11.765 139.46656249999998 12.875 139.46656249999998 L 12.875 160.27906249999998 L 19.8125 160.27906249999998 L 19.8125 139.46656249999998 C 20.9571875 139.3625 23.28125 139.4665625 23.28125 139.46656249999998 Z  M 33.6875 160.27906249999998 L 40.625 160.27906249999998 L 40.625 139.46656249999998 C 41.975113202189725 139.3677505076186 42.74363679781025 139.3677505076186 44.09374999999998 139.46656249999998 L 37.15625 125.59156249999998 L 30.21875 139.46656249999998 C 30.21875 139.46656249999998 32.6121875 139.46656249999998 33.6875 139.46656249999998 L 33.6875 160.27906249999998 Z " fill-rule="evenodd" fill="rgb(0,0,0)" stroke-width="3.4687500000000004" stroke="rgba(0,0,0,0)" stroke-linejoin="miter" stroke-linecap="butt"/></svg>