<?xml version="1.0" encoding="utf-8"?>
<!-- Generated by IcoMoon.io -->
<!DOCTYPE svg PUBLIC "-//W3C//DTD SVG 1.1//EN" "http://www.w3.org/Graphics/SVG/1.1/DTD/svg11.dtd">
<svg version="1.1" xmlns="http://www.w3.org/2000/svg" xmlns:xlink="http://www.w3.org/1999/xlink" width="1024" height="1024" viewBox="0 0 1024 1024">
<g id="icomoon-ignore">
</g>
<path d="M0 512c0 282.59 229.41 512 512 512s512-229.41 512-512c0-282.59-229.41-512-512-512s-512 229.41-512 512zM66.957 512.425c0-245.858 199.61-445.473 445.473-445.473s445.471 199.61 445.471 445.473c0 245.858-199.61 445.471-445.471 445.471s-445.473-199.61-445.473-445.471z"></path>
<path d="M653.089 694.242h-84.257l-47.263-183.326q-2.625-9.783-8.947-40.464t-7.273-41.183q-1.439 12.895-7.158 41.415t-8.831 40.694l-47.014 182.835h-84.015l-89.037-348.961h72.801l44.639 190.482q11.689 52.759 16.942 91.425 1.441-13.601 6.561-42.136t9.668-44.272l50.847-195.489h69.931l50.847 195.489q3.348 13.131 8.353 40.095t7.647 46.305q2.395-18.617 7.647-46.433t9.553-44.995l44.389-190.482h72.801l-88.801 348.961z"></path>
</svg>
