<?xml version="1.0" standalone="no"?><!-- Generator: Gravit.io --><svg xmlns="http://www.w3.org/2000/svg" xmlns:xlink="http://www.w3.org/1999/xlink" style="isolation:isolate" width="414" height="414"><g style="isolation:isolate"><path d=" M 3.000000000000039 206.99999999999997 C 3.000000000000039 94.4093339814875 94.40933398148748 3.0000000000000746 207.00000000000003 2.9999999999999822 C 319.59066601851254 2.9999999999999822 411.00000000000006 94.40933398148742 411.00000000000006 206.99999999999997 C 411.00000000000017 319.59066601851254 319.5906660185126 410.9999999999999 207.00000000000003 411 C 94.40933398148756 411 3.000000000000039 319.59066601851254 3.000000000000039 206.99999999999997 Z  M 13.000000000000039 207.99999999999994 C 13.000000000000039 100.9284842765126 99.92848427651258 14.000000000000139 207.00000000000003 13.99999999999999 C 314.0715157234874 14.000000000000036 400.99999999999994 100.92848427651256 401.00000000000006 207.99999999999994 C 401.00000000000006 315.0715157234873 314.0715157234875 401.9999999999999 207.00000000000003 402 C 99.92848427651268 402 13.000000000000068 315.0715157234875 13.000000000000039 207.99999999999994 Z " fill-rule="evenodd" fill="rgb(0,0,0)" stroke-width="1" stroke="rgba(0,0,0,0)" stroke-linecap="butt"/><rect x="175" y="103.00000000000003" width="64" height="207.99999999999997" transform="matrix(6.123233995736765e-17,-1,1,6.123233995736766e-17,-2.842170943040401e-14,414)" fill="rgb(0,0,0)" stroke="none"/><mask id="_mask_T62jHNrKVZmvUILRbLEqDffN38sep1yb"><rect x="175" y="103.00000000000003" width="64" height="207.99999999999997" transform="matrix(6.123233995736765e-17,-1,1,6.123233995736766e-17,-2.842170943040401e-14,414)" fill="white" stroke="none"/></mask><rect x="175" y="103.00000000000003" width="64" height="207.99999999999997" transform="matrix(6.123233995736765e-17,-1,1,6.123233995736766e-17,-2.842170943040401e-14,414)" fill="none" stroke="none" stroke-width="2" mask="url(#_mask_T62jHNrKVZmvUILRbLEqDffN38sep1yb)"/></g></svg>