<?xml version="1.0" encoding="UTF-8" standalone="no"?><!DOCTYPE svg PUBLIC "-//W3C//DTD SVG 1.1//EN" "http://www.w3.org/Graphics/SVG/1.1/DTD/svg11.dtd"><svg width="100%" height="100%" viewBox="0 0 173 94" version="1.1" xmlns="http://www.w3.org/2000/svg" xmlns:xlink="http://www.w3.org/1999/xlink" xml:space="preserve" style="fill-rule:evenodd;clip-rule:evenodd;stroke-linejoin:round;stroke-miterlimit:1.41421;"><g id="BG.-Field.-Application"><g id="BG.-logo"><path id="Fill.-75" d="M33.24,61.2l4.3,0l0,-4.3c-2.1,-0.2 -4.3,0.4 -4.3,2.7l0,1.6Z" style="fill:#fff;fill-rule:nonzero;"/><path id="Fill.-76" d="M27.84,62.5c-4.6,0.1 -6.9,1.6 -6.9,6.2l0,11.3l4.3,0l0,-11.2c0,-2.2 0.8,-2.5 2.5,-2.6c1.1,-0.1 1.4,0.1 2.4,-0.4c0.9,-0.5 1.2,-1.6 1.2,-3.1c-1.2,-0.1 -2.1,-0.2 -3.5,-0.2" style="fill:#fff;fill-rule:nonzero;"/><path id="Fill.-77" d="M4.74,69.9l6.2,0c2.4,0 3.1,0.9 3.1,3.2c0,2.3 -0.7,3.3 -3.1,3.3l-6.2,0l0,-6.5Zm13.8,3.4c0,-3.8 -1.6,-5.1 -3.8,-5.5c1.8,-0.8 3.2,-1.9 3.2,-5.2c0,-4.6 -2.2,-6.2 -6.6,-6.2l-11,0l0,23.8l11.4,0c4.3,-0.1 6.8,-1.8 6.8,-6.9Zm-13.8,-7l0,-6.3l5.6,0c2.5,0 3.1,0.9 3.1,3.1c0,2.2 -0.7,3.2 -3.1,3.2l-5.6,0l0,0Z" style="fill:#fff;fill-rule:nonzero;"/><path id="Fill.-78" d="M55.94,61.2l4.3,0l0,-4.3c-2.1,-0.2 -4.3,0.4 -4.3,2.7l0,1.6Z" style="fill:#fff;fill-rule:nonzero;"/><path id="Fill.-79" d="M55.94,80.1l4.3,0l0,-17.4l-4.3,0l0,17.4Z" style="fill:#fff;fill-rule:nonzero;"/><path id="Fill.-80" d="M90.64,62.5c-2.3,0 -5.2,1.2 -7,2l0,-8.7c-2.1,-0.2 -4.3,0.4 -4.3,2.7l0,21.5l4.3,0l0,-12c2,-0.7 4.2,-1.5 5.7,-1.5c1.3,0 2,0.8 2,2l0,11.6l4.3,0l0,-11.8c0,-3.7 -1.3,-5.8 -5,-5.8" style="fill:#fff;fill-rule:nonzero;"/><path id="Fill.-81" d="M33.24,80.1l4.4,0l0,-17.4l-4.4,0l0,17.4Z" style="fill:#fff;fill-rule:nonzero;"/><path id="Fill.-82" d="M47.44,66.2l3.1,0c2.3,0 3.1,-1 2.9,-3.4l-6,0l0,-5.8c-2.1,-0.2 -4.3,0.4 -4.3,2.7l0,3.1l-3.2,0l0,3.4l3.2,0l0,7.9c0,4.3 1.8,6.2 6.3,6.2c1.4,0 2.6,-0.1 3.7,-0.2l-0.1,-3.4c-0.8,0.1 -2,0.1 -3,0.1c-1.7,0 -2.5,-0.6 -2.5,-2.4l0,-8.2l-0.1,0Z" style="fill:#fff;fill-rule:nonzero;"/><path id="Fill.-83" d="M66.94,67.5c0,-1.1 0.9,-1.5 1.9,-1.5c1.8,0 3.5,0.1 4.6,0.1c2,0.1 2.9,-1 2.8,-3.3c-1.3,-0.1 -4.3,-0.4 -6.8,-0.4c-3.9,0 -6.7,1.5 -6.7,5c0,3.7 2.1,4.7 5.9,5.4c3.5,0.6 4.2,0.8 4.2,2c0,1.5 -1.6,1.7 -3.2,1.7c-2.3,0 -4.8,-0.1 -6.3,-0.3l-0.2,3.6c1.6,0.1 4.1,0.3 6.7,0.3c4.5,0 7.3,-1.4 7.3,-5.1c0,-3.6 -1.9,-4.7 -5.7,-5.4c-3.5,-0.4 -4.5,-0.7 -4.5,-2.1" style="fill:#fff;fill-rule:nonzero;"/><path id="Fill.-84" d="M124.84,66.4l-9,0c-0.2,2.6 0.6,3.7 2.9,3.7l1.6,0l0,5.9c-1.2,0.2 -4.1,0.4 -5.3,0.4c-3.6,0 -4.9,-1.4 -4.9,-8.4c0,-6.8 1,-8.4 6.6,-8l3.8,0.3c2.6,0.1 3.5,-1.2 3.5,-3.4c-1.7,-0.3 -6.4,-0.8 -8.3,-0.8c-8.2,0 -10.3,2.3 -10.3,12c0,9.4 2.6,12.2 9.5,12.2c2.6,0 7.4,-0.5 9.9,-1.1l0,-12.8Z" style="fill:#fff;fill-rule:nonzero;"/><path id="Fill.-85" d="M149.54,67.5c0,-1.1 0.9,-1.5 1.9,-1.5c1.8,0 3.5,0.1 4.6,0.1c2,0.1 2.9,-1 2.8,-3.3c-1.3,-0.1 -4.3,-0.4 -6.8,-0.4c-3.9,0 -6.7,1.5 -6.7,5c0,3.7 2.1,4.7 5.9,5.4c3.5,0.6 4.2,0.8 4.2,2c0,1.5 -1.6,1.7 -3.2,1.7c-2.3,0 -4.8,-0.1 -6.3,-0.3l-0.2,3.6c1.6,0.1 4.1,0.3 6.7,0.3c4.5,0 7.3,-1.4 7.3,-5.1c0,-3.6 -1.9,-4.7 -5.7,-5.4c-3.5,-0.4 -4.5,-0.7 -4.5,-2.1" style="fill:#fff;fill-rule:nonzero;"/><path id="Fill.-86" d="M138.54,76.9c-1.1,0.1 -3.3,0.2 -5.2,0.2c-1.7,0 -2,-1.1 -2,-2.2c0,-1.6 0.7,-2 2.5,-2.3c1.5,-0.3 3,-0.5 4.7,-0.6l0,4.9Zm4.3,-8.8c0,-3.6 -1.5,-5.5 -5.9,-5.5c-2.8,0 -6.4,0.3 -8,0.5c0,2.2 0.6,3.3 2.5,3.3c1.3,0 3.8,-0.1 5.2,-0.1c1.3,0 1.9,0.5 1.9,2l0,0.6c-2,0.1 -3.7,0.3 -5.4,0.6c-3.8,0.6 -6.1,1.7 -6.1,5.5c0,3.4 1.7,5.5 5.4,5.5c3.8,0 8.1,-0.3 10.4,-0.6l0,-11.8Z" style="fill:#fff;fill-rule:nonzero;"/><path id="Fill.-87" d="M172.64,13.5l-26.6,8.7c0,0 -5.9,2 -9,4.7c-2,1.7 -3.4,3.9 -4,6.5c2.2,-1.2 4.5,-2 4.5,-2l21.2,-6.9c0,0 0.8,16.1 -8.7,23.2c2.8,-0.5 5.9,-1.7 9.6,-3.8c14.1,-8 13,-30.4 13,-30.4" style="fill:#fff;fill-rule:nonzero;"/><path id="Fill.-88" d="M146.04,48c-7.3,0 -13.3,-5.4 -13.3,-12.1c0,-0.9 0.1,-1.7 0.3,-2.6c-1,0.5 -1.9,1.1 -2.7,1.8c-2.2,1.8 -3.4,4.4 -3.4,7.2c0,5.3 4.7,9.7 10.6,9.7c2.9,0.1 6.5,-0.8 10.9,-3.3c0.6,-0.3 1.1,-0.7 1.6,-1.1c-1.4,0.3 -2.7,0.5 -4,0.4" style="fill:#fff;fill-rule:nonzero;"/></g></g></svg>