<?xml version="1.0" encoding="UTF-8" standalone="no"?><!DOCTYPE svg PUBLIC "-//W3C//DTD SVG 1.1//EN" "http://www.w3.org/Graphics/SVG/1.1/DTD/svg11.dtd"><svg width="100%" height="100%" viewBox="0 0 184 184" version="1.1" xmlns="http://www.w3.org/2000/svg" xmlns:xlink="http://www.w3.org/1999/xlink" xml:space="preserve" style="fill-rule:evenodd;clip-rule:evenodd;stroke-linejoin:round;stroke-miterlimit:1.41421;"><rect x="-2" y="-2" width="193" height="205" style="fill:#005eb8;"/><path id="Layer_1.-2" d="M183.55,0l-83.11,0l-20.62,35.73l-17.48,0c-12.763,0.005 -24.7,6.441 -31.72,17.1l-24.36,37c-8.318,12.648 -8.318,29.112 0,41.76l24.36,37c4.144,6.282 10.062,11.194 17,14.11l0,-54l-10.32,0c-0.988,0.105 -1.976,-0.211 -2.72,-0.87c-0.417,-0.393 -0.757,-0.861 -1,-1.38l0,-1.45c0.106,-0.945 0.617,-1.8 1.4,-2.34l12.65,-9.66l0,-14.54c0.005,-0.476 0.231,-0.923 0.61,-1.21c0.416,-0.351 0.946,-0.536 1.49,-0.52l10.8,0c0.543,-0.013 1.073,0.172 1.49,0.52c0.377,0.289 0.602,0.735 0.61,1.21l0,2.94l24.15,-18.68c0.463,-0.345 0.962,-0.637 1.49,-0.87c0.523,-0.23 1.088,-0.349 1.66,-0.35c0.631,-0.011 1.257,0.108 1.84,0.35c0.527,0.235 1.027,0.526 1.49,0.87l51.8,40c0.782,0.556 1.317,1.396 1.49,2.34c0.073,0.547 0.046,1.103 -0.08,1.64c-0.289,0.438 -0.625,0.843 -1,1.21c-0.744,0.659 -1.732,0.975 -2.72,0.87l-10.12,0l0,54.86c7.875,-2.755 14.628,-8.028 19.21,-15l24.36,-37c8.318,-12.648 8.318,-29.112 0,-41.76l-11.44,-17.42c6.24,-10.14 15.34,-25.25 18.79,-30.53l0,-41.93Z" style="fill:#fff;fill-rule:nonzero;"/></svg>