<?xml version="1.0" encoding="UTF-8" standalone="no"?><!DOCTYPE svg PUBLIC "-//W3C//DTD SVG 1.1//EN" "http://www.w3.org/Graphics/SVG/1.1/DTD/svg11.dtd"><svg width="100%" height="100%" viewBox="0 0 534 534" version="1.1" xmlns="http://www.w3.org/2000/svg" xmlns:xlink="http://www.w3.org/1999/xlink" xml:space="preserve" style="fill-rule:evenodd;clip-rule:evenodd;stroke-linejoin:round;stroke-miterlimit:1.41421;"><path id="icon_EWB_Training_Scenario" d="M518.995,16.396l-228.324,0l-56.623,99.453l-47.453,0c-35.051,0.035 -67.832,17.962 -87.112,47.636l-67.397,102.938c-22.775,35.204 -22.775,80.98 0,116.184l66.939,102.938c11.37,17.474 27.612,31.149 46.65,39.271l0,-150.226l-27.852,0c-2.705,0.279 -5.41,-0.604 -7.451,-2.44c-1.146,-1.092 -2.086,-2.393 -2.751,-3.834l0,-4.066c0.31,-2.638 1.731,-5.008 3.898,-6.506l34.386,-26.839l0,-40.432c0.023,-1.336 0.665,-2.579 1.719,-3.369c1.158,-0.964 2.625,-1.464 4.126,-1.394l29.687,0c1.502,-0.058 2.957,0.441 4.126,1.394c1.055,0.79 1.697,2.033 1.72,3.369l0,8.133l66.365,-52.05c1.284,-0.965 2.659,-1.789 4.126,-2.44c1.445,-0.627 3.015,-0.941 4.585,-0.93c1.731,-0.046 3.439,0.268 5.044,0.93c1.455,0.651 2.842,1.475 4.126,2.44l141.671,111.42c2.166,1.533 3.645,3.869 4.126,6.506c0.264,1.499 0.264,3.033 0,4.531c-0.79,1.22 -1.719,2.347 -2.751,3.37c-2.04,1.835 -4.745,2.718 -7.45,2.439l-28.082,0l0,152.782c21.606,-7.657 40.14,-22.319 52.726,-41.71l66.938,-102.939c22.775,-35.203 22.775,-80.98 0,-116.183l-31.406,-48.449c17.078,-28.232 42.18,-69.71 51.579,-84.93l0.115,-116.997Zm-77.254,116.184c-5.548,4.298 -11.91,7.377 -18.684,9.062c-17.055,4.508 -34.982,4.508 -52.037,0c-6.774,-1.685 -13.136,-4.764 -18.684,-9.062c-3.816,-2.603 -6.143,-6.948 -6.189,-11.619l0,-11.618l45.848,17.311c2.854,1.046 5.972,1.046 8.826,0l45.848,-18.357l0,12.664c0.252,4.439 -1.581,8.749 -4.928,11.619Zm47.109,-49.378l-91.697,34.855l-0.688,0l-53.871,-20.332l-0.688,0.581c-3.003,3.276 -5.135,7.273 -6.189,11.618l0,1.394c-1.456,4.264 -2.259,8.737 -2.408,13.245l0,0.813l0.688,0c3.061,2.196 4.757,5.856 4.47,9.644c0.161,3.671 -1.421,7.215 -4.241,9.527l-0.687,0l4.928,23.236c0.207,0.477 0.207,1.034 0,1.511c-0.252,0.139 -0.55,0.139 -0.802,0l-16.391,0l-0.802,0c-0.149,-0.419 -0.149,-0.86 0,-1.278l4.929,-23.237l-0.688,0c-2.82,-2.312 -4.402,-5.856 -4.241,-9.527c-0.161,-3.881 1.605,-7.587 4.699,-9.876l0,-0.697c-0.068,-10.143 2.637,-20.123 7.795,-28.813l0.917,-1.511l-28.656,-10.921c0,0 -0.917,-0.581 -0.917,-1.743c0,-1.162 0,-1.51 0.917,-1.742l91.697,-34.856l0.688,0l91.696,34.856c0,0 0.917,0.58 0.917,1.742c0,1.162 -1.031,1.627 -1.375,1.859l0,-0.348Z" style="fill:#fff;fill-rule:nonzero;"/></svg>