<?xml version="1.0" encoding="UTF-8" standalone="no"?><!DOCTYPE svg PUBLIC "-//W3C//DTD SVG 1.1//EN" "http://www.w3.org/Graphics/SVG/1.1/DTD/svg11.dtd"><svg width="100%" height="100%" viewBox="0 0 534 534" version="1.1" xmlns="http://www.w3.org/2000/svg" xmlns:xlink="http://www.w3.org/1999/xlink" xml:space="preserve" style="fill-rule:evenodd;clip-rule:evenodd;stroke-linejoin:round;"><path d="M522.486,11.357l-231.392,0l-57.409,99.479l-48.667,0c-35.534,0.014 -68.768,17.933 -88.313,47.609l-67.823,103.014c-23.158,35.215 -23.158,81.053 0,116.268l67.823,103.013c11.538,17.491 28.013,31.165 47.331,39.284l0,-150.344l-28.733,0c-2.751,0.293 -5.502,-0.588 -7.573,-2.422c-1.161,-1.094 -2.108,-2.397 -2.784,-3.842l0,-4.037c0.295,-2.631 1.717,-5.012 3.898,-6.515l35.22,-26.896l0,-40.481c0.014,-1.325 0.643,-2.57 1.698,-3.368c1.157,-0.978 2.634,-1.492 4.147,-1.449l30.07,0c1.512,-0.036 2.987,0.48 4.148,1.449c1.049,0.803 1.677,2.045 1.7,3.368l0,8.185l67.237,-52.008c1.288,-0.961 2.678,-1.773 4.147,-2.422c1.456,-0.64 3.03,-0.973 4.622,-0.974c1.757,-0.032 3.5,0.3 5.123,0.974c1.468,0.654 2.859,1.465 4.148,2.422l144.22,111.367c2.177,1.548 3.668,3.886 4.149,6.515c0.202,1.522 0.127,3.07 -0.223,4.566c-0.804,1.22 -1.74,2.346 -2.784,3.368c-2.071,1.835 -4.822,2.716 -7.573,2.423l-28.176,0l0,152.74c21.926,-7.671 40.728,-22.353 53.483,-41.763l67.824,-103.015c23.158,-35.213 23.158,-81.052 0,-116.267l-31.852,-48.5c17.373,-28.231 42.709,-70.299 52.314,-85l0,-116.74l0,-0.001Z" style="fill:#fff;fill-rule:nonzero;stroke:#000;stroke-opacity:0;stroke-width:4.83px;"/></svg>